{"glyphs":{"0":{"ha":765,"x_min":67,"x_max":700,"o":"m 382 -14 q 144 122 222 -14 q 67 497 67 257 q 98 772 67 658 q 199 947 129 886 q 382 1007 268 1007 q 622 873 543 1007 q 700 497 700 739 q 669 223 700 338 q 567 47 638 108 q 382 -14 497 -14 m 382 92 q 531 192 486 92 q 575 497 575 292 q 531 801 575 700 q 382 901 486 901 q 235 801 278 901 q 192 497 192 700 q 235 193 192 294 q 382 92 278 92 z "},"1":{"ha":765,"x_min":121,"x_max":482,"o":"m 363 0 l 363 619 q 364 703 363 658 q 367 791 365 749 q 368 864 368 833 q 330 826 346 840 q 286 788 314 811 l 186 706 l 121 789 l 381 992 l 482 992 l 482 0 l 363 0 z "},"2":{"ha":765,"x_min":65,"x_max":683,"o":"m 65 106 l 303 364 q 419 496 371 438 q 493 611 467 554 q 519 736 519 668 q 475 858 519 815 q 360 901 431 901 q 244 875 296 901 q 144 808 192 849 l 75 889 q 155 949 111 922 q 251 990 199 975 q 361 1006 303 1006 q 512 974 449 1006 q 610 883 575 942 q 644 740 644 824 q 614 596 644 664 q 530 461 583 528 q 407 321 476 394 l 217 118 l 217 113 l 683 113 l 683 0 l 65 0 l 65 106 z "},"3":{"ha":765,"x_min":56,"x_max":682,"o":"m 318 -14 q 178 -2 244 -14 q 56 40 113 10 l 56 156 q 183 108 115 125 q 315 90 251 90 q 498 142 440 90 q 556 286 556 194 q 524 386 556 347 q 435 443 493 425 q 297 461 378 461 l 207 461 l 207 564 l 297 564 q 422 588 371 564 q 499 653 472 611 q 525 751 525 696 q 503 832 525 799 q 444 883 482 865 q 356 901 407 901 q 228 878 283 901 q 122 819 172 856 l 60 904 q 186 976 111 946 q 356 1006 261 1006 q 519 974 453 1006 q 618 887 585 942 q 651 760 651 832 q 624 644 651 693 q 549 564 597 594 q 438 522 501 533 l 438 518 q 619 442 557 504 q 682 282 682 381 q 643 128 682 196 q 524 24 604 61 q 318 -14 443 -14 z "},"4":{"ha":765,"x_min":15,"x_max":738,"o":"m 474 222 l 15 222 l 15 331 l 465 997 l 593 997 l 593 335 l 738 335 l 738 222 l 593 222 l 593 0 l 474 0 l 474 222 m 474 335 l 474 576 q 475 656 474 614 q 478 738 476 697 q 481 813 479 778 q 482 869 482 847 l 476 869 q 449 807 467 843 q 415 747 431 771 l 136 335 l 474 335 z "},"5":{"ha":765,"x_min":89,"x_max":688,"o":"m 331 -14 q 197 -1 261 -14 q 89 40 133 13 l 89 157 q 162 122 119 136 q 250 99 204 107 q 333 92 296 92 q 501 143 440 92 q 561 304 561 194 q 501 453 561 403 q 328 504 442 504 q 245 498 292 504 q 171 486 199 492 l 110 525 l 147 992 l 615 992 l 615 879 l 254 879 l 228 594 q 288 604 250 600 q 369 608 326 608 q 531 576 460 608 q 645 478 603 543 q 688 318 688 414 q 596 74 688 163 q 331 -14 504 -14 z "},"6":{"ha":765,"x_min":76,"x_max":701,"o":"m 400 -14 q 236 33 310 -14 q 119 178 163 81 q 76 424 76 275 q 87 593 76 510 q 125 751 97 676 q 201 883 153 825 q 326 973 250 940 q 510 1006 401 1006 q 570 1003 536 1006 q 626 993 604 1000 l 626 888 q 573 900 603 896 q 514 904 543 904 q 363 872 422 904 q 270 785 304 840 q 221 658 236 731 q 203 506 206 586 l 211 506 q 289 588 239 554 q 419 621 339 621 q 569 585 506 621 q 667 483 632 550 q 701 319 701 415 q 665 142 701 217 q 560 26 628 67 q 400 -14 493 -14 m 399 90 q 531 146 481 90 q 582 319 582 201 q 538 469 582 414 q 403 524 493 524 q 296 497 342 524 q 225 428 250 469 q 200 343 200 388 q 222 225 200 283 q 289 128 244 167 q 399 90 333 90 z "},"7":{"ha":765,"x_min":61,"x_max":699,"o":"m 572 879 l 61 879 l 61 992 l 699 992 l 699 893 l 322 0 l 190 0 l 572 879 z "},"8":{"ha":765,"x_min":72,"x_max":694,"o":"m 383 -14 q 153 58 235 -14 q 72 253 72 129 q 128 417 72 354 q 264 519 185 481 q 183 583 219 549 q 126 664 147 618 q 104 769 104 710 q 143 901 104 849 q 246 981 182 954 q 383 1007 310 1007 q 523 981 460 1007 q 624 901 586 954 q 663 768 663 849 q 639 663 663 708 q 576 585 615 618 q 485 525 536 551 q 585 460 538 497 q 664 374 633 424 q 694 258 694 325 q 655 114 694 175 q 546 19 615 53 q 383 -14 476 -14 m 381 89 q 525 135 476 89 q 574 257 574 181 q 521 375 574 326 q 365 472 468 424 q 237 379 281 432 q 193 251 193 326 q 238 134 193 179 q 381 89 283 89 m 385 575 q 465 621 429 596 q 521 681 500 646 q 542 764 542 715 q 499 869 542 833 q 382 904 457 904 q 299 888 335 904 q 244 841 264 872 q 225 764 225 810 q 246 680 225 714 q 303 622 267 646 q 385 575 339 597 z "},"9":{"ha":765,"x_min":72,"x_max":697,"o":"m 264 -14 q 204 -10 238 -14 q 147 -1 171 -7 l 147 104 q 201 92 171 96 q 260 88 231 88 q 411 119 351 88 q 504 206 471 151 q 553 333 538 261 q 571 486 568 406 l 563 486 q 516 428 544 454 q 448 386 488 401 q 354 371 408 371 q 206 406 269 371 q 107 509 142 442 q 72 672 72 576 q 109 851 72 776 q 214 965 146 925 q 374 1006 282 1006 q 538 958 465 1006 q 654 814 611 911 q 697 568 697 717 q 687 399 697 483 q 649 241 676 315 q 572 109 621 167 q 448 19 524 51 q 264 -14 372 -14 m 371 468 q 478 495 432 468 q 549 564 524 522 q 574 649 574 606 q 551 767 574 710 q 485 863 529 825 q 375 901 442 901 q 243 846 294 901 q 192 672 192 790 q 237 523 192 578 q 371 468 282 468 z "},"\u0000":{"ha":0,"x_min":0,"x_max":0,"o":""},"\r":{"ha":361,"x_min":0,"x_max":0,"o":""}," ":{"ha":361,"x_min":0,"x_max":0,"o":""},"ঀ":{"ha":750,"x_min":68,"x_max":731,"o":"m 485 403 q 413 388 449 393 q 342 382 376 382 q 137 444 206 382 q 68 617 68 507 q 94 735 68 681 q 167 830 121 789 q 270 894 213 871 q 390 917 328 917 q 482 905 440 917 q 554 865 524 893 q 600 801 583 839 q 617 685 617 763 l 617 150 q 626 77 617 100 q 659 48 635 54 q 731 40 683 42 l 721 -68 q 609 -54 651 -67 q 544 -17 567 -42 q 515 47 522 8 q 507 136 507 85 l 507 661 q 502 741 507 713 q 478 788 497 769 q 389 817 451 817 q 290 788 338 817 q 212 713 242 760 q 182 608 182 665 q 203 536 182 563 q 260 498 225 510 q 339 486 296 486 q 404 490 375 486 q 460 504 433 494 l 485 403 z "},"ঁ":{"ha":0,"x_min":-431,"x_max":58,"o":"m 58 1196 q 26 1071 53 1126 q -52 983 -1 1015 q -182 951 -103 951 q -315 983 -262 951 q -396 1070 -368 1015 q -431 1194 -424 1125 l -335 1207 q -294 1087 -328 1131 q -187 1043 -261 1043 q -82 1085 -118 1043 q -39 1208 -46 1128 l 58 1196 m -125 1153 q -142 1110 -125 1125 q -186 1094 -160 1094 q -232 1112 -217 1094 q -247 1157 -247 1129 q -233 1196 -247 1179 q -187 1213 -218 1213 q -140 1197 -156 1213 q -125 1153 -125 1182 z "},"ং":{"ha":608,"x_min":101,"x_max":589,"o":"m 171 436 q 337 310 258 383 q 480 154 415 238 q 589 -11 544 71 l 499 -57 q 385 101 442 31 q 262 231 329 171 q 101 347 194 290 l 171 436 m 108 675 q 134 774 108 732 q 204 840 160 817 q 304 864 249 864 q 404 840 360 864 q 474 774 449 817 q 500 675 500 732 q 474 575 500 618 q 404 508 449 532 q 304 485 360 485 q 204 508 249 485 q 134 574 160 532 q 108 675 108 617 m 204 675 q 233 601 204 628 q 304 575 261 575 q 376 602 349 575 q 404 675 404 629 q 376 748 404 722 q 304 774 349 774 q 233 747 261 774 q 204 675 204 719 z "},"ঃ":{"ha":608,"x_min":108,"x_max":500,"o":"m 108 675 q 134 774 108 732 q 204 840 160 817 q 304 864 249 864 q 404 840 360 864 q 474 774 449 817 q 500 675 500 732 q 474 575 500 618 q 404 508 449 532 q 304 485 360 485 q 204 508 249 485 q 134 574 160 532 q 108 675 108 617 m 204 675 q 233 601 204 628 q 304 575 261 575 q 376 602 349 575 q 404 675 404 629 q 376 747 404 719 q 304 774 349 774 q 233 747 261 774 q 204 675 204 719 m 108 190 q 134 290 108 247 q 204 356 160 332 q 304 379 249 379 q 404 356 360 379 q 474 291 449 333 q 500 190 500 249 q 474 90 500 133 q 404 24 449 47 q 304 0 360 0 q 204 24 249 0 q 134 90 160 47 q 108 190 108 133 m 204 190 q 233 117 204 144 q 304 90 261 90 q 376 117 349 90 q 404 190 404 144 q 376 263 404 236 q 304 289 349 289 q 233 262 261 289 q 204 190 204 235 z "},"অ":{"ha":1240,"x_min":-14,"x_max":1254,"o":"m 1254 864 l 1254 765 l 1108 765 l 1108 0 l 1001 0 q 901 144 961 82 q 774 250 842 206 l 808 342 q 918 258 861 311 q 1006 151 975 206 q 1003 190 1004 172 q 1002 228 1003 208 q 1001 269 1001 247 l 1001 765 l -14 765 l -14 864 l 1254 864 m 522 126 q 342 171 428 126 q 180 322 256 215 q 40 614 104 428 l 142 647 q 247 410 192 503 q 369 275 301 318 q 525 232 438 232 q 648 256 601 232 q 715 323 694 281 q 736 417 736 365 q 692 547 736 497 q 583 597 649 597 q 514 577 538 597 q 490 517 490 557 q 493 490 490 507 q 501 460 496 474 l 396 439 q 381 492 386 468 q 376 539 376 517 q 405 625 376 590 q 478 677 433 660 q 574 694 524 694 q 715 658 656 694 q 808 557 775 621 q 842 408 842 493 q 807 269 842 333 q 701 165 772 204 q 522 126 631 126 m 478 646 q 437 724 471 690 q 338 772 403 758 l 371 835 l 433 818 q 547 749 513 788 q 588 650 582 710 l 478 646 z "},"আ":{"ha":1608,"x_min":-14,"x_max":1622,"o":"m 1247 864 l 1247 765 l 1108 765 l 1108 0 l 1001 0 q 901 144 961 82 q 774 250 842 206 l 808 342 q 918 258 861 311 q 1006 151 975 206 q 1003 190 1004 172 q 1002 228 1003 208 q 1001 269 1001 247 l 1001 765 l -14 765 l -14 864 l 1247 864 m 522 126 q 342 171 428 126 q 180 322 256 215 q 40 614 104 428 l 142 647 q 247 410 192 503 q 369 275 301 318 q 525 232 438 232 q 648 256 601 232 q 715 322 694 281 q 736 417 736 364 q 692 547 736 497 q 583 597 649 597 q 514 577 538 597 q 490 517 490 557 q 493 490 490 507 q 501 460 496 474 l 396 439 q 381 492 386 468 q 376 539 376 517 q 405 625 376 590 q 478 677 433 660 q 574 694 524 694 q 715 658 656 694 q 808 557 775 621 q 842 408 842 493 q 807 269 842 333 q 701 165 772 204 q 522 126 631 126 m 478 646 q 437 724 471 690 q 338 772 403 758 l 371 835 l 433 818 q 547 749 513 788 q 588 650 582 710 l 478 646 m 1622 864 l 1622 765 l 1476 765 l 1476 0 l 1369 0 l 1369 665 q 1316 742 1346 719 q 1246 765 1286 765 l 1232 765 l 1232 864 l 1246 864 q 1319 842 1285 864 q 1375 776 1353 821 q 1372 808 1374 783 q 1369 851 1369 833 l 1369 956 l 1443 956 l 1475 864 l 1622 864 z "},"ই":{"ha":736,"x_min":-14,"x_max":750,"o":"m 497 864 q 470 946 496 921 q 386 971 444 971 l 286 971 q 145 983 194 971 q 61 1022 96 996 q 5 1094 24 1050 q -14 1193 -14 1138 q -12 1229 -14 1211 q -7 1267 -10 1247 l 96 1260 q 92 1231 93 1243 q 90 1207 90 1218 q 97 1153 90 1176 q 117 1114 103 1129 q 173 1081 136 1092 q 278 1071 210 1071 l 357 1071 q 474 1060 431 1071 q 547 1019 517 1049 q 583 959 571 997 q 597 864 596 921 l 497 864 m 336 694 q 513 658 446 694 q 613 565 581 621 q 644 451 644 508 q 565 271 644 338 q 328 196 485 204 l 342 211 q 474 160 404 193 q 614 83 543 126 q 750 -14 685 39 l 686 -87 q 528 23 600 -24 q 388 104 457 69 q 240 165 318 139 q 64 214 163 192 l 85 310 q 178 290 133 296 q 288 283 224 283 q 440 307 386 283 q 514 368 493 331 q 535 444 535 406 q 481 558 535 518 q 343 597 426 597 q 263 588 293 597 q 219 559 232 578 q 206 514 206 540 q 208 491 206 503 q 214 469 211 479 l 113 449 q 101 492 106 469 q 97 533 97 515 q 128 621 97 585 q 212 676 158 657 q 336 694 265 694 m 243 646 q 201 724 236 690 q 101 772 167 758 l 135 835 l 199 818 q 312 749 276 788 q 353 650 347 710 l 243 646 m 750 864 l 750 765 l -14 765 l -14 864 l 750 864 z "},"ঈ":{"ha":957,"x_min":-14,"x_max":971,"o":"m 294 126 q 200 158 244 126 q 114 257 156 190 l 194 308 q 242 249 222 265 q 289 232 263 232 q 335 248 313 232 q 393 310 358 264 q 430 372 418 343 q 442 431 442 400 q 424 512 442 474 q 370 574 406 550 q 283 599 335 599 q 218 579 239 599 q 197 529 197 560 q 201 498 197 513 q 211 468 206 483 l 111 444 q 92 500 97 474 q 88 546 88 526 q 115 631 88 599 q 188 679 143 664 q 281 694 232 694 q 419 661 363 694 q 505 569 475 628 q 535 432 535 510 q 534 413 535 424 q 532 396 533 403 l 458 376 q 529 478 490 428 q 626 575 568 528 q 769 663 683 622 l 868 574 q 813 435 829 501 q 796 279 796 368 q 808 151 796 213 q 844 14 819 90 l 740 -10 q 702 144 717 68 q 688 301 688 221 q 701 438 688 375 q 746 557 714 501 l 799 574 q 730 534 763 554 q 663 485 697 514 q 590 412 629 457 q 503 296 551 367 q 430 197 461 235 q 368 143 399 160 q 294 126 338 126 m 971 864 l 971 765 l -14 765 l -14 864 l 971 864 m 206 646 q 164 724 199 690 q 64 772 129 758 l 97 835 l 161 818 q 274 749 239 788 q 315 650 310 710 l 206 646 m 664 864 q 637 946 663 921 q 553 971 611 971 l 364 971 q 223 983 272 971 q 139 1022 174 996 q 83 1094 101 1050 q 64 1193 64 1138 q 66 1229 64 1211 q 71 1267 68 1247 l 174 1260 q 169 1231 171 1243 q 168 1207 168 1218 q 174 1153 168 1176 q 194 1114 181 1129 q 251 1081 214 1092 q 356 1071 288 1071 l 522 1071 q 640 1060 596 1071 q 714 1019 685 1049 q 750 959 738 997 q 764 864 763 921 l 664 864 z "},"উ":{"ha":989,"x_min":-14,"x_max":1003,"o":"m 706 864 q 678 946 704 921 q 594 971 653 971 l 400 971 q 260 983 310 971 q 176 1022 211 996 q 120 1094 139 1050 q 101 1193 101 1138 q 103 1229 101 1211 q 108 1267 106 1247 l 211 1260 q 207 1231 208 1243 q 206 1207 206 1218 q 212 1153 206 1176 q 232 1114 218 1129 q 288 1081 251 1092 q 393 1071 324 1071 l 565 1071 q 682 1060 639 1071 q 756 1019 725 1049 q 792 959 779 997 q 806 864 804 921 l 706 864 m 1003 864 l 1003 765 l 494 765 l 494 517 q 507 458 494 476 q 546 439 519 439 q 601 456 572 439 q 663 508 629 472 q 735 601 696 544 l 818 614 q 887 479 863 549 q 911 340 911 410 q 873 183 911 253 q 760 74 835 114 q 579 33 686 33 q 408 65 488 33 q 263 169 329 97 q 140 358 196 240 q 40 646 85 475 l 146 674 q 256 363 196 481 q 394 192 317 246 q 574 139 472 139 q 745 194 685 139 q 806 338 806 250 q 788 444 806 400 q 743 518 771 489 l 807 544 q 722 428 765 474 q 634 359 678 382 q 547 336 590 336 q 488 345 515 336 q 440 372 460 354 q 403 427 418 392 q 388 546 388 463 l 388 765 l -14 765 l -14 864 l 1003 864 z "},"ঊ":{"ha":1185,"x_min":-14,"x_max":1199,"o":"m 1199 864 l 1199 765 l 689 765 l 689 517 q 701 458 689 476 q 740 439 714 439 q 795 456 767 439 q 857 508 824 472 q 929 601 890 544 l 1013 614 q 1081 479 1057 549 q 1106 340 1106 410 q 1069 186 1106 256 q 957 75 1033 117 q 761 33 881 33 q 477 85 610 33 q 235 261 344 136 q 40 604 125 386 l 144 636 q 227 446 181 535 q 342 282 274 357 q 513 147 411 207 l 517 151 q 414 278 460 204 q 334 440 368 353 q 276 611 300 526 l 381 640 q 453 415 415 510 q 535 258 490 319 q 638 168 581 197 q 771 139 696 139 q 901 167 850 139 q 976 240 951 194 q 1000 339 1000 285 q 982 445 1000 403 q 944 511 964 488 l 982 514 q 913 426 951 467 q 832 360 875 385 q 742 336 789 336 q 682 345 710 336 q 635 372 654 354 q 597 427 613 392 q 582 546 582 463 l 582 765 l -14 765 l -14 864 l 1199 864 m 901 864 q 874 946 900 921 q 790 971 849 971 l 533 971 q 392 983 442 971 q 308 1022 343 996 q 252 1094 271 1050 q 233 1193 233 1138 q 235 1229 233 1211 q 240 1267 238 1247 l 343 1260 q 339 1231 340 1244 q 338 1207 338 1218 q 344 1153 338 1176 q 364 1114 350 1129 q 420 1081 383 1092 q 525 1071 457 1071 l 761 1071 q 878 1060 835 1071 q 951 1019 921 1049 q 988 959 975 997 q 1001 864 1000 921 l 901 864 z "},"ঋ":{"ha":1185,"x_min":68,"x_max":1058,"o":"m 736 956 l 769 864 l 769 0 l 663 0 q 556 139 624 74 q 402 250 489 204 q 215 311 315 296 l 161 439 q 407 565 281 507 q 663 663 533 624 l 663 956 l 736 956 m 663 558 q 539 513 603 539 q 412 458 475 488 q 290 394 349 428 q 427 346 354 381 q 565 262 500 311 q 667 150 629 213 q 664 199 665 174 q 663 260 663 225 l 663 558 m 579 632 q 544 691 565 661 q 497 749 522 721 q 444 796 472 776 l 519 868 q 599 774 558 831 q 665 658 639 717 l 579 632 m 254 597 q 119 641 169 597 q 68 761 68 685 q 77 822 68 793 q 99 872 86 851 l 204 843 q 188 809 194 829 q 181 767 181 789 q 201 713 181 731 q 253 696 221 696 q 311 707 281 696 q 374 751 342 718 q 439 850 407 785 l 519 868 l 525 797 q 456 696 496 742 q 365 624 415 650 q 254 597 315 597 m 1025 956 l 1058 864 l 1058 101 l 951 101 q 888 203 925 157 q 810 287 851 249 q 724 354 768 325 l 758 442 q 840 383 799 419 q 917 303 882 346 q 968 222 951 261 l 958 218 q 953 281 956 250 q 951 357 951 313 l 951 956 l 1025 956 z "},"ঌ":{"ha":888,"x_min":78,"x_max":825,"o":"m 283 438 q 401 414 350 438 q 483 348 453 390 q 513 251 513 306 q 494 159 513 197 q 436 86 476 121 l 433 100 q 638 166 564 114 q 711 307 711 218 q 687 395 711 357 q 599 469 663 433 q 414 547 535 506 q 215 628 286 592 q 116 704 144 664 q 88 800 88 744 q 117 892 88 849 q 196 981 146 936 l 271 924 q 217 864 233 889 q 200 817 200 839 q 208 778 200 796 q 244 740 217 760 q 326 698 271 721 q 474 644 381 675 q 652 571 583 608 q 758 493 721 533 q 810 407 796 453 q 825 308 825 361 q 785 165 825 224 q 676 69 744 106 q 518 17 607 33 q 331 0 429 0 l 304 0 l 272 94 q 371 150 336 117 q 406 235 406 183 q 376 311 406 282 q 288 340 347 340 q 213 321 236 340 q 190 272 190 301 q 194 242 190 258 q 206 211 199 225 l 101 188 q 84 237 90 213 q 78 288 78 261 q 130 396 78 354 q 283 438 182 438 z "},"এ":{"ha":1053,"x_min":64,"x_max":926,"o":"m 710 872 q 805 860 767 872 q 869 825 843 849 q 911 770 896 803 q 926 681 926 738 l 926 0 l 822 0 q 790 68 811 42 q 740 108 769 94 q 668 121 710 121 q 575 115 618 121 q 485 103 532 110 q 378 97 439 97 q 276 108 331 97 q 174 147 222 118 q 94 234 125 176 q 64 386 64 292 q 69 456 64 419 q 81 524 75 493 l 188 508 q 177 458 182 488 q 172 389 172 429 q 190 290 172 328 q 239 233 208 253 q 307 207 269 214 q 383 200 344 200 q 510 212 453 200 q 640 224 568 224 q 744 206 700 224 q 819 147 789 189 l 819 643 q 813 717 819 694 q 790 753 806 739 q 714 774 765 774 q 619 751 664 774 q 538 694 574 729 q 483 620 503 660 q 463 546 463 581 q 468 517 463 532 q 492 490 474 501 q 544 479 510 479 q 574 481 560 479 q 603 483 588 482 l 613 386 q 576 378 599 381 q 522 375 553 375 q 403 417 454 375 q 353 544 353 458 q 381 658 353 600 q 460 764 410 715 q 574 842 510 813 q 710 872 639 872 z "},"ঐ":{"ha":1213,"x_min":64,"x_max":1154,"o":"m 710 872 q 805 860 767 872 q 869 825 843 849 q 911 770 896 803 q 926 681 926 738 l 926 0 l 822 0 q 790 68 811 42 q 740 108 769 94 q 668 121 710 121 q 575 115 618 121 q 485 103 532 110 q 378 97 439 97 q 276 108 331 97 q 174 147 222 118 q 94 234 125 176 q 64 386 64 292 q 69 456 64 419 q 81 524 75 493 l 188 508 q 177 458 182 488 q 172 389 172 429 q 190 290 172 328 q 239 233 208 253 q 307 207 269 214 q 383 200 344 200 q 510 212 453 200 q 640 224 568 224 q 744 206 700 224 q 819 147 789 189 l 819 643 q 813 717 819 694 q 790 753 806 739 q 714 774 765 774 q 619 751 664 774 q 538 694 574 729 q 483 620 503 660 q 463 546 463 581 q 468 517 463 532 q 492 490 474 501 q 544 479 510 479 q 574 481 560 479 q 603 483 588 482 l 613 386 q 576 378 599 381 q 522 375 553 375 q 403 417 454 375 q 353 544 353 458 q 381 658 353 600 q 460 764 410 715 q 574 842 510 813 q 710 872 639 872 m 1154 799 q 1121 670 1154 724 q 1033 579 1088 617 q 913 514 978 542 l 913 624 q 976 661 946 639 q 1026 717 1007 683 q 1046 796 1046 750 q 1034 856 1046 831 q 1000 901 1022 882 q 931 938 974 924 q 814 963 889 953 l 669 982 q 529 1022 583 994 q 449 1097 475 1050 q 424 1215 424 1144 q 426 1244 424 1228 q 429 1274 428 1261 l 532 1268 q 529 1244 531 1258 q 528 1219 528 1231 q 535 1170 528 1192 q 556 1131 542 1149 q 595 1103 571 1114 q 658 1088 619 1093 l 840 1063 q 947 1042 901 1054 q 1025 1014 992 1031 q 1082 975 1058 997 q 1135 898 1117 943 q 1154 799 1154 853 z "},"ও":{"ha":1025,"x_min":39,"x_max":946,"o":"m 707 874 q 873 819 814 874 q 932 671 932 765 q 898 551 932 604 q 804 460 864 499 q 667 392 744 421 l 624 492 q 769 563 717 522 q 821 669 821 604 q 792 748 821 721 q 707 775 763 775 q 613 758 657 775 q 533 716 568 742 q 479 662 499 690 q 460 610 460 633 q 474 572 460 588 q 536 549 488 556 l 507 446 q 388 500 428 461 q 349 599 349 539 q 377 694 349 646 q 456 783 406 742 q 570 849 506 824 q 707 874 635 874 m 946 313 q 860 128 946 197 q 629 58 775 58 q 444 93 532 58 q 283 204 357 128 q 147 404 208 281 q 39 704 85 528 l 143 735 q 267 410 199 536 q 426 224 336 283 q 632 164 515 164 q 776 201 719 164 q 833 317 833 238 q 798 408 833 371 q 707 469 763 446 l 818 518 q 913 432 879 485 q 946 313 946 379 z "},"ঔ":{"ha":1214,"x_min":39,"x_max":1156,"o":"m 707 874 q 872 820 814 874 q 931 678 931 767 q 916 616 931 646 q 878 558 901 586 l 882 529 q 792 451 847 485 q 667 392 736 418 l 624 492 q 769 563 717 522 q 821 669 821 604 q 792 748 821 721 q 707 775 763 775 q 613 758 657 775 q 533 716 568 742 q 479 662 499 690 q 460 610 460 633 q 474 572 460 588 q 536 549 488 556 l 507 446 q 388 500 428 461 q 349 599 349 539 q 377 694 349 646 q 456 783 406 742 q 570 849 506 824 q 707 874 635 874 m 946 313 q 860 128 946 197 q 629 58 775 58 q 444 93 532 58 q 283 204 357 128 q 147 404 208 281 q 39 704 85 528 l 143 735 q 267 410 199 536 q 426 224 336 283 q 632 164 515 164 q 776 201 719 164 q 833 317 833 238 q 798 408 833 371 q 707 469 763 446 l 818 518 q 913 432 879 485 q 946 313 946 379 m 1156 801 q 1115 662 1156 721 q 1001 559 1074 603 q 829 476 928 515 l 904 610 q 974 655 942 629 q 1027 715 1007 681 q 1047 792 1047 749 q 1036 853 1047 828 q 1006 897 1025 878 q 938 937 981 922 q 833 960 894 951 l 669 982 q 528 1022 582 994 q 449 1097 474 1050 q 424 1215 424 1144 q 426 1243 424 1226 q 429 1274 428 1260 l 532 1268 q 529 1243 531 1256 q 528 1219 528 1231 q 535 1170 528 1192 q 556 1131 542 1149 q 597 1103 571 1114 q 672 1085 622 1092 l 868 1058 q 953 1043 917 1053 q 1019 1019 990 1033 q 1071 986 1047 1006 q 1134 907 1113 954 q 1156 801 1156 860 z "},"ক":{"ha":1121,"x_min":-14,"x_max":1135,"o":"m 1135 864 l 1135 765 l 683 765 l 683 679 l 683 657 l 683 0 l 576 0 q 464 154 536 82 q 299 276 392 226 q 106 338 207 325 l 51 471 q 321 610 186 549 q 607 718 456 671 l 576 660 l 576 765 l -14 765 l -14 864 l 1135 864 m 576 649 l 606 608 q 459 557 535 589 q 312 490 383 525 q 181 422 240 456 q 341 364 258 407 q 492 259 424 321 q 594 125 561 197 l 583 122 q 578 186 581 154 q 576 263 576 218 l 576 649 m 1057 400 q 1039 313 1057 354 q 979 246 1021 272 q 868 219 938 219 q 826 221 846 219 q 786 226 806 222 l 794 326 q 815 324 803 325 q 842 324 826 324 q 928 349 908 324 q 949 411 949 375 q 877 537 949 485 q 665 608 806 589 l 669 713 q 864 659 776 701 q 1004 551 951 617 q 1057 400 1057 485 z "},"খ":{"ha":967,"x_min":68,"x_max":981,"o":"m 981 864 l 981 765 l 835 765 l 835 0 l 728 0 q 639 110 689 57 q 528 207 589 163 q 393 283 467 251 q 231 331 319 315 l 197 460 l 264 411 q 483 344 393 389 q 633 243 572 299 q 731 135 693 188 q 728 199 729 167 q 728 268 728 231 l 728 956 l 801 956 l 833 864 l 981 864 m 625 653 q 581 516 625 572 q 462 427 538 460 q 290 383 386 394 l 225 396 l 197 460 q 381 492 310 468 q 487 556 453 517 q 521 647 521 596 q 501 725 521 690 q 439 793 482 760 l 515 868 q 594 770 563 825 q 625 653 625 715 m 253 597 q 118 641 168 597 q 68 761 68 685 q 77 822 68 793 q 99 872 86 851 l 204 843 q 188 809 194 829 q 181 767 181 789 q 201 713 181 731 q 253 696 221 696 q 311 707 281 696 q 374 751 342 718 q 439 850 407 785 l 515 868 l 518 799 q 451 692 490 738 q 363 622 413 647 q 253 597 314 597 z "},"গ":{"ha":911,"x_min":31,"x_max":925,"o":"m 672 0 l 672 590 l 701 503 q 610 623 653 572 q 529 707 568 674 q 450 756 490 740 q 365 772 410 772 q 247 734 292 772 q 167 646 201 696 l 147 635 q 207 665 167 653 q 300 676 247 676 q 403 651 364 676 q 462 588 443 626 q 481 513 481 550 q 425 366 481 431 q 253 239 369 301 l 182 340 q 314 412 258 372 q 369 507 369 451 q 346 558 369 538 q 278 579 322 579 q 210 571 242 579 q 143 544 179 563 l 31 636 q 122 762 74 708 q 228 844 171 815 q 354 874 286 874 q 481 849 424 874 q 594 776 539 825 q 704 656 649 728 l 679 671 q 674 731 676 690 q 672 813 672 771 l 672 956 l 746 956 l 778 864 l 925 864 l 925 765 l 779 765 l 779 0 l 672 0 z "},"ঘ":{"ha":876,"x_min":-14,"x_max":890,"o":"m 890 864 l 890 765 l 744 765 l 744 0 l 638 0 q 524 114 594 60 q 361 205 453 168 q 164 249 269 242 l 115 369 q 176 415 146 393 q 239 456 207 436 q 304 497 271 476 l 383 486 q 351 478 365 481 q 325 476 338 476 q 190 497 246 476 q 106 558 135 518 q 78 651 78 597 q 118 760 78 714 q 238 856 158 806 l 333 807 q 224 738 257 776 q 190 656 190 699 q 226 583 190 604 q 311 561 263 561 q 378 572 342 561 q 460 613 415 582 l 519 529 q 415 464 469 500 q 310 392 361 428 q 218 325 258 357 l 200 349 q 462 267 360 325 q 640 128 564 210 q 638 177 639 151 q 638 229 638 203 l 638 765 l -14 765 l -14 864 l 890 864 z "},"ঙ":{"ha":1004,"x_min":40,"x_max":926,"o":"m 582 13 q 411 42 490 13 q 265 140 332 72 q 142 324 197 208 q 40 611 86 439 l 146 640 q 228 392 185 493 q 324 231 272 292 q 440 144 376 171 q 581 118 503 118 q 757 167 692 118 q 822 301 822 217 q 811 381 822 340 q 761 482 800 422 l 825 463 q 726 360 774 397 q 638 306 679 322 q 558 290 596 290 q 498 299 526 290 q 450 324 469 307 q 410 378 426 343 q 394 489 394 413 l 394 615 q 428 759 394 701 q 515 845 461 817 q 633 874 569 874 q 760 835 710 874 q 811 721 811 797 q 781 628 811 665 q 703 572 751 590 q 599 553 654 553 q 422 589 503 553 q 276 684 340 625 q 164 808 211 743 l 249 865 q 343 758 293 808 q 456 676 393 707 q 600 644 518 644 q 682 667 657 644 q 707 722 707 690 q 687 766 707 750 q 632 782 667 782 q 558 759 589 782 q 512 697 528 736 q 496 608 496 657 l 496 468 q 508 413 496 433 q 554 392 521 392 q 616 405 586 392 q 680 448 646 418 q 758 528 714 478 l 856 532 q 907 421 888 481 q 926 299 926 361 q 888 153 926 218 q 772 51 849 89 q 582 13 696 13 z "},"চ":{"ha":788,"x_min":-14,"x_max":801,"o":"m 801 864 l 801 765 l 239 765 l 239 724 l 233 636 q 238 586 236 618 q 239 525 239 554 l 239 285 q 246 199 239 224 q 263 163 253 174 q 339 133 288 133 q 442 160 394 133 q 526 225 489 186 q 587 313 565 267 q 608 411 608 360 q 583 471 608 457 q 511 485 557 485 l 504 485 q 401 495 440 485 q 326 524 363 506 q 267 566 294 542 q 224 621 240 590 l 238 742 q 299 658 267 692 q 378 606 331 624 q 501 588 426 588 l 524 588 q 605 581 576 588 q 656 560 633 574 q 703 506 688 540 q 718 425 718 472 q 678 263 718 340 q 576 132 638 185 q 464 60 524 86 q 331 33 404 33 q 243 49 279 33 q 183 88 207 64 q 147 151 161 114 q 132 265 132 189 l 132 765 l -14 765 l -14 864 l 801 864 z "},"ছ":{"ha":954,"x_min":-14,"x_max":968,"o":"m 854 431 q 825 301 854 354 q 749 213 796 247 q 644 159 701 178 q 528 135 586 140 l 499 167 q 647 137 575 156 q 793 88 718 118 q 950 15 868 58 l 901 -68 q 680 30 793 -10 q 447 94 567 69 q 199 131 326 118 l 211 231 q 297 217 251 222 q 403 211 342 211 q 602 243 526 211 q 713 326 678 275 q 747 431 747 376 q 701 543 747 504 q 572 582 654 582 q 552 581 563 582 q 531 578 542 581 l 517 668 q 552 670 531 669 q 588 671 574 671 q 720 647 668 671 q 801 585 772 622 q 842 506 831 547 q 854 431 854 464 m 315 301 q 232 313 268 301 q 174 346 196 324 q 140 400 153 367 q 126 499 126 433 l 126 776 l 233 776 l 233 724 l 231 661 q 233 626 232 644 q 233 583 233 607 l 233 499 q 240 446 233 463 q 256 418 246 429 q 324 397 276 397 q 427 419 383 397 q 495 473 471 442 q 519 533 519 504 q 500 567 519 560 q 447 574 481 574 l 439 574 q 310 599 367 574 q 215 667 253 624 l 233 756 q 283 709 257 729 q 349 678 310 689 q 449 668 388 668 l 517 668 q 537 660 532 668 q 558 643 542 651 q 606 604 586 629 q 625 539 625 579 q 584 417 625 471 q 473 333 543 364 q 315 301 403 301 m -14 765 l -14 864 l 968 864 l 968 765 l -14 765 z "},"জ":{"ha":1274,"x_min":-14,"x_max":1288,"o":"m 557 88 q 400 117 475 88 q 259 210 325 146 q 138 383 193 275 q 40 646 83 490 l 146 674 q 251 397 193 503 q 386 242 310 290 q 561 193 463 193 q 717 238 664 193 q 769 372 769 282 q 758 446 769 415 q 736 497 747 476 l 819 497 q 738 425 781 457 q 648 375 696 393 q 543 357 600 357 q 447 378 489 357 q 382 438 406 399 q 358 533 358 478 q 401 658 358 594 q 547 768 444 721 q 484 766 519 767 q 414 765 449 765 l -14 765 l -14 864 l 1288 864 l 1288 765 l 853 765 q 793 767 819 765 q 743 769 767 768 q 567 674 626 717 q 486 595 507 631 q 465 528 465 560 q 488 472 465 489 q 538 456 510 456 q 632 480 590 456 q 726 550 674 504 l 846 507 q 867 438 858 479 q 875 353 875 397 q 844 223 875 283 q 742 125 813 163 q 557 88 672 88 m 1113 285 q 1124 154 1113 217 q 1161 14 1135 92 l 1057 -10 q 1018 148 1032 71 q 1004 308 1004 225 q 1017 440 1004 382 q 1049 539 1031 499 q 869 566 943 540 q 744 640 794 592 q 660 754 694 688 l 765 776 q 822 705 788 736 q 910 656 856 674 q 1043 638 964 638 q 1081 639 1063 638 q 1119 642 1099 640 l 1174 544 q 1126 422 1140 482 q 1113 285 1113 363 z "},"ঝ":{"ha":1103,"x_min":-14,"x_max":1117,"o":"m 683 864 l 683 0 l 576 0 q 464 154 536 82 q 299 276 392 226 q 106 338 207 325 l 51 471 q 323 617 183 550 q 606 728 463 683 l 576 669 l 576 765 l -14 765 l -14 864 l 683 864 m 576 658 l 604 619 q 463 567 536 597 q 319 499 390 536 q 181 422 247 463 q 341 364 258 407 q 492 259 424 321 q 594 125 561 197 l 583 122 q 578 186 581 154 q 576 263 576 218 l 576 658 m 1117 864 l 1117 765 l 971 765 l 971 101 l 864 101 q 800 203 836 157 q 723 287 764 249 q 636 354 682 325 l 671 442 q 753 383 711 419 q 829 303 794 346 q 881 222 864 261 l 869 218 q 865 281 867 250 q 864 357 864 313 l 864 956 l 938 956 l 969 864 l 1117 864 z "},"ঞ":{"ha":1415,"x_min":64,"x_max":1340,"o":"m 710 872 q 803 860 765 872 q 868 825 840 849 q 908 772 893 803 q 922 688 922 740 l 926 660 l 926 403 l 918 381 q 926 322 925 353 q 926 264 926 292 l 926 0 l 822 0 q 790 68 811 42 q 740 108 769 94 q 668 121 710 121 q 575 115 618 121 q 485 103 532 110 q 378 97 439 97 q 276 108 331 97 q 174 147 222 118 q 94 234 125 176 q 64 386 64 292 q 69 456 64 419 q 81 524 75 493 l 188 508 q 177 458 182 488 q 172 389 172 429 q 190 290 172 328 q 239 233 208 253 q 307 207 269 214 q 383 200 344 200 q 510 212 453 200 q 640 224 568 224 q 744 206 700 224 q 819 147 789 189 l 819 643 q 813 717 819 694 q 790 753 806 739 q 714 774 765 774 q 619 751 664 774 q 538 694 574 729 q 483 620 503 660 q 463 546 463 581 q 468 517 463 532 q 492 490 474 501 q 544 479 510 479 q 574 481 560 479 q 603 483 588 482 l 613 386 q 576 378 599 381 q 522 375 553 375 q 403 417 454 375 q 353 544 353 458 q 381 658 353 600 q 460 764 410 715 q 574 842 510 813 q 710 872 639 872 m 1144 843 q 1281 799 1231 843 q 1332 685 1332 754 q 1317 609 1332 650 q 1255 533 1301 568 q 1114 478 1208 497 l 1090 572 q 1195 611 1164 583 q 1226 674 1226 639 q 1200 729 1226 711 q 1138 747 1174 747 q 1019 700 1074 747 q 919 576 964 653 l 913 725 q 1018 813 964 782 q 1144 843 1072 843 m 1143 232 q 1006 269 1058 232 q 917 361 953 306 l 860 483 l 919 556 q 971 431 939 482 q 1046 354 1003 381 q 1139 328 1089 328 q 1206 348 1176 328 q 1235 408 1235 368 q 1212 472 1235 444 q 1136 518 1189 500 l 1214 574 q 1272 540 1243 563 q 1321 485 1301 518 q 1340 404 1340 451 q 1318 319 1340 358 q 1252 256 1296 279 q 1143 232 1208 232 z "},"ট":{"ha":788,"x_min":-14,"x_max":801,"o":"m 801 864 l 801 765 l 239 765 l 239 285 q 246 199 239 224 q 263 163 253 174 q 339 133 288 133 q 442 160 393 133 q 526 225 490 186 q 588 317 567 268 q 610 415 610 365 q 588 483 610 460 q 514 506 565 506 q 478 503 497 506 q 440 496 458 500 l 425 594 q 480 606 451 601 q 540 610 508 610 q 632 590 592 610 q 695 529 672 571 q 718 421 718 488 q 678 262 718 339 q 576 132 638 185 q 465 60 525 88 q 332 33 404 33 q 244 49 281 33 q 183 88 207 64 q 147 151 161 114 q 132 265 132 189 l 132 765 l -14 765 l -14 864 l 801 864 m 549 864 q 522 946 547 921 q 438 971 496 971 l 307 971 q 167 983 217 971 q 83 1022 118 996 q 27 1094 46 1050 q 8 1193 8 1138 q 10 1228 8 1211 q 15 1267 13 1246 l 118 1260 q 114 1233 115 1244 q 113 1207 113 1221 q 119 1153 113 1176 q 139 1114 125 1129 q 195 1081 158 1092 q 300 1071 232 1071 l 408 1071 q 525 1060 482 1071 q 599 1019 568 1049 q 635 959 622 997 q 649 864 647 921 l 549 864 z "},"ঠ":{"ha":821,"x_min":-14,"x_max":835,"o":"m 392 0 q 240 30 308 0 q 124 113 172 60 q 50 233 76 165 l 81 343 q 256 393 194 354 q 341 491 317 432 q 365 622 365 550 q 358 692 365 654 q 336 765 351 729 l -14 765 l -14 864 l 278 864 q 206 976 233 925 q 179 1078 179 1026 q 211 1183 179 1136 q 303 1274 243 1231 l 374 1196 q 309 1131 329 1161 q 289 1061 289 1101 q 320 972 289 1018 q 404 864 351 925 l 835 864 l 835 765 l 593 765 q 547 766 567 765 q 507 768 528 767 q 672 564 608 667 q 735 333 735 461 q 694 160 735 235 q 578 42 654 85 q 392 0 501 0 m 389 103 q 521 136 469 103 q 597 224 572 169 q 622 339 622 278 q 602 464 622 403 q 535 593 582 525 q 407 744 488 661 l 429 739 q 453 659 443 700 q 463 564 463 618 q 447 462 463 513 q 394 367 432 411 q 290 288 357 322 q 119 233 222 253 l 139 318 q 190 197 153 244 q 281 126 228 149 q 389 103 333 103 z "},"ড":{"ha":989,"x_min":-14,"x_max":1003,"o":"m 1003 864 l 1003 765 l 494 765 l 494 517 q 507 458 494 476 q 546 439 519 439 q 601 456 572 439 q 663 508 629 472 q 735 601 696 544 l 818 614 q 887 479 863 549 q 911 340 911 410 q 873 183 911 253 q 760 74 835 114 q 579 33 686 33 q 408 65 488 33 q 263 169 329 97 q 140 358 196 240 q 40 646 85 475 l 146 674 q 256 363 196 481 q 394 192 317 246 q 574 139 472 139 q 745 194 685 139 q 806 338 806 250 q 788 444 806 400 q 743 518 771 489 l 807 544 q 722 428 765 474 q 634 359 678 382 q 547 336 590 336 q 488 345 515 336 q 440 372 460 354 q 403 427 418 392 q 388 546 388 463 l 388 765 l -14 765 l -14 864 l 1003 864 z "},"ঢ":{"ha":788,"x_min":-14,"x_max":801,"o":"m 801 864 l 801 765 l 239 765 l 239 285 q 246 199 239 224 q 263 163 253 174 q 339 133 288 133 q 442 160 393 133 q 526 225 490 186 q 588 317 567 268 q 610 415 610 365 q 588 483 610 460 q 514 506 565 506 q 478 503 497 506 q 440 496 458 500 l 425 594 q 480 606 451 601 q 540 610 508 610 q 632 590 592 610 q 695 529 672 571 q 718 421 718 488 q 678 262 718 339 q 576 132 638 185 q 465 60 525 88 q 332 33 404 33 q 244 49 281 33 q 183 88 207 64 q 147 151 161 114 q 132 265 132 189 l 132 765 l -14 765 l -14 864 l 801 864 z "},"ণ":{"ha":861,"x_min":56,"x_max":875,"o":"m 875 864 l 875 765 l 729 765 l 729 0 l 622 0 l 622 590 l 650 504 q 529 656 586 597 q 418 744 472 715 q 308 772 364 772 q 234 756 265 772 q 186 710 203 739 q 169 643 169 682 q 191 568 169 599 q 259 519 213 538 q 382 493 306 501 l 374 378 q 210 417 282 386 q 97 505 139 449 q 56 642 56 561 q 89 769 56 717 q 176 847 122 821 q 293 874 231 874 q 424 849 365 874 q 539 776 483 824 q 653 657 594 728 l 631 663 q 624 726 626 686 q 622 800 622 765 l 622 956 l 696 956 l 728 864 l 875 864 z "},"ত":{"ha":982,"x_min":-14,"x_max":996,"o":"m 565 69 q 353 126 451 69 q 176 308 254 182 q 40 647 97 435 l 146 675 q 252 392 194 503 q 385 228 310 281 q 563 175 461 175 q 672 191 628 175 q 744 236 717 207 q 783 303 771 265 q 796 386 796 342 q 774 492 796 444 q 711 568 751 540 q 617 596 671 596 q 537 572 561 596 q 513 510 513 549 q 515 481 513 496 q 525 446 518 465 l 418 425 q 405 476 410 451 q 400 528 400 501 q 427 619 400 582 q 502 675 454 656 q 611 694 550 694 q 763 655 697 694 q 865 544 828 615 q 903 381 903 474 q 866 223 903 293 q 754 111 829 153 q 565 69 679 69 m 996 864 l 996 765 l -14 765 l -14 864 l 996 864 z "},"থ":{"ha":896,"x_min":53,"x_max":910,"o":"m 910 864 l 910 765 l 764 765 l 764 0 l 657 0 q 532 144 604 76 q 367 260 460 211 q 160 331 275 310 l 128 460 l 200 411 q 405 345 317 389 q 557 247 493 301 q 660 135 621 192 q 658 199 658 167 q 657 268 657 231 l 657 956 l 731 956 l 763 864 l 910 864 m 293 868 q 439 838 381 868 q 526 758 497 808 q 556 644 556 707 q 466 468 556 536 q 219 382 376 400 l 153 396 l 128 460 q 314 494 244 468 q 413 559 383 519 q 443 647 443 599 q 404 739 443 707 q 290 771 365 771 q 191 744 221 771 q 161 686 161 717 q 172 650 161 667 q 208 619 182 633 l 147 533 q 99 573 121 551 q 65 624 78 594 q 53 690 53 653 q 81 779 53 739 q 163 844 108 819 q 293 868 217 868 z "},"দ":{"ha":838,"x_min":-14,"x_max":851,"o":"m 851 864 l 851 765 l 221 765 l 221 351 l 201 379 q 328 496 257 442 q 482 595 399 550 q 660 675 565 640 l 750 586 q 708 492 724 538 q 684 396 692 446 q 676 285 676 346 q 688 154 676 217 q 725 14 699 92 l 621 -10 q 582 148 596 71 q 568 308 568 225 q 576 415 568 365 q 599 505 585 465 q 629 569 614 544 l 646 563 q 492 485 567 531 q 344 379 417 439 q 196 243 272 319 l 114 299 l 114 765 l -14 765 l -14 864 l 851 864 z "},"ধ":{"ha":828,"x_min":51,"x_max":842,"o":"m 842 864 l 842 765 l 696 765 l 696 0 l 589 0 q 474 153 547 83 q 307 272 401 224 q 106 338 213 321 l 51 471 q 327 617 185 551 q 621 728 469 682 l 589 669 l 589 864 l 842 864 m 589 658 l 618 619 q 396 534 513 585 q 181 422 279 483 q 340 365 256 406 q 497 264 425 325 q 608 122 569 203 l 596 122 q 591 186 593 154 q 589 263 589 218 l 589 658 m 333 874 q 369 872 350 874 q 407 867 389 869 l 399 767 q 378 769 390 768 q 349 769 367 769 q 284 752 307 769 q 261 707 261 735 q 293 645 261 671 q 407 588 325 619 l 324 525 q 232 581 271 551 q 172 647 193 611 q 151 728 151 683 q 171 799 151 765 q 231 853 190 832 q 333 874 271 874 z "},"ন":{"ha":839,"x_min":-14,"x_max":853,"o":"m 853 864 l 853 765 l 707 765 l 707 0 l 600 0 l 600 338 l 622 260 q 522 375 576 324 q 411 457 468 426 q 300 488 354 488 q 213 460 249 488 q 178 381 178 433 q 207 309 178 339 q 297 256 236 279 l 244 157 q 112 251 160 192 q 64 385 64 310 q 97 498 64 453 q 180 565 129 543 q 283 588 231 588 q 415 563 356 588 q 527 494 475 538 q 626 394 579 451 l 607 389 q 601 452 603 421 q 600 515 600 483 l 600 765 l -14 765 l -14 864 l 853 864 z "},"প":{"ha":994,"x_min":31,"x_max":1008,"o":"m 1008 864 l 1008 765 l 863 765 l 863 0 l 756 0 l 756 550 l 786 461 q 682 603 729 544 q 592 700 635 663 q 507 755 550 738 q 414 772 464 772 q 313 751 358 772 q 231 696 268 731 q 161 621 193 661 l 150 618 q 194 639 172 632 q 242 646 215 646 q 360 602 322 646 q 397 494 397 558 q 396 465 397 479 q 392 444 394 451 l 368 453 q 400 488 385 471 q 433 521 415 504 q 468 556 450 538 l 640 717 l 708 643 l 314 271 l 232 347 l 346 456 l 296 396 l 254 364 q 290 415 275 388 q 304 476 304 442 q 283 532 304 511 q 222 553 263 553 q 179 547 200 553 q 136 528 158 542 l 31 628 q 144 756 86 701 q 267 842 203 811 q 404 874 331 874 q 544 844 482 874 q 665 758 607 815 q 788 613 724 700 l 763 619 q 757 692 758 653 q 756 775 756 731 l 756 956 l 829 956 l 861 864 l 1008 864 z "},"ফ":{"ha":1164,"x_min":-14,"x_max":1178,"o":"m 1178 864 l 1178 765 l 181 765 l 158 778 q 276 733 217 764 q 385 667 335 703 q 467 600 436 632 l 474 522 q 369 474 424 500 q 263 421 314 447 q 174 368 213 394 l 158 392 q 349 335 267 369 q 496 251 431 300 q 621 138 561 203 q 619 186 619 161 q 618 238 618 211 l 618 708 l 636 708 q 784 696 713 708 q 917 654 856 683 q 1026 575 979 625 q 1080 497 1060 540 q 1100 400 1100 453 q 1081 313 1100 354 q 1021 246 1063 272 q 910 219 979 219 q 869 221 889 219 q 829 226 849 222 l 836 325 q 857 323 844 324 q 883 322 869 322 q 972 349 951 322 q 992 411 992 375 q 920 536 992 482 q 725 603 849 590 l 725 0 l 618 0 q 492 136 561 78 q 333 234 424 194 q 117 294 242 274 l 67 421 q 157 476 110 450 q 253 528 204 503 q 350 575 303 553 q 228 647 297 615 q 67 697 160 678 l 110 792 l 113 765 l -14 765 l -14 864 l 1178 864 z "},"ব":{"ha":828,"x_min":-14,"x_max":842,"o":"m 842 864 l 842 765 l 696 765 l 696 0 l 589 0 q 474 153 547 83 q 307 272 401 224 q 106 338 213 321 l 51 471 q 327 617 185 551 q 621 728 469 682 l 589 669 l 589 765 l -14 765 l -14 864 l 842 864 m 589 658 l 618 619 q 396 534 513 585 q 181 422 279 483 q 340 365 256 406 q 497 264 425 325 q 608 122 569 203 l 596 122 q 591 186 593 154 q 589 263 589 218 l 589 658 z "},"ভ":{"ha":1001,"x_min":-14,"x_max":1015,"o":"m 586 60 q 417 89 496 60 q 269 186 338 118 q 143 367 200 254 q 40 646 86 479 l 146 674 q 259 378 196 490 q 402 216 322 267 q 583 165 482 165 q 709 192 657 165 q 789 265 761 218 q 817 371 817 311 q 808 446 817 413 q 785 506 800 479 q 753 553 771 533 l 819 661 q 897 513 872 585 q 922 369 922 440 q 883 212 922 282 q 770 101 844 142 q 586 60 696 60 m 533 394 q 396 438 446 394 q 346 558 346 482 q 356 622 346 590 q 376 675 365 653 l 488 642 q 469 607 478 628 q 461 564 461 586 q 482 510 461 526 q 536 493 503 493 q 594 504 565 493 q 658 548 624 515 q 732 647 692 581 l 819 661 l 808 586 q 730 481 771 524 q 641 417 689 439 q 533 394 593 394 m 1015 864 l 1015 765 l -14 765 l -14 864 l 1015 864 z "},"ম":{"ha":864,"x_min":-14,"x_max":878,"o":"m 878 864 l 878 765 l 732 765 l 732 0 l 625 0 l 625 188 l 650 114 q 552 250 601 188 q 448 351 503 313 q 328 390 393 390 q 241 364 276 390 q 206 285 206 338 q 239 208 206 239 q 338 154 272 176 l 303 47 q 181 111 228 74 q 113 194 135 149 q 92 289 92 239 q 124 400 92 356 q 208 467 157 444 q 310 490 258 490 q 456 460 393 490 q 567 378 519 429 q 654 263 615 326 l 631 258 q 626 323 628 290 q 625 390 625 356 l 625 765 l -14 765 l -14 864 l 878 864 m 415 449 q 415 432 415 440 q 413 415 414 424 l 307 447 q 279 576 304 528 q 200 651 254 625 q 53 686 146 676 l 71 786 l 135 768 q 253 741 201 763 q 342 681 306 719 q 397 584 378 642 q 415 449 415 526 z "},"য":{"ha":869,"x_min":-14,"x_max":883,"o":"m 883 864 l 883 765 l 738 765 l 738 0 l 631 0 q 501 137 572 78 q 338 236 431 196 q 117 294 244 276 l 67 421 q 157 476 110 450 q 253 528 204 503 q 350 575 303 553 q 228 647 297 615 q 67 697 160 678 l 110 792 l 113 765 l -14 765 l -14 864 l 883 864 m 631 765 l 188 765 l 158 778 q 276 733 217 764 q 385 667 335 703 q 467 600 436 632 l 474 522 q 369 474 424 500 q 263 421 314 447 q 174 368 213 394 l 157 389 q 366 333 276 372 q 525 239 456 294 q 653 115 594 183 l 635 110 q 632 173 633 139 q 631 238 631 207 l 631 765 z "},"র":{"ha":828,"x_min":-14,"x_max":842,"o":"m 842 864 l 842 765 l 696 765 l 696 0 l 589 0 q 474 153 547 83 q 307 272 401 224 q 106 338 213 321 l 51 471 q 327 617 185 551 q 621 728 469 682 l 589 669 l 589 765 l -14 765 l -14 864 l 842 864 m 589 658 l 618 619 q 396 534 513 585 q 181 422 279 483 q 340 365 256 406 q 497 264 425 325 q 608 122 569 203 l 596 122 q 591 186 593 154 q 589 263 589 218 l 589 658 m 257 -8 q 198 14 222 -8 q 174 72 174 36 q 198 132 174 108 q 257 156 222 156 q 316 132 292 156 q 340 72 340 108 q 316 14 340 36 q 257 -8 292 -8 z "},"ল":{"ha":1015,"x_min":-14,"x_max":1029,"o":"m 1029 864 l 1029 765 l 883 765 l 883 0 l 776 0 l 776 465 l 785 429 q 720 500 754 474 q 646 526 686 526 q 603 519 625 526 q 567 490 582 511 q 553 426 553 469 q 553 399 553 411 q 556 376 554 388 l 465 369 q 435 466 460 426 q 374 526 410 506 q 296 547 338 547 q 232 533 258 547 q 192 494 206 518 q 178 439 178 469 q 219 344 178 383 q 335 279 260 306 l 297 176 q 178 233 231 197 q 94 322 125 269 q 64 444 64 375 q 94 552 64 507 q 176 622 125 597 q 289 647 228 647 q 415 620 363 647 q 513 533 468 593 l 492 532 q 545 602 506 578 q 628 626 585 626 q 714 607 678 626 q 793 551 750 588 l 781 531 q 778 589 779 560 q 776 649 776 618 l 776 765 l -14 765 l -14 864 l 1029 864 z "},"শ":{"ha":940,"x_min":-12,"x_max":954,"o":"m 954 864 l 954 765 l 808 765 l 808 0 l 701 0 l 701 711 l 708 739 q 703 788 704 763 q 701 843 701 813 l 701 956 l 775 956 l 808 864 l 954 864 m 501 874 q 601 853 556 874 q 683 794 647 832 q 742 707 719 757 l 736 561 q 635 717 693 661 q 504 772 576 772 q 417 742 450 772 q 383 654 383 713 q 428 563 383 599 q 574 524 474 528 l 564 417 q 413 454 472 422 q 326 538 354 486 q 299 658 299 590 q 328 780 299 732 q 403 851 357 828 q 501 874 450 874 m 107 874 q 217 850 165 874 q 303 775 269 826 q 336 640 336 724 q 308 532 336 583 q 223 449 281 481 q 75 417 165 417 l 67 524 q 178 544 138 525 q 235 592 218 563 q 251 650 251 621 q 215 740 251 707 q 106 772 179 772 q 56 769 81 772 q -1 757 32 765 l -12 861 q 49 871 22 868 q 107 874 76 874 z "},"ষ":{"ha":879,"x_min":-14,"x_max":893,"o":"m 893 864 l 893 765 l 747 765 l 747 0 l 640 0 q 500 140 572 81 q 336 238 428 199 q 117 294 244 276 l 67 421 q 218 509 136 465 q 389 590 300 553 l 471 600 l 474 522 q 329 455 404 492 q 197 382 254 418 q 378 327 299 363 q 523 243 458 292 q 643 138 588 194 q 642 186 643 161 q 640 238 640 211 l 640 433 l 646 464 q 642 533 644 497 q 640 603 640 568 l 640 765 l -14 765 l -14 864 l 893 864 m 107 790 l 164 771 q 338 705 250 747 q 507 608 426 663 q 650 493 588 553 l 649 367 q 527 478 596 425 q 381 574 458 531 q 222 650 303 618 q 67 697 142 682 l 107 790 z "},"স":{"ha":947,"x_min":-14,"x_max":961,"o":"m 961 864 l 961 765 l 815 765 l 815 0 l 708 0 l 708 490 l 740 403 q 666 490 697 460 q 606 521 635 521 q 569 510 586 521 q 532 467 553 499 q 476 372 511 436 q 408 260 439 304 q 344 197 378 217 q 261 176 310 176 q 190 192 224 176 q 122 242 156 207 q 49 339 88 278 l 133 390 q 196 303 171 324 q 250 282 221 282 q 295 297 274 282 q 342 347 317 311 q 401 446 368 383 l 433 492 q 503 595 469 567 q 576 624 536 624 q 659 598 622 624 q 744 519 696 572 l 717 518 q 710 578 711 550 q 708 636 708 607 l 708 765 l -14 765 l -14 864 l 961 864 m 376 376 q 348 526 363 471 q 297 613 333 582 q 203 660 263 644 q 53 688 143 676 l 74 793 l 149 765 q 281 733 228 753 q 366 683 333 714 q 415 606 399 651 q 438 494 432 560 l 376 376 z "},"হ":{"ha":736,"x_min":-14,"x_max":750,"o":"m 336 694 q 513 658 446 694 q 613 565 581 621 q 644 451 644 508 q 565 271 644 338 q 328 196 485 204 l 342 211 q 474 160 404 193 q 614 83 543 126 q 750 -14 685 39 l 686 -87 q 528 23 600 -24 q 388 104 457 69 q 240 165 318 139 q 64 214 163 192 l 85 310 q 178 290 133 296 q 288 283 224 283 q 440 307 386 283 q 514 368 493 331 q 535 444 535 406 q 481 558 535 518 q 343 597 426 597 q 263 588 293 597 q 219 559 232 578 q 206 514 206 540 q 208 491 206 503 q 214 469 211 479 l 113 449 q 101 492 106 469 q 97 533 97 515 q 128 621 97 585 q 212 676 158 657 q 336 694 265 694 m 243 646 q 201 724 236 690 q 101 772 167 758 l 135 835 l 199 818 q 312 749 276 788 q 353 650 347 710 l 243 646 m 750 864 l 750 765 l -14 765 l -14 864 l 750 864 z "},"়":{"ha":0,"x_min":-437,"x_max":-271,"o":"m -354 -254 q -413 -232 -389 -254 q -437 -174 -437 -210 q -413 -114 -437 -137 q -354 -90 -389 -90 q -295 -114 -319 -90 q -271 -174 -271 -137 q -295 -232 -271 -210 q -354 -254 -319 -254 z "},"ঽ":{"ha":736,"x_min":-14,"x_max":750,"o":"m 336 694 q 513 658 446 694 q 613 565 581 621 q 644 451 644 508 q 565 271 644 338 q 328 196 485 204 l 342 211 q 474 160 404 193 q 614 83 543 126 q 750 -14 685 39 l 686 -87 q 528 23 600 -24 q 388 104 457 69 q 240 165 318 139 q 64 214 163 192 l 85 310 q 178 290 133 296 q 288 283 224 283 q 440 307 386 283 q 514 368 493 331 q 535 444 535 406 q 481 558 535 518 q 343 597 426 597 q 263 588 293 597 q 219 559 232 578 q 206 514 206 540 q 208 491 206 503 q 214 469 211 479 l 113 449 q 101 492 106 469 q 97 533 97 515 q 128 621 97 585 q 212 676 158 657 q 336 694 265 694 m 383 864 l 383 688 l 278 667 l 278 765 l -14 765 l -14 864 l 383 864 z "},"া":{"ha":369,"x_min":-14,"x_max":383,"o":"m 383 864 l 383 765 l 238 765 l 238 0 l 131 0 l 131 651 q 81 732 114 699 q -3 765 49 765 l -14 765 l -14 864 l 7 864 q 76 842 40 864 q 135 776 113 821 q 132 808 133 783 q 131 851 131 833 l 131 956 l 206 956 l 236 864 l 383 864 z "},"ি":{"ha":369,"x_min":-14,"x_max":979,"o":"m 383 864 l 383 765 l 238 765 l 238 0 l 131 0 l 131 765 l -14 765 l -14 864 l 114 864 q 69 919 92 890 q 28 978 46 949 q 129 1127 75 1060 q 257 1234 183 1194 q 435 1274 331 1274 q 576 1256 508 1274 q 708 1203 643 1238 q 840 1122 774 1169 q 979 1015 907 1074 l 921 940 q 748 1069 825 1018 q 601 1147 671 1121 q 451 1172 531 1172 q 319 1146 375 1172 q 222 1072 263 1119 q 147 963 181 1025 q 178 917 158 942 q 222 864 197 892 l 383 864 z "},"ী":{"ha":369,"x_min":-724,"x_max":383,"o":"m 383 765 l 238 765 l 238 0 l 131 0 l 131 765 l -14 765 l -14 864 l 131 864 q 84 1015 125 954 q -23 1112 43 1076 q -173 1163 -89 1147 q -350 1178 -257 1178 q -491 1169 -432 1178 q -582 1143 -550 1160 q -614 1100 -614 1126 q -581 1067 -614 1074 q -507 1060 -547 1060 l -374 1060 q -257 1047 -300 1060 q -187 1007 -214 1035 q -150 944 -161 981 q -139 854 -139 908 l -232 854 q -240 909 -233 888 q -262 942 -247 931 q -297 957 -276 953 q -353 961 -317 961 l -490 961 q -590 969 -547 961 q -661 990 -633 976 q -710 1038 -696 1010 q -724 1096 -724 1065 q -633 1225 -724 1176 q -358 1274 -543 1274 q 76 1174 -76 1274 q 242 864 228 1075 l 383 864 l 383 765 z "},"ু":{"ha":0,"x_min":-586,"x_max":124,"o":"m -397 -369 q -479 -353 -435 -369 q -555 -303 -524 -337 q -586 -210 -586 -268 q -532 -97 -586 -139 q -381 -54 -478 -54 q -215 -85 -294 -54 q -52 -172 -135 -117 q 124 -301 31 -228 l 61 -376 q -108 -247 -32 -299 q -253 -169 -185 -196 q -387 -143 -321 -143 q -462 -162 -437 -143 q -487 -212 -487 -182 q -460 -267 -487 -251 q -397 -283 -433 -283 q -315 -262 -346 -283 q -267 -208 -283 -240 q -244 -142 -250 -176 q -239 -82 -239 -108 l -239 11 l -132 11 l -132 -62 q -141 -153 -132 -101 q -177 -255 -150 -206 q -257 -337 -204 -304 q -397 -369 -310 -369 z "},"ূ":{"ha":0,"x_min":-428,"x_max":226,"o":"m -246 -335 q -330 -320 -287 -335 q -400 -274 -372 -306 q -428 -190 -428 -242 q -372 -86 -428 -121 q -239 -50 -317 -51 l -239 11 l -132 11 l -132 -78 l -178 -142 q -201 -140 -187 -140 q -229 -139 -214 -139 q -301 -153 -276 -139 q -326 -194 -326 -167 q -304 -235 -326 -221 q -249 -249 -282 -249 q -143 -221 -190 -249 q -53 -142 -96 -193 q 87 -214 10 -169 q 226 -303 164 -258 l 168 -376 q 64 -306 117 -337 q -31 -254 11 -274 q -92 -297 -58 -279 q -163 -325 -125 -315 q -246 -335 -201 -335 z "},"ৃ":{"ha":0,"x_min":-493,"x_max":49,"o":"m -493 -111 q -382 -60 -439 -85 q -265 -10 -325 -35 q -146 35 -206 14 l -110 -57 q -208 -89 -158 -72 q -303 -123 -258 -106 q -385 -158 -349 -140 l -403 -142 q -214 -175 -296 -151 q -68 -231 -132 -199 q 49 -297 -4 -262 l -1 -376 q -143 -299 -74 -331 q -287 -249 -212 -268 q -446 -222 -361 -231 l -493 -111 z "},"ৄ":{"ha":0,"x_min":-493,"x_max":39,"o":"m -493 -111 q -382 -60 -439 -85 q -265 -10 -325 -35 q -146 35 -206 14 l -110 -57 q -208 -87 -156 -71 q -307 -122 -260 -104 q -387 -158 -354 -140 l -401 -142 q -233 -177 -311 -154 q -87 -229 -154 -200 q 39 -293 -19 -258 l -4 -362 q -119 -306 -64 -331 q -229 -264 -174 -282 q -331 -237 -278 -247 q -446 -222 -385 -228 l -493 -111 m -493 -331 q -408 -292 -451 -311 q -318 -257 -365 -274 q -217 -225 -271 -240 l -119 -269 q -185 -292 -147 -278 q -262 -320 -224 -306 q -334 -348 -301 -335 q -383 -369 -367 -361 l -393 -357 q -222 -395 -314 -367 q -44 -475 -129 -424 l -87 -547 q -206 -491 -147 -512 q -324 -456 -264 -469 q -449 -433 -383 -442 l -493 -331 z "},"ে":{"ha":481,"x_min":-14,"x_max":532,"o":"m 494 864 l 494 765 l 467 765 q 374 723 424 756 q 279 638 324 690 q 206 517 235 586 q 178 364 178 447 q 208 205 178 264 q 282 121 238 146 q 371 96 326 96 q 429 103 406 96 q 483 128 453 110 l 532 43 q 453 4 496 15 q 367 -7 410 -7 q 212 39 279 -7 q 106 167 144 85 q 68 361 68 250 q 111 567 68 475 q 227 724 154 660 q 389 817 300 788 l 300 771 q 246 767 275 768 q 181 765 217 765 l -14 765 l -14 864 l 494 864 z "},"ৈ":{"ha":481,"x_min":-44,"x_max":532,"o":"m 393 864 q 367 944 392 918 q 282 971 343 971 l 254 971 q 115 983 164 971 q 31 1022 65 996 q -26 1094 -7 1050 q -44 1193 -44 1138 q -42 1228 -44 1211 q -37 1267 -40 1246 l 65 1260 q 61 1233 63 1244 q 60 1207 60 1221 q 66 1153 60 1176 q 86 1114 72 1129 q 142 1081 106 1092 q 247 1071 178 1071 l 253 1071 q 369 1060 326 1071 q 443 1019 413 1049 q 479 959 467 997 q 493 864 492 921 l 393 864 m 494 864 l 494 765 l 467 765 q 374 723 424 756 q 279 638 324 690 q 206 517 235 586 q 178 364 178 447 q 208 205 178 264 q 282 121 238 146 q 371 96 326 96 q 429 103 406 96 q 483 128 453 110 l 532 43 q 453 4 496 15 q 367 -7 410 -7 q 212 39 279 -7 q 106 167 144 85 q 68 361 68 250 q 111 567 68 475 q 227 724 154 660 q 389 817 300 788 l 300 771 q 246 767 275 768 q 181 765 217 765 l -14 765 l -14 864 l 494 864 z "},"ো":{"ha":1324,"x_min":-14,"x_max":1338,"o":"m 494 864 l 494 765 l 467 765 q 374 723 424 756 q 279 638 324 690 q 206 517 235 586 q 178 364 178 447 q 208 205 178 264 q 282 121 238 146 q 371 96 326 96 q 429 103 406 96 q 483 128 453 110 l 532 43 q 453 4 496 15 q 367 -7 410 -7 q 212 39 279 -7 q 106 167 144 85 q 68 361 68 250 q 111 567 68 475 q 227 724 154 660 q 389 817 300 788 l 300 771 q 246 767 275 768 q 181 765 217 765 l -14 765 l -14 864 l 494 864 m 1338 864 l 1338 765 l 1192 765 l 1192 0 l 1085 0 l 1085 651 q 1035 732 1068 699 q 951 765 1003 765 l 940 765 l 940 864 l 961 864 q 1031 842 994 864 q 1089 776 1067 821 q 1086 808 1088 783 q 1085 851 1085 833 l 1085 956 l 1160 956 l 1190 864 l 1338 864 m 717 369 q 658 392 682 369 q 633 450 633 414 q 658 510 633 486 q 717 533 682 533 q 776 510 751 533 q 800 450 800 486 q 776 392 800 414 q 717 369 751 369 z "},"ৌ":{"ha":1324,"x_min":-14,"x_max":1338,"o":"m 494 864 l 494 765 l 467 765 q 374 723 424 756 q 279 638 324 690 q 206 517 235 586 q 178 364 178 447 q 208 205 178 264 q 282 121 238 146 q 371 96 326 96 q 429 103 406 96 q 483 128 453 110 l 532 43 q 453 4 496 15 q 367 -7 410 -7 q 212 39 279 -7 q 106 167 144 85 q 68 361 68 250 q 111 567 68 475 q 227 724 154 660 q 389 817 300 788 l 300 771 q 246 767 275 768 q 181 765 217 765 l -14 765 l -14 864 l 494 864 m 1192 0 l 1085 0 l 1085 765 l 940 765 l 940 864 l 1338 864 l 1338 765 l 1192 765 l 1192 0 m 1092 864 q 1065 946 1090 921 q 982 971 1039 971 l 747 971 q 608 983 657 971 q 524 1022 558 996 q 467 1094 486 1050 q 449 1193 449 1138 q 451 1229 449 1211 q 456 1267 453 1247 l 558 1260 q 554 1231 556 1243 q 553 1207 553 1218 q 559 1153 553 1176 q 579 1114 565 1129 q 635 1081 599 1092 q 740 1071 671 1071 l 951 1071 q 1068 1060 1025 1071 q 1142 1019 1111 1049 q 1178 959 1165 997 q 1192 864 1190 921 l 1092 864 m 717 369 q 658 392 682 369 q 633 450 633 414 q 658 510 633 486 q 717 533 682 533 q 776 510 751 533 q 800 450 800 486 q 776 392 800 414 q 717 369 751 369 z "},"্":{"ha":0,"x_min":-258,"x_max":156,"o":"m -186 -24 l 156 -297 l 96 -372 l -258 -112 l -186 -24 z "},"ৎ":{"ha":729,"x_min":69,"x_max":767,"o":"m 386 874 q 524 846 471 874 q 603 774 578 818 q 628 676 628 729 q 572 532 628 583 q 410 481 517 481 q 297 497 354 481 q 193 538 240 513 l 229 631 q 315 595 272 608 q 401 582 358 582 q 467 592 440 582 q 506 623 493 603 q 519 674 519 643 q 486 747 519 718 q 388 775 453 775 q 274 750 321 775 q 201 683 226 725 q 175 589 175 642 q 199 488 175 532 q 285 403 224 444 q 460 313 347 363 q 605 240 549 274 q 694 173 661 207 q 744 99 728 139 q 767 7 760 60 l 667 -14 q 645 55 658 26 q 606 108 632 83 q 531 160 579 133 q 401 222 482 188 q 213 326 286 274 q 104 442 139 378 q 69 592 69 507 q 108 732 69 668 q 217 835 146 796 q 386 874 288 874 z "},"ৗ":{"ha":369,"x_min":-506,"x_max":383,"o":"m 238 0 l 131 0 l 131 765 l -14 765 l -14 864 l 383 864 l 383 765 l 238 765 l 238 0 m 138 864 q 110 946 136 921 q 28 971 85 971 l -207 971 q -347 983 -297 971 q -431 1022 -396 996 q -487 1094 -468 1050 q -506 1193 -506 1138 q -503 1229 -506 1211 q -499 1267 -501 1247 l -396 1260 q -400 1231 -399 1243 q -401 1207 -401 1218 q -395 1153 -401 1176 q -375 1114 -389 1129 q -319 1081 -356 1092 q -214 1071 -283 1071 l -3 1071 q 114 1060 71 1071 q 188 1019 157 1049 q 224 959 211 997 q 238 864 236 921 l 138 864 z "},"ড়":{"ha":989,"x_min":-14,"x_max":1003,"o":"m 1003 864 l 1003 765 l 494 765 l 494 517 q 507 458 494 476 q 546 439 519 439 q 601 456 572 439 q 663 508 629 472 q 735 601 696 544 l 818 614 q 887 479 863 549 q 911 340 911 410 q 873 183 911 253 q 760 74 835 114 q 579 33 686 33 q 408 65 488 33 q 263 169 329 97 q 140 358 196 240 q 40 646 85 475 l 146 674 q 256 363 196 481 q 394 192 317 246 q 574 139 472 139 q 745 194 685 139 q 806 338 806 250 q 788 444 806 400 q 743 518 771 489 l 807 544 q 722 428 765 474 q 634 359 678 382 q 547 336 590 336 q 488 345 515 336 q 440 372 460 354 q 403 427 418 392 q 388 546 388 463 l 388 765 l -14 765 l -14 864 l 1003 864 m 504 -207 q 445 -185 469 -207 q 421 -126 421 -162 q 445 -67 421 -90 q 504 -43 469 -43 q 563 -67 539 -43 q 588 -126 588 -90 q 563 -185 588 -162 q 504 -207 539 -207 z "},"ঢ়":{"ha":788,"x_min":-14,"x_max":801,"o":"m 801 864 l 801 765 l 239 765 l 239 285 q 246 199 239 224 q 263 163 253 174 q 339 133 288 133 q 442 160 393 133 q 526 225 490 186 q 588 317 567 268 q 610 415 610 365 q 588 483 610 460 q 514 506 565 506 q 478 503 497 506 q 440 496 458 500 l 425 594 q 480 606 451 601 q 540 610 508 610 q 632 590 592 610 q 695 529 672 571 q 718 421 718 488 q 678 262 718 339 q 576 132 638 185 q 465 60 525 88 q 332 33 404 33 q 244 49 281 33 q 183 88 207 64 q 147 151 161 114 q 132 265 132 189 l 132 765 l -14 765 l -14 864 l 801 864 m 390 -211 q 331 -189 356 -211 q 307 -131 307 -167 q 331 -71 307 -94 q 390 -47 356 -47 q 449 -71 425 -47 q 474 -131 474 -94 q 449 -189 474 -167 q 390 -211 425 -211 z "},"য়":{"ha":869,"x_min":-14,"x_max":883,"o":"m 883 864 l 883 765 l 738 765 l 738 0 l 631 0 q 501 137 572 78 q 338 236 431 196 q 117 294 244 276 l 67 421 q 157 476 110 450 q 253 528 204 503 q 350 575 303 553 q 228 647 297 615 q 67 697 160 678 l 110 792 l 113 765 l -14 765 l -14 864 l 883 864 m 631 765 l 188 765 l 158 778 q 276 733 217 764 q 385 667 335 703 q 467 600 436 632 l 474 522 q 369 474 424 500 q 263 421 314 447 q 174 368 213 394 l 157 389 q 366 333 276 372 q 525 239 456 294 q 653 115 594 183 l 635 110 q 632 173 633 139 q 631 238 631 207 l 631 765 m 250 -8 q 191 14 215 -8 q 167 72 167 36 q 191 132 167 108 q 250 156 215 156 q 309 132 285 156 q 333 72 333 108 q 309 14 333 36 q 250 -8 285 -8 z "},"ৠ":{"ha":1185,"x_min":68,"x_max":1058,"o":"m 736 956 l 769 864 l 769 0 l 663 0 q 556 139 624 74 q 402 250 489 204 q 215 311 315 296 l 161 439 q 407 565 281 507 q 663 663 533 624 l 663 956 l 736 956 m 663 558 q 539 513 603 539 q 412 458 475 488 q 290 394 349 428 q 427 346 354 381 q 565 262 500 311 q 667 150 629 213 q 664 199 665 174 q 663 260 663 225 l 663 558 m 579 632 q 544 691 565 661 q 497 749 522 721 q 444 796 472 776 l 519 868 q 599 774 558 831 q 665 658 639 717 l 579 632 m 254 597 q 119 641 169 597 q 68 761 68 685 q 77 822 68 793 q 99 872 86 851 l 204 843 q 188 809 194 829 q 181 767 181 789 q 201 713 181 731 q 253 696 221 696 q 311 707 281 696 q 374 751 342 718 q 439 850 407 785 l 519 868 l 525 797 q 456 696 496 742 q 365 624 415 650 q 254 597 315 597 m 1025 956 l 1058 864 l 1058 101 l 951 101 q 888 203 925 157 q 810 287 851 249 q 724 354 768 325 l 758 442 q 840 383 799 419 q 917 303 882 346 q 968 222 951 261 l 958 218 q 953 281 956 250 q 951 357 951 313 l 951 956 l 1025 956 m 410 -111 q 521 -60 464 -85 q 638 -10 578 -35 q 757 35 697 14 l 793 -57 q 694 -89 744 -72 q 599 -123 644 -106 q 518 -158 554 -140 l 500 -142 q 689 -175 607 -151 q 835 -231 771 -199 q 951 -297 899 -262 l 901 -376 q 760 -299 829 -331 q 616 -249 690 -268 q 457 -222 542 -231 l 410 -111 z "},"ৡ":{"ha":888,"x_min":78,"x_max":825,"o":"m 283 438 q 401 414 350 438 q 483 348 453 390 q 513 251 513 306 q 494 159 513 197 q 436 86 476 121 l 433 100 q 638 166 564 114 q 711 307 711 218 q 687 395 711 357 q 599 469 663 433 q 414 547 535 506 q 215 628 286 592 q 116 704 144 664 q 88 800 88 744 q 117 892 88 849 q 196 981 146 936 l 271 924 q 217 864 233 889 q 200 817 200 839 q 208 778 200 796 q 244 740 217 760 q 326 698 271 721 q 474 644 381 675 q 652 571 583 608 q 758 493 721 533 q 810 407 796 453 q 825 308 825 361 q 785 165 825 224 q 676 69 744 106 q 518 17 607 33 q 331 0 429 0 l 304 0 l 272 94 q 371 150 336 117 q 406 235 406 183 q 376 311 406 282 q 288 340 347 340 q 213 321 236 340 q 190 272 190 301 q 194 242 190 258 q 206 211 199 225 l 101 188 q 84 237 90 213 q 78 288 78 261 q 130 396 78 354 q 283 438 182 438 m 338 -149 q 450 -181 413 -149 q 488 -261 488 -212 q 474 -310 488 -283 q 421 -356 461 -336 l 399 -336 q 562 -302 517 -328 q 607 -232 607 -276 q 595 -190 607 -208 q 549 -154 583 -172 q 449 -117 515 -136 q 369 -87 401 -101 q 319 -53 336 -74 q 303 -3 303 -33 q 307 22 303 10 q 317 46 311 35 l 394 28 q 390 16 392 22 q 389 6 389 10 q 397 -11 389 -4 q 429 -26 406 -18 q 497 -49 453 -35 q 625 -101 581 -74 q 685 -160 669 -128 q 701 -229 701 -192 q 676 -313 701 -279 q 606 -368 650 -347 q 504 -398 561 -389 q 385 -407 447 -407 l 351 -407 l 335 -339 q 389 -310 372 -328 q 406 -269 406 -293 q 390 -235 406 -249 q 340 -222 375 -222 q 298 -231 311 -222 q 285 -256 285 -240 q 288 -271 285 -262 q 294 -287 290 -279 l 211 -303 q 200 -274 204 -289 q 196 -243 196 -258 q 231 -176 196 -203 q 338 -149 267 -149 z "},"ৢ":{"ha":0,"x_min":-494,"x_max":11,"o":"m -353 -176 q -240 -208 -278 -176 q -203 -289 -203 -240 q -216 -337 -203 -311 q -269 -383 -229 -364 l -292 -364 q -128 -330 -174 -356 q -83 -260 -83 -304 q -95 -218 -83 -236 q -141 -182 -107 -200 q -242 -144 -175 -164 q -322 -115 -289 -129 q -371 -81 -354 -101 q -387 -31 -387 -61 q -383 -6 -387 -18 q -374 18 -379 7 l -296 0 q -300 -12 -299 -6 q -301 -22 -301 -18 q -293 -39 -301 -32 q -261 -54 -285 -46 q -193 -76 -237 -62 q -65 -128 -110 -101 q -5 -187 -21 -156 q 11 -257 11 -219 q -15 -341 11 -307 q -85 -396 -40 -375 q -186 -426 -129 -417 q -306 -435 -243 -435 l -339 -435 l -356 -367 q -301 -338 -318 -356 q -285 -297 -285 -321 q -300 -263 -285 -276 q -350 -250 -315 -250 q -392 -259 -379 -250 q -406 -283 -406 -268 q -403 -299 -406 -290 q -396 -315 -400 -307 l -479 -331 q -490 -301 -486 -317 q -494 -271 -494 -286 q -459 -203 -494 -231 q -353 -176 -424 -176 z "},"ৣ":{"ha":0,"x_min":-765,"x_max":167,"o":"m -624 -289 q -511 -321 -549 -289 q -474 -401 -474 -353 q -487 -450 -474 -424 q -540 -496 -500 -476 l -562 -476 q -399 -442 -444 -468 q -354 -372 -354 -417 q -366 -331 -354 -349 q -412 -294 -378 -312 q -512 -257 -446 -276 q -592 -228 -560 -242 q -642 -194 -625 -214 q -658 -143 -658 -174 q -654 -118 -658 -131 q -644 -94 -650 -106 l -567 -112 q -571 -124 -569 -118 q -572 -135 -572 -131 q -564 -151 -572 -144 q -532 -167 -556 -158 q -464 -189 -508 -175 q -336 -241 -381 -214 q -276 -300 -292 -268 q -260 -369 -260 -332 q -285 -453 -260 -419 q -356 -508 -311 -487 q -457 -538 -400 -529 q -576 -547 -514 -547 l -610 -547 l -626 -479 q -572 -451 -589 -468 q -556 -410 -556 -433 q -571 -376 -556 -389 q -621 -362 -586 -362 q -663 -372 -650 -362 q -676 -396 -676 -381 q -674 -411 -676 -403 q -667 -428 -671 -419 l -750 -443 q -761 -414 -757 -429 q -765 -383 -765 -399 q -730 -316 -765 -343 q -624 -289 -694 -289 m -197 -176 q -85 -208 -122 -176 q -47 -289 -47 -240 q -60 -337 -47 -311 q -114 -383 -74 -364 l -136 -364 q 27 -330 -18 -356 q 72 -260 72 -304 q 60 -218 72 -236 q 15 -182 49 -200 q -86 -144 -19 -164 q -166 -115 -133 -129 q -215 -81 -199 -101 q -232 -31 -232 -61 q -228 -6 -232 -18 q -218 18 -224 7 l -140 0 q -144 -12 -143 -6 q -146 -22 -146 -18 q -137 -39 -146 -32 q -106 -54 -129 -46 q -37 -76 -82 -62 q 90 -128 46 -101 q 151 -187 135 -156 q 167 -257 167 -219 q 141 -341 167 -307 q 71 -396 115 -375 q -31 -426 26 -417 q -150 -435 -87 -435 l -183 -435 l -200 -367 q -146 -338 -162 -356 q -129 -297 -129 -321 q -144 -263 -129 -276 q -194 -250 -160 -250 q -237 -259 -224 -250 q -250 -283 -250 -268 q -247 -299 -250 -290 q -240 -315 -244 -307 l -324 -331 q -335 -301 -331 -317 q -339 -271 -339 -286 q -303 -203 -339 -231 q -197 -176 -268 -176 z "},"০":{"ha":822,"x_min":100,"x_max":722,"o":"m 403 126 q 247 160 315 126 q 139 262 178 193 q 100 435 100 331 q 133 590 100 517 q 237 709 167 663 q 417 756 307 756 q 596 713 529 756 q 692 599 663 669 q 722 444 722 529 q 688 290 722 363 q 584 172 654 217 q 403 126 514 126 m 418 657 q 313 631 360 657 q 240 553 267 604 q 213 432 213 503 q 231 328 213 375 q 292 253 250 281 q 404 225 335 225 q 513 253 467 225 q 585 333 560 282 q 610 450 610 383 q 588 560 610 514 q 524 632 567 607 q 418 657 482 657 z "},"১":{"ha":822,"x_min":171,"x_max":685,"o":"m 399 0 q 226 51 281 0 q 171 169 171 101 q 206 269 171 224 q 325 339 240 315 l 365 232 q 303 207 322 222 q 285 167 285 192 q 313 122 285 139 q 397 104 342 104 q 531 146 483 104 q 578 251 578 188 q 561 326 578 293 q 506 394 544 358 q 399 478 467 431 q 263 581 313 539 q 194 658 214 622 q 174 735 174 693 q 192 805 174 767 q 246 876 211 843 l 338 828 q 306 786 318 807 q 293 744 293 765 q 299 710 293 726 q 322 674 304 693 q 376 627 340 654 q 469 560 411 600 q 597 460 550 506 q 665 366 644 414 q 685 253 685 318 q 648 118 685 175 q 547 31 611 61 q 399 0 482 0 z "},"২":{"ha":822,"x_min":90,"x_max":768,"o":"m 176 749 q 191 810 176 779 q 236 876 206 840 l 324 828 q 300 794 307 810 q 293 763 293 778 q 304 731 293 743 q 347 709 315 718 q 439 688 378 700 q 639 606 583 661 q 694 465 694 551 q 617 308 694 374 q 401 233 540 243 q 374 236 388 233 q 346 243 360 239 l 401 256 q 525 202 463 235 q 649 128 588 169 q 768 39 710 88 l 704 -36 q 552 78 622 32 q 413 156 482 125 q 267 211 344 188 q 90 257 189 235 l 111 356 q 210 333 160 342 q 335 324 260 324 q 530 361 475 324 q 585 461 585 399 q 569 520 585 496 q 514 562 553 544 q 403 593 475 579 q 272 631 322 610 q 199 681 222 651 q 176 749 176 710 z "},"৩":{"ha":822,"x_min":40,"x_max":768,"o":"m 768 410 q 740 229 768 310 q 648 101 711 149 q 482 54 585 54 q 342 80 407 54 q 222 173 276 106 q 121 363 167 240 q 40 681 75 486 l 146 708 q 233 381 188 500 q 338 210 279 261 q 475 160 397 160 q 586 193 546 160 q 643 283 626 226 q 660 410 660 339 q 636 561 660 494 q 572 667 613 628 q 482 706 532 706 q 426 688 446 706 q 406 636 406 669 q 412 592 406 614 q 432 542 418 569 l 321 513 q 296 583 304 547 q 288 649 288 618 q 316 741 288 707 q 387 790 344 775 q 468 804 429 804 q 632 751 565 804 q 733 608 699 697 q 768 410 768 518 z "},"৪":{"ha":822,"x_min":86,"x_max":736,"o":"m 411 0 q 169 65 251 0 q 86 236 86 131 q 142 370 86 314 q 318 468 197 426 l 318 433 q 197 497 244 467 q 126 564 149 526 q 103 654 103 601 q 138 758 103 710 q 240 835 174 806 q 403 864 307 864 q 590 834 521 864 q 690 758 660 804 q 721 661 721 711 q 693 563 721 603 q 618 496 665 524 q 511 446 571 468 l 507 474 q 676 384 615 436 q 736 238 736 332 q 652 60 736 119 q 411 0 568 0 m 411 99 q 574 138 522 99 q 625 240 625 176 q 594 317 625 285 q 513 372 563 350 q 411 406 464 394 q 252 338 306 379 q 199 235 199 296 q 252 138 199 178 q 411 99 306 99 m 413 504 q 506 538 461 517 q 579 588 550 558 q 608 654 608 618 q 557 735 608 704 q 404 765 506 765 q 312 753 356 765 q 241 716 268 740 q 214 654 214 692 q 260 567 214 603 q 413 504 307 532 z "},"৫":{"ha":822,"x_min":68,"x_max":786,"o":"m 435 0 q 246 40 329 0 q 115 158 163 81 q 68 344 68 235 q 130 548 68 456 q 306 720 192 640 q 575 874 419 800 l 629 799 q 609 761 615 781 q 603 721 603 742 q 635 656 603 681 q 719 632 668 632 q 729 632 724 632 q 740 633 735 632 l 786 556 q 654 474 708 513 q 572 394 600 435 q 544 307 544 354 q 574 234 544 268 q 683 200 603 200 q 710 201 697 200 q 733 203 724 201 l 779 85 q 622 22 710 44 q 435 0 533 0 m 444 99 q 519 102 489 99 q 578 112 550 106 q 639 126 606 118 l 636 124 q 487 186 535 136 q 439 308 439 236 q 463 409 439 363 q 537 500 488 456 q 660 592 586 544 l 657 557 q 576 584 608 563 q 526 638 543 606 q 510 704 510 669 q 513 733 510 719 q 521 760 515 747 l 533 740 q 350 626 429 689 q 226 489 271 563 q 181 331 181 415 q 219 193 181 244 q 319 120 258 142 q 444 99 379 99 z "},"৬":{"ha":822,"x_min":29,"x_max":776,"o":"m 482 54 q 344 81 410 54 q 222 173 279 108 q 117 349 165 238 q 29 628 68 460 l 133 660 q 197 427 163 522 q 273 273 232 332 q 365 187 314 214 q 475 160 415 160 q 618 214 565 160 q 671 376 671 268 q 653 479 671 438 q 624 543 636 521 l 679 544 q 625 441 656 483 q 556 378 594 399 q 472 357 518 357 q 419 365 443 357 q 375 392 394 374 q 340 446 354 411 q 326 556 326 481 l 326 626 q 319 681 326 661 q 292 708 313 700 q 231 718 272 717 l 243 824 q 338 811 300 822 q 397 778 375 800 q 425 726 417 757 q 433 654 433 696 l 433 526 q 444 474 433 492 q 483 456 456 456 q 527 468 506 456 q 571 513 549 481 q 615 608 593 546 l 693 628 q 738 549 719 593 q 766 460 756 506 q 776 372 776 414 q 745 210 776 282 q 649 96 714 138 q 482 54 583 54 z "},"৭":{"ha":822,"x_min":97,"x_max":733,"o":"m 531 418 l 600 397 q 485 358 544 371 q 372 344 426 344 q 167 405 236 344 q 97 571 97 465 q 124 686 97 633 q 195 779 150 739 q 297 842 240 819 q 413 864 353 864 q 504 851 463 864 q 576 811 546 839 q 621 747 604 785 q 638 632 638 710 l 638 199 q 644 144 638 164 q 672 117 651 125 q 733 107 693 108 l 722 0 q 606 21 649 3 q 547 76 564 39 q 531 169 531 113 l 531 418 m 369 447 q 471 459 428 447 q 561 496 514 471 l 531 469 l 531 610 q 526 690 531 661 q 501 736 521 718 q 466 758 488 751 q 413 765 444 765 q 340 750 376 765 q 275 708 304 735 q 228 644 246 681 q 210 564 210 607 q 253 472 210 497 q 369 447 297 447 z "},"৮":{"ha":822,"x_min":31,"x_max":814,"o":"m 329 0 q 240 15 275 0 q 183 53 204 31 q 142 115 158 78 q 126 228 126 153 l 126 668 q 119 722 126 703 q 92 750 113 742 q 31 760 72 758 l 43 867 q 131 856 96 865 q 189 826 167 846 q 222 773 213 806 q 232 696 232 740 l 232 493 q 313 515 275 508 q 374 521 351 521 q 408 519 389 521 q 442 514 428 517 q 509 502 482 504 q 567 500 536 500 q 653 515 619 500 q 714 581 688 531 l 814 532 q 765 458 796 486 q 696 418 735 431 q 614 406 657 406 q 585 407 601 406 q 553 413 569 408 l 581 433 q 612 370 601 406 q 622 296 622 335 q 583 138 622 204 q 477 35 543 71 q 329 0 411 0 m 331 99 q 410 116 376 99 q 467 162 444 133 q 501 225 490 190 q 513 294 513 260 q 492 374 513 346 q 442 412 472 401 q 381 422 413 422 q 299 414 335 422 q 232 390 264 406 l 232 233 q 239 163 232 188 q 256 128 246 139 q 283 108 267 117 q 331 99 299 99 z "},"৯":{"ha":822,"x_min":38,"x_max":775,"o":"m 242 438 q 356 414 306 438 q 434 348 406 390 q 463 251 463 306 q 444 159 463 197 q 386 86 425 121 l 382 100 q 587 163 513 114 q 661 297 661 211 q 638 385 661 347 q 555 456 615 424 q 381 521 494 489 q 181 588 254 557 q 78 655 108 618 q 49 744 49 692 q 64 809 49 776 q 115 876 79 842 l 203 828 q 174 792 182 808 q 165 760 165 775 q 173 726 165 742 q 206 697 181 711 q 283 664 231 682 q 422 621 335 646 q 602 555 533 590 q 709 481 671 519 q 761 397 747 442 q 775 300 775 351 q 735 158 775 215 q 625 65 694 100 q 465 15 556 31 q 274 0 374 0 l 254 0 l 224 94 q 322 150 286 117 q 357 235 357 183 q 328 311 357 282 q 243 340 300 340 q 172 321 193 340 q 150 272 150 301 q 154 242 150 258 q 165 211 158 225 l 61 188 q 44 237 50 213 q 38 288 38 261 q 61 366 38 332 q 130 419 85 400 q 242 438 175 438 z "},"ৰ":{"ha":828,"x_min":-14,"x_max":842,"o":"m 842 864 l 842 765 l 696 765 l 696 0 l 589 0 q 473 153 546 83 q 306 272 400 224 q 106 338 213 321 l 51 471 q 327 617 185 551 q 621 728 469 682 l 589 669 l 589 765 l -14 765 l -14 864 l 842 864 m 589 657 l 618 619 q 471 567 547 599 q 319 499 394 536 q 178 422 244 463 q 297 383 235 410 q 420 319 360 357 q 530 233 481 282 q 608 122 579 183 l 597 119 q 590 192 592 156 q 589 264 589 228 l 589 657 m 683 174 q 566 328 638 260 q 402 442 494 397 q 199 504 310 488 l 269 564 q 422 519 347 549 q 563 438 497 489 q 679 308 629 388 l 683 174 z "},"ৱ":{"ha":828,"x_min":-14,"x_max":842,"o":"m 842 864 l 842 765 l 696 765 l 696 0 l 589 0 q 474 153 547 83 q 307 272 401 224 q 106 338 213 321 l 51 471 q 327 617 185 551 q 621 728 469 682 l 589 669 l 589 765 l -14 765 l -14 864 l 842 864 m 589 658 l 618 619 q 396 534 513 585 q 181 422 279 483 q 340 365 256 406 q 497 264 425 325 q 608 122 569 203 l 596 122 q 591 186 593 154 q 589 263 589 218 l 589 658 m 119 258 q 265 211 200 243 q 380 139 331 179 q 461 57 429 99 l 397 0 q 265 101 339 61 q 97 158 192 140 l 119 258 z "},"৲":{"ha":818,"x_min":99,"x_max":721,"o":"m 613 138 q 521 310 569 236 q 412 440 472 385 q 275 535 351 496 q 99 604 199 575 l 142 717 q 328 642 243 686 q 483 536 413 599 q 613 385 554 474 q 721 175 671 297 l 613 138 z "},"৳":{"ha":883,"x_min":10,"x_max":826,"o":"m 826 692 l 826 592 l 346 592 l 346 208 q 363 119 346 143 q 432 96 381 96 q 516 114 474 96 q 592 163 558 132 q 647 233 626 193 q 668 314 668 272 q 649 365 668 347 q 589 383 631 383 q 519 375 551 383 l 506 469 q 556 480 529 476 q 611 483 583 483 q 731 447 685 483 q 778 328 778 410 q 748 205 778 264 q 668 99 718 146 q 556 26 618 53 q 428 0 493 0 q 343 12 376 0 q 288 44 310 24 q 263 76 274 58 q 245 123 251 93 q 239 203 239 153 l 239 592 l 104 592 l 104 692 l 826 692 m 174 1040 q 244 1029 214 1040 q 294 996 274 1018 q 333 924 319 969 q 346 797 346 879 l 346 681 l 239 681 l 239 792 q 233 873 239 840 q 206 923 226 906 q 143 940 185 940 q 91 933 117 940 q 47 918 65 925 l 10 1004 q 91 1031 51 1022 q 174 1040 131 1040 z "},"৴":{"ha":818,"x_min":99,"x_max":721,"o":"m 99 249 q 275 317 199 278 q 412 413 351 357 q 521 543 472 468 q 613 715 569 618 l 721 678 q 613 467 671 556 q 483 317 554 379 q 328 211 413 254 q 142 136 243 168 l 99 249 z "},"৵":{"ha":982,"x_min":83,"x_max":907,"o":"m 288 592 q 446 540 383 592 q 508 407 508 489 q 501 351 508 385 q 469 299 493 317 l 463 308 q 599 406 542 351 q 704 536 657 461 q 799 715 751 611 l 907 678 q 799 467 858 556 q 669 318 740 379 q 513 214 599 257 q 326 138 428 171 l 288 243 q 376 298 349 264 q 403 390 403 332 q 377 463 403 432 q 289 494 351 494 q 217 475 238 494 q 196 428 196 456 q 201 394 196 410 q 213 367 207 378 l 107 343 q 90 390 97 365 q 83 443 83 415 q 131 547 83 503 q 288 592 179 592 z "},"৶":{"ha":1010,"x_min":67,"x_max":931,"o":"m 310 0 q 131 51 196 0 q 67 179 67 101 q 92 258 67 228 q 165 306 118 289 q 274 331 211 322 q 389 361 357 342 q 421 429 421 381 q 395 493 421 461 q 307 525 369 525 q 236 506 258 525 q 214 457 214 486 q 218 426 214 443 q 229 396 222 410 l 125 372 q 108 422 114 397 q 101 472 101 446 q 149 577 101 532 q 306 622 197 622 q 464 571 401 622 q 526 438 526 519 q 517 369 526 399 q 492 318 508 340 q 416 265 465 283 q 290 235 367 246 q 222 221 247 229 q 185 199 196 213 q 174 165 174 186 q 206 119 174 139 q 313 100 238 100 q 519 159 432 100 q 665 324 606 218 q 763 569 725 429 q 824 871 801 710 l 931 858 q 883 592 914 719 q 802 356 851 464 q 684 169 753 249 q 522 44 615 89 q 310 0 429 0 z "},"৷":{"ha":413,"x_min":153,"x_max":260,"o":"m 153 0 l 153 864 l 260 864 l 260 0 l 153 0 z "},"৸":{"ha":946,"x_min":64,"x_max":882,"o":"m 76 867 q 165 856 129 865 q 222 826 200 846 q 256 773 246 806 q 267 694 267 740 l 267 332 l 246 358 q 447 528 329 453 q 704 656 564 603 l 788 600 l 788 196 q 794 142 788 161 q 821 114 800 122 q 882 104 842 106 l 869 -4 q 772 11 810 -1 q 713 49 735 24 q 688 99 694 68 q 681 169 681 129 l 681 586 l 708 550 q 547 469 624 515 q 395 363 469 424 q 242 222 321 301 l 160 278 l 160 668 q 153 722 160 703 q 126 750 146 742 q 64 760 106 758 l 76 867 z "},"৹":{"ha":671,"x_min":82,"x_max":590,"o":"m 82 458 q 115 581 82 528 q 205 665 147 635 q 336 694 263 694 q 467 665 410 694 q 558 582 525 635 q 590 458 590 529 q 558 335 590 389 q 468 251 525 281 q 336 221 411 221 q 205 251 263 221 q 115 335 147 281 q 82 458 82 389 m 189 458 q 230 358 189 397 q 336 318 271 318 q 442 358 400 318 q 483 458 483 397 q 442 558 483 519 q 336 597 400 597 q 230 558 271 597 q 189 458 189 519 z "},"৺":{"ha":939,"x_min":106,"x_max":854,"o":"m 414 518 q 265 554 332 518 q 156 666 197 590 q 106 858 114 742 l 219 867 q 273 692 226 754 q 413 629 319 629 q 520 650 474 629 q 604 719 567 671 q 674 847 642 767 q 740 1044 707 926 l 854 1017 q 756 746 811 857 q 618 576 700 635 q 414 518 536 518 m 433 726 q 374 750 399 726 q 349 808 349 774 q 374 867 349 844 q 433 890 399 890 q 491 867 467 890 q 515 808 515 844 q 490 749 515 771 q 433 726 465 726 z "},"৻":{"ha":404,"x_min":79,"x_max":517,"o":"m 79 346 q 115 465 79 415 q 249 561 151 515 l 308 460 q 238 420 263 440 q 203 381 213 400 q 193 342 193 361 q 207 275 193 313 q 256 185 221 238 q 355 57 292 132 q 517 -122 418 -18 l 425 -197 q 255 2 322 -82 q 149 147 188 86 q 95 256 111 208 q 79 346 79 303 z "},"ৼ":{"ha":746,"x_min":76,"x_max":686,"o":"m 669 674 q 626 523 661 589 q 528 420 590 457 q 375 383 467 383 q 222 420 285 383 q 122 522 158 457 q 76 672 86 588 l 181 688 q 238 533 196 583 q 371 482 279 482 q 504 532 457 482 q 565 689 551 582 l 669 674 m 447 636 q 426 583 447 601 q 372 565 404 565 q 317 586 336 565 q 299 640 299 607 q 316 688 299 668 q 371 708 333 708 q 428 690 410 708 q 447 636 447 672 m 344 268 l 686 -6 l 626 -81 l 272 179 l 344 268 z "},"৽":{"ha":592,"x_min":89,"x_max":501,"o":"m 296 318 q 192 343 239 318 q 117 412 144 368 q 89 513 89 456 q 115 609 89 565 q 188 679 140 653 q 296 706 235 706 q 401 680 356 706 q 474 611 447 654 q 501 513 501 568 q 474 414 501 458 q 401 344 447 369 q 296 318 356 318 m 296 410 q 374 438 344 410 q 404 513 404 467 q 374 585 404 557 q 296 614 344 614 q 215 584 244 614 q 186 513 186 554 q 217 438 186 467 q 296 410 249 410 z "},"৾":{"ha":0,"x_min":-197,"x_max":201,"o":"m -15 1192 q 76 1176 38 1192 q 135 1131 114 1160 q 156 1065 156 1103 q 112 971 156 1006 q -17 932 68 936 l -18 961 q 90 917 32 949 q 201 842 149 886 l 157 790 q 49 864 96 836 q -47 910 3 892 q -169 943 -97 929 l -156 1011 q -98 998 -128 1001 q -37 994 -68 994 q 49 1011 22 994 q 75 1061 75 1028 q 51 1108 75 1092 q -11 1125 26 1125 q -48 1122 -35 1125 q -67 1113 -61 1119 q -72 1096 -72 1107 q -69 1081 -72 1089 q -65 1068 -67 1074 l -140 1051 q -149 1077 -146 1064 q -151 1104 -151 1090 q -115 1168 -151 1144 q -15 1192 -79 1192 m 22 1274 l 22 1172 l -57 1157 l -57 1207 l -197 1207 l -197 1274 l 22 1274 z "},"!":{"ha":532,"x_min":204,"x_max":376,"o":"m 251 279 l 217 992 l 365 992 l 331 279 l 251 279 m 204 75 q 229 147 204 126 q 290 168 254 168 q 351 147 325 168 q 376 75 376 126 q 351 3 376 25 q 290 -19 325 -19 q 229 3 254 -19 q 204 75 204 25 z "},"\"":{"ha":697,"x_min":160,"x_max":557,"o":"m 194 654 l 160 1013 l 314 1013 l 279 654 l 194 654 m 439 654 l 404 1013 l 557 1013 l 522 654 l 439 654 z "},"#":{"ha":907,"x_min":47,"x_max":860,"o":"m 221 244 l 47 244 l 47 336 l 238 336 l 281 547 l 97 547 l 97 638 l 296 638 l 343 878 l 440 878 l 394 638 l 589 638 l 636 878 l 732 878 l 685 638 l 860 638 l 860 547 l 667 547 l 626 336 l 811 336 l 811 244 l 608 244 l 561 0 l 464 0 l 513 244 l 318 244 l 271 0 l 175 0 l 221 244 m 529 336 l 571 547 l 376 547 l 336 336 l 529 336 z "},"%":{"ha":1150,"x_min":79,"x_max":1069,"o":"m 790 864 l 897 864 l 363 0 l 254 0 l 790 864 m 281 376 q 131 443 182 376 q 79 628 79 510 q 127 813 79 747 q 281 878 175 878 q 433 813 381 878 q 485 628 485 747 q 436 443 485 510 q 281 376 388 376 m 279 464 q 358 506 332 464 q 383 628 383 547 q 358 750 383 710 q 279 790 332 790 q 203 750 226 790 q 179 628 179 710 q 203 506 179 547 q 279 464 226 464 m 867 -14 q 716 53 767 -14 q 665 238 665 121 q 713 423 665 357 q 867 489 761 489 q 1019 423 968 489 q 1069 238 1069 357 q 1022 53 1069 121 q 867 -14 974 -14 m 867 76 q 945 117 919 76 q 971 238 971 157 q 945 360 971 319 q 867 401 919 401 q 790 360 814 401 q 767 238 767 319 q 790 117 767 157 q 867 76 814 76 z "},"'":{"ha":453,"x_min":160,"x_max":314,"o":"m 194 654 l 160 1013 l 314 1013 l 279 654 l 194 654 z "},"(":{"ha":582,"x_min":154,"x_max":469,"o":"m 356 -187 q 204 115 254 -54 q 154 461 154 285 q 204 805 154 640 q 356 1100 254 969 l 468 1100 q 324 799 375 964 q 274 460 274 633 q 323 118 274 283 q 469 -187 372 -47 l 356 -187 z "},")":{"ha":582,"x_min":113,"x_max":428,"o":"m 114 -187 q 258 112 208 -51 q 308 451 308 275 q 259 794 308 629 q 113 1100 210 960 l 226 1100 q 378 797 329 967 q 428 450 428 628 q 378 108 428 272 q 226 -187 329 -57 l 114 -187 z "},"*":{"ha":843,"x_min":101,"x_max":754,"o":"m 192 472 l 356 693 l 101 713 l 121 843 l 386 768 l 357 1035 l 496 1035 l 467 768 l 736 843 l 754 713 l 497 693 l 664 472 l 543 407 l 424 650 l 317 407 l 192 472 z "},"+":{"ha":822,"x_min":97,"x_max":724,"o":"m 360 397 l 97 397 l 97 499 l 360 499 l 360 761 l 461 761 l 461 499 l 724 499 l 724 397 l 461 397 l 461 135 l 360 135 l 360 397 z "},",":{"ha":365,"x_min":64,"x_max":274,"o":"m 264 161 l 274 146 q 242 44 261 97 q 202 -61 224 -8 q 157 -165 181 -114 l 64 -165 q 102 3 85 -83 q 129 161 119 89 l 264 161 z "},"-":{"ha":472,"x_min":68,"x_max":404,"o":"m 68 469 l 404 469 l 404 356 l 68 356 l 68 469 z "},".":{"ha":372,"x_min":100,"x_max":272,"o":"m 100 75 q 125 147 100 126 q 185 168 150 168 q 247 147 221 168 q 272 75 272 126 q 247 3 272 25 q 185 -19 221 -19 q 125 3 150 -19 q 100 75 100 25 z "},"/":{"ha":624,"x_min":72,"x_max":551,"o":"m 438 1100 l 551 1100 l 188 -174 l 72 -174 l 438 1100 z "},":":{"ha":408,"x_min":118,"x_max":290,"o":"m 204 575 q 143 597 168 575 q 118 669 118 619 q 143 743 118 722 q 204 764 168 764 q 265 743 240 764 q 290 669 290 722 q 265 597 290 619 q 204 575 240 575 m 204 -19 q 143 3 168 -19 q 118 75 118 25 q 143 149 118 128 q 204 169 168 169 q 265 149 240 169 q 290 75 290 128 q 265 3 290 25 q 204 -19 240 -19 z "},";":{"ha":408,"x_min":64,"x_max":290,"o":"m 264 161 l 274 146 q 242 44 261 97 q 202 -61 224 -8 q 157 -165 181 -114 l 64 -165 q 102 3 85 -83 q 129 161 119 89 l 264 161 m 204 575 q 143 597 168 575 q 118 669 118 619 q 143 743 118 722 q 204 764 168 764 q 265 743 240 764 q 290 669 290 722 q 265 597 290 619 q 204 575 240 575 z "},"<":{"ha":822,"x_min":97,"x_max":724,"o":"m 97 394 l 97 463 l 724 789 l 724 681 l 225 435 l 724 215 l 724 107 l 97 394 z "},"=":{"ha":822,"x_min":97,"x_max":724,"o":"m 97 638 l 724 638 l 724 536 l 97 536 l 97 638 m 97 360 l 724 360 l 724 258 l 97 258 l 97 360 z "},">":{"ha":822,"x_min":97,"x_max":724,"o":"m 97 215 l 596 435 l 97 681 l 97 789 l 724 463 l 724 394 l 97 107 l 97 215 z "},"?":{"ha":719,"x_min":99,"x_max":619,"o":"m 264 281 l 264 306 q 274 397 264 358 q 309 469 283 435 q 379 542 335 504 q 449 608 422 579 q 489 671 476 638 q 501 751 501 704 q 462 857 501 817 q 347 897 422 897 q 240 880 292 897 q 142 839 189 863 l 99 938 q 218 985 154 965 q 347 1006 282 1006 q 547 939 474 1006 q 619 753 619 872 q 603 649 619 693 q 555 567 588 604 q 474 486 522 529 q 403 417 428 446 q 368 361 378 389 q 358 293 358 333 l 358 281 l 264 281 m 318 -19 q 257 3 282 -19 q 232 75 232 25 q 257 149 232 128 q 318 169 282 169 q 379 149 354 169 q 404 75 404 128 q 379 3 404 25 q 318 -19 354 -19 z "},"[":{"ha":576,"x_min":194,"x_max":464,"o":"m 194 1100 l 464 1100 l 464 1003 l 306 1003 l 306 -90 l 464 -90 l 464 -187 l 194 -187 l 194 1100 z "},"\\":{"ha":624,"x_min":72,"x_max":551,"o":"m 72 1100 l 186 1100 l 551 -187 l 438 -187 l 72 1100 z "},"]":{"ha":576,"x_min":113,"x_max":382,"o":"m 113 -90 l 269 -90 l 269 989 l 113 989 l 113 1086 l 382 1086 l 382 -187 l 113 -187 l 113 -90 z "},"^":{"ha":822,"x_min":68,"x_max":751,"o":"m 379 999 l 449 999 l 751 372 l 643 372 l 414 871 l 178 372 l 68 372 l 379 999 z "},"_":{"ha":571,"x_min":-3,"x_max":574,"o":"m -3 -125 l 574 -125 l 574 -219 l -3 -219 l -3 -125 z "},"{":{"ha":543,"x_min":61,"x_max":468,"o":"m 61 507 q 155 519 117 507 q 213 560 193 532 q 232 632 232 588 l 232 904 q 263 1016 232 974 q 347 1078 293 1058 q 468 1100 400 1099 l 468 1000 q 403 991 431 1000 q 360 960 375 982 q 344 896 344 939 l 344 625 q 307 515 344 556 q 197 458 269 474 l 197 451 q 307 397 269 438 q 344 286 344 357 l 344 18 q 360 -47 344 -25 q 403 -78 375 -69 q 468 -87 431 -86 l 468 -187 q 347 -166 400 -186 q 263 -103 293 -146 q 232 8 232 -61 l 232 279 q 213 352 232 325 q 155 392 193 379 q 61 404 117 404 l 61 507 z "},"|":{"ha":750,"x_min":325,"x_max":425,"o":"m 325 1100 l 425 1100 l 425 -187 l 325 -187 l 325 1100 z "},"}":{"ha":632,"x_min":113,"x_max":519,"o":"m 519 404 q 426 392 464 404 q 369 352 389 379 q 350 279 350 325 l 350 8 q 319 -103 350 -61 q 234 -166 288 -146 q 113 -187 181 -186 l 113 -87 q 179 -78 151 -86 q 222 -47 207 -69 q 236 18 236 -25 l 236 286 q 274 397 236 357 q 383 451 311 438 l 383 458 q 274 515 311 474 q 236 625 236 556 l 236 896 q 222 960 236 939 q 179 991 207 982 q 113 1000 151 1000 l 113 1100 q 234 1078 181 1099 q 319 1016 288 1058 q 350 904 350 974 l 350 632 q 369 560 350 588 q 426 519 389 532 q 519 507 464 507 l 519 404 z "},"~":{"ha":822,"x_min":97,"x_max":724,"o":"m 97 465 q 174 521 132 503 q 265 539 215 539 q 314 535 292 539 q 364 523 336 532 q 433 496 392 514 q 513 466 485 474 q 569 458 540 458 q 650 482 608 458 q 724 540 692 506 l 724 431 q 648 376 690 394 q 556 357 606 357 q 507 360 529 357 q 458 373 485 364 q 388 400 431 382 q 310 430 338 422 q 251 438 283 438 q 172 414 214 438 q 97 356 131 390 l 97 465 z "}," ":{"ha":361,"x_min":0,"x_max":0,"o":""},"­":{"ha":472,"x_min":68,"x_max":404,"o":"m 68 469 l 404 469 l 404 356 l 68 356 l 68 469 z "},"–":{"ha":694,"x_min":56,"x_max":639,"o":"m 56 476 l 639 476 l 639 363 l 56 363 l 56 476 z "},"—":{"ha":1389,"x_min":56,"x_max":1333,"o":"m 56 476 l 1333 476 l 1333 363 l 56 363 l 56 476 z "},"‘":{"ha":433,"x_min":114,"x_max":326,"o":"m 124 672 l 114 688 q 147 793 128 738 q 188 906 165 849 q 233 1013 211 963 l 326 1013 q 299 897 313 957 q 276 778 286 836 q 258 672 265 721 l 124 672 z "},"’":{"ha":433,"x_min":113,"x_max":325,"o":"m 315 1013 l 325 997 q 293 892 313 949 q 251 780 274 836 q 206 672 229 724 l 113 672 q 138 788 125 728 q 163 907 151 849 q 181 1013 174 965 l 315 1013 z "},"“":{"ha":694,"x_min":115,"x_max":589,"o":"m 125 672 l 115 688 q 148 793 129 738 q 190 906 167 849 q 235 1013 213 963 l 328 1013 q 301 897 314 957 q 277 778 288 836 q 260 672 267 721 l 125 672 m 386 672 l 376 688 q 409 793 390 738 q 451 906 428 849 q 496 1013 474 963 l 589 1013 q 562 897 575 957 q 538 778 549 836 q 521 672 528 721 l 386 672 z "},"”":{"ha":694,"x_min":113,"x_max":586,"o":"m 576 1013 l 586 997 q 554 892 574 949 q 513 780 535 836 q 467 672 490 724 l 374 672 q 399 788 386 728 q 424 907 413 849 q 442 1013 435 965 l 576 1013 m 315 1013 l 325 997 q 293 892 313 949 q 251 780 274 836 q 206 672 229 724 l 113 672 q 138 788 125 728 q 163 907 151 849 q 181 1013 174 965 l 315 1013 z "},"…":{"ha":1117,"x_min":100,"x_max":1017,"o":"m 558 -19 q 497 3 522 -19 q 472 75 472 25 q 497 149 472 128 q 558 169 522 169 q 619 149 594 169 q 644 75 644 128 q 619 3 644 25 q 558 -19 594 -19 m 186 -19 q 125 3 150 -19 q 100 75 100 25 q 125 149 100 128 q 186 169 150 169 q 247 149 222 169 q 272 75 272 128 q 247 3 272 25 q 186 -19 222 -19 m 931 -19 q 869 3 894 -19 q 844 75 844 25 q 869 149 844 128 q 931 169 894 169 q 992 149 967 169 q 1017 75 1017 128 q 992 3 1017 25 q 931 -19 967 -19 z "},"×":{"ha":822,"x_min":124,"x_max":699,"o":"m 410 375 l 194 161 l 125 232 l 339 446 l 124 663 l 194 733 l 410 518 l 628 733 l 699 664 l 481 446 l 697 229 l 628 160 l 410 375 z "},"÷":{"ha":822,"x_min":97,"x_max":724,"o":"m 97 499 l 724 499 l 724 397 l 97 397 l 97 499 m 410 132 q 355 152 378 132 q 332 217 332 172 q 355 283 332 264 q 410 301 378 301 q 465 283 442 301 q 488 217 488 264 q 465 152 488 172 q 410 132 442 132 m 410 606 q 355 626 378 606 q 332 690 332 646 q 355 756 332 738 q 410 775 378 775 q 465 756 442 775 q 488 690 488 738 q 465 626 488 646 q 410 606 442 606 z "},"−":{"ha":822,"x_min":97,"x_max":724,"o":"m 97 499 l 724 499 l 724 397 l 97 397 l 97 499 z "},"₹":{"ha":822,"x_min":128,"x_max":714,"o":"m 714 765 l 453 765 q 501 701 485 743 q 518 610 518 660 q 449 421 518 490 q 224 339 381 351 l 236 383 l 563 0 l 421 0 l 128 343 l 142 442 l 203 442 q 306 452 271 442 q 363 483 340 463 q 395 535 385 504 q 406 607 406 565 q 392 686 406 656 q 354 735 378 717 q 302 758 332 751 q 219 765 272 765 l 128 765 l 128 864 l 714 864 l 714 765 m 128 658 l 714 658 l 714 558 l 128 558 l 128 658 z "},"॑":{"ha":0,"x_min":-403,"x_max":-304,"o":"m -304 1274 l -304 869 l -403 869 l -403 1274 l -304 1274 z "},"॒":{"ha":0,"x_min":-615,"x_max":-93,"o":"m -615 -260 l -615 -161 l -93 -161 l -93 -260 l -615 -260 z "},"।":{"ha":526,"x_min":269,"x_max":382,"o":"m 269 0 l 269 864 l 382 864 l 382 0 l 269 0 z "},"॥":{"ha":832,"x_min":269,"x_max":688,"o":"m 575 0 l 575 864 l 688 864 l 688 0 l 575 0 m 269 0 l 269 864 l 382 864 l 382 0 l 269 0 z "},"ʼ":{"ha":433,"x_min":113,"x_max":325,"o":"m 315 1013 l 325 997 q 293 892 313 949 q 251 780 274 836 q 206 672 229 724 l 113 672 q 138 788 125 728 q 163 907 151 849 q 181 1013 174 965 l 315 1013 z "},"᳐":{"ha":0,"x_min":-597,"x_max":-107,"o":"m -597 918 l -401 1264 l -317 1264 l -107 921 l -182 883 l -354 1179 l -515 883 l -597 918 z "},"᳒":{"ha":0,"x_min":-581,"x_max":-125,"o":"m -581 1096 l -125 1096 l -125 1003 l -581 1003 l -581 1096 z "},"᳕":{"ha":0,"x_min":-656,"x_max":-53,"o":"m -312 -149 q -348 -279 -326 -229 q -402 -353 -369 -329 q -486 -376 -435 -376 q -606 -328 -561 -376 q -656 -151 -650 -279 l -553 -146 q -531 -256 -550 -229 q -476 -283 -511 -283 q -421 -252 -439 -283 q -401 -149 -403 -221 l -312 -149 m -307 -149 q -287 -252 -304 -221 q -232 -283 -269 -283 q -178 -256 -197 -283 q -157 -146 -158 -229 l -53 -151 q -77 -285 -56 -236 q -136 -356 -99 -335 q -222 -376 -174 -376 q -306 -353 -272 -376 q -360 -279 -339 -329 q -396 -149 -381 -229 l -307 -149 z "},"᳖":{"ha":0,"x_min":-592,"x_max":-108,"o":"m -592 -131 l -483 -131 l -483 -281 l -108 -281 l -108 -376 l -592 -376 l -592 -131 z "},"᳘":{"ha":0,"x_min":-646,"x_max":-61,"o":"m -61 -122 q -167 -319 -93 -261 q -349 -376 -242 -376 q -524 -315 -449 -376 q -646 -122 -599 -253 l -547 -89 q -465 -233 -511 -186 q -344 -281 -418 -281 q -227 -230 -265 -281 q -167 -86 -189 -179 l -61 -122 z "},"᳡":{"ha":633,"x_min":-118,"x_max":717,"o":"m 651 1103 q 564 1153 608 1135 q 474 1172 519 1172 q 381 1154 424 1172 q 313 1083 339 1136 q 288 922 288 1029 q 306 670 288 797 q 349 409 325 543 q 391 130 372 275 q 410 -178 410 -15 q 397 -317 410 -249 q 349 -440 385 -385 q 244 -528 313 -496 q 65 -561 176 -561 q 5 -559 35 -561 q -56 -553 -25 -557 q -118 -543 -86 -549 l -111 -440 q -24 -453 -64 -449 q 63 -457 17 -457 q 187 -431 140 -457 q 257 -362 233 -404 q 289 -271 281 -319 q 297 -178 297 -222 q 285 56 297 -58 q 254 281 272 171 q 218 500 236 392 q 188 714 200 608 q 175 922 175 819 q 199 1092 175 1024 q 263 1199 222 1160 q 354 1256 303 1239 q 461 1274 406 1274 q 602 1248 539 1274 q 717 1185 665 1222 l 651 1103 z "},"ᳪ":{"ha":1039,"x_min":56,"x_max":983,"o":"m 517 0 q 301 36 385 0 q 176 135 217 72 q 136 276 136 199 q 172 411 136 358 q 265 521 207 464 q 330 598 308 563 q 351 685 351 633 q 319 760 351 732 q 243 789 288 789 q 180 770 200 789 q 160 719 160 751 q 188 663 160 685 q 276 636 215 640 l 263 540 q 137 578 182 550 q 74 644 92 606 q 56 722 56 683 q 106 835 56 792 q 240 878 156 878 q 374 845 326 878 q 440 767 421 813 q 460 679 460 721 q 447 597 460 635 q 408 521 435 558 q 335 440 381 483 q 285 385 304 411 q 256 333 265 360 q 247 274 247 307 q 260 215 247 244 q 303 159 272 185 q 385 118 333 133 q 517 103 438 103 q 652 120 599 103 q 737 164 706 138 q 781 221 768 190 q 793 278 793 251 q 784 338 793 311 q 754 390 775 364 q 697 450 733 417 q 627 527 653 492 q 591 601 601 563 q 581 689 581 640 q 592 754 581 721 q 631 815 604 788 q 699 860 657 843 q 803 878 742 878 q 938 832 893 878 q 983 714 983 786 q 966 640 983 678 q 904 575 949 603 q 778 539 860 547 l 764 636 q 853 663 825 640 q 881 719 881 685 q 864 770 881 751 q 807 789 847 789 q 723 759 757 789 q 689 676 689 729 q 710 596 689 632 q 778 515 731 560 q 864 413 824 472 q 904 274 904 353 q 865 135 904 197 q 740 36 825 72 q 517 0 656 0 z "},"᳭":{"ha":0,"x_min":-433,"x_max":-54,"o":"m -433 -147 l -371 -64 l -54 -293 l -117 -376 l -433 -147 z "},"ᳲ":{"ha":714,"x_min":50,"x_max":663,"o":"m 361 406 q 176 473 257 406 q 50 672 96 540 l 153 707 q 242 556 192 606 q 365 506 293 506 q 489 560 447 506 q 553 710 531 614 l 663 672 q 549 467 626 529 q 361 406 472 406 m 351 363 q 536 295 456 363 q 663 96 617 228 l 560 60 q 471 212 521 163 q 347 261 421 261 q 225 207 267 261 q 160 58 183 153 l 50 96 q 163 301 86 240 q 351 363 240 363 z "},"ᳵ":{"ha":725,"x_min":63,"x_max":669,"o":"m 368 300 l 157 36 l 63 103 l 296 386 l 67 665 l 154 725 l 363 467 l 575 732 l 669 665 l 435 379 l 665 100 l 576 40 l 368 300 z "},"ᳶ":{"ha":872,"x_min":65,"x_max":807,"o":"m 275 271 q 167 297 213 271 q 97 392 122 324 q 65 586 71 460 l 175 593 q 190 451 178 499 q 224 386 201 403 q 281 369 247 369 q 360 417 340 369 q 385 588 381 465 l 482 588 q 441 399 465 468 q 377 300 417 329 q 275 271 338 271 m 599 271 q 497 300 536 271 q 433 399 457 329 q 393 588 410 468 l 488 588 q 514 417 492 465 q 593 369 536 369 q 646 387 624 369 q 681 452 668 404 q 697 593 694 500 l 807 586 q 777 392 803 460 q 706 297 751 324 q 599 271 661 271 z "},"᳷":{"ha":633,"x_min":175,"x_max":717,"o":"m 651 1104 q 564 1154 608 1136 q 474 1172 519 1172 q 381 1155 424 1172 q 313 1084 339 1138 q 288 922 288 1031 q 296 602 288 756 q 315 296 304 449 q 335 -22 326 143 q 343 -376 343 -186 l 232 -376 q 224 -19 232 -186 q 203 302 215 147 q 183 610 192 457 q 175 928 175 764 q 199 1094 175 1028 q 263 1201 222 1161 q 354 1257 303 1240 q 461 1274 406 1274 q 602 1249 539 1274 q 717 1186 665 1224 l 651 1104 z "},"꣱":{"ha":0,"x_min":-333,"x_max":-49,"o":"m -158 874 q -249 899 -210 874 q -333 1001 -289 925 l -276 1029 q -227 963 -254 990 q -165 936 -200 936 q -130 947 -144 936 q -115 976 -115 958 q -131 1016 -115 997 q -192 1065 -147 1035 q -256 1126 -243 1101 q -268 1176 -268 1151 q -260 1214 -268 1199 q -235 1239 -251 1229 q -198 1252 -219 1247 q -131 1257 -176 1257 l -62 1257 l -62 1196 l -133 1196 q -183 1192 -164 1196 q -201 1167 -201 1188 q -188 1142 -201 1156 q -133 1101 -175 1129 q -82 1059 -100 1079 q -56 1018 -64 1039 q -49 971 -49 997 q -78 901 -49 928 q -158 874 -108 874 z "},"​":{"ha":0,"x_min":0,"x_max":0,"o":""},"‌":{"ha":0,"x_min":-36,"x_max":36,"o":"m -36 -231 l -36 1094 l 36 1094 l 36 -231 l -36 -231 z "},"‍":{"ha":0,"x_min":-203,"x_max":203,"o":"m 50 897 l 203 749 l 151 699 l 36 813 l 36 -229 l -36 -229 l -36 813 l -151 699 l -203 749 l -50 897 l -203 1044 l -151 1094 l 0 944 l 151 1094 l 203 1043 l 50 897 z "},"‐":{"ha":472,"x_min":68,"x_max":404,"o":"m 68 469 l 404 469 l 404 356 l 68 356 l 68 469 z "},"◌":{"ha":708,"x_min":72,"x_max":636,"o":"m 353 714 q 394 675 394 714 q 353 635 394 635 q 314 675 314 635 q 353 714 314 714 m 174 646 q 214 606 214 646 q 174 565 214 565 q 135 606 135 565 q 174 646 135 646 m 533 646 q 574 606 574 646 q 533 565 574 565 q 493 606 493 565 q 533 646 493 646 m 596 472 q 636 433 636 472 q 596 393 636 393 q 556 433 556 393 q 596 472 556 472 m 113 472 q 151 433 151 472 q 113 393 151 393 q 72 433 72 393 q 113 472 72 472 m 174 300 q 214 260 214 300 q 174 219 214 219 q 135 260 135 219 q 174 300 135 300 m 533 300 q 574 260 574 300 q 533 219 574 219 q 493 260 493 219 q 533 300 493 300 m 353 231 q 394 190 394 231 q 353 150 394 150 q 314 190 314 150 q 353 231 314 231 z "},"«":{"ha":707,"x_min":56,"x_max":653,"o":"m 56 375 l 289 654 l 376 604 l 182 367 l 376 129 l 289 78 l 56 357 l 56 375 m 331 375 l 567 654 l 653 604 l 458 367 l 653 129 l 567 78 l 331 357 l 331 375 z "},"»":{"ha":707,"x_min":54,"x_max":651,"o":"m 651 357 l 415 78 l 329 129 l 524 367 l 329 604 l 415 654 l 651 375 l 651 357 m 375 357 l 140 78 l 54 129 l 249 367 l 54 604 l 140 654 l 375 375 l 375 357 z "},"̈":{"ha":0,"x_min":-196,"x_max":194,"o":"m -196 946 q -176 998 -196 982 q -131 1014 -157 1014 q -85 998 -104 1014 q -65 946 -65 982 q -85 894 -65 911 q -131 876 -104 876 q -176 894 -157 876 q -196 946 -196 911 m 65 946 q 84 998 65 982 q 129 1014 103 1014 q 175 998 156 1014 q 194 946 194 982 q 175 894 194 911 q 129 876 156 876 q 84 894 103 876 q 65 946 65 911 z "},"̀":{"ha":0,"x_min":-685,"x_max":-406,"o":"m -539 1064 q -501 995 -524 1033 q -452 921 -478 957 q -406 858 -426 885 l -406 842 l -487 842 q -540 888 -511 861 q -598 945 -569 915 q -649 1003 -626 975 q -685 1050 -672 1031 l -685 1064 l -539 1064 z "},"́":{"ha":0,"x_min":-451,"x_max":-172,"o":"m -172 1050 q -208 1003 -185 1031 q -260 945 -232 975 q -317 888 -289 915 q -371 842 -346 861 l -451 842 l -451 858 q -406 921 -431 885 q -358 995 -382 957 q -319 1064 -335 1033 l -172 1064 l -172 1050 z "},"̋":{"ha":0,"x_min":-175,"x_max":324,"o":"m 324 1050 q 292 1004 313 1032 q 244 946 271 976 q 190 888 217 915 q 139 842 163 861 l 69 842 l 69 858 q 111 921 89 885 q 155 995 133 957 q 190 1064 176 1033 l 324 1064 l 324 1050 m 79 1050 q 47 1004 68 1032 q -1 946 26 976 q -55 888 -28 915 q -106 842 -82 861 l -175 842 l -175 858 q -133 921 -156 885 q -90 995 -111 957 q -54 1064 -69 1033 l 79 1064 l 79 1050 z "},"̄":{"ha":0,"x_min":-206,"x_max":207,"o":"m 207 940 l 207 842 l -206 842 l -206 940 l 207 940 z "},"˙":{"ha":254,"x_min":56,"x_max":199,"o":"m 128 1024 q 177 1005 156 1024 q 199 946 199 986 q 177 888 199 907 q 128 868 156 868 q 76 888 97 868 q 56 946 56 907 q 76 1005 56 986 q 128 1024 97 1024 z "},"A":{"ha":888,"x_min":0,"x_max":886,"o":"m 757 0 l 638 307 l 244 307 l 126 0 l 0 0 l 388 996 l 500 996 l 886 0 l 757 0 m 489 718 q 475 758 485 729 q 456 819 465 788 q 442 867 447 850 q 427 810 435 839 q 412 758 419 782 q 399 718 404 735 l 286 418 l 600 418 l 489 718 z "},"Á":{"ha":888,"x_min":0,"x_max":886,"o":"m 757 0 l 638 307 l 244 307 l 126 0 l 0 0 l 388 996 l 500 996 l 886 0 l 757 0 m 489 718 q 475 758 485 729 q 456 819 465 788 q 442 867 447 850 q 427 810 435 839 q 412 758 419 782 q 399 718 404 735 l 286 418 l 600 418 l 489 718 m 647 1297 q 611 1250 635 1278 q 559 1192 588 1222 q 502 1135 531 1163 q 449 1089 474 1108 l 368 1089 l 368 1106 q 413 1168 389 1132 q 461 1242 438 1204 q 500 1311 485 1281 l 647 1311 l 647 1297 z "},"Ă":{"ha":888,"x_min":0,"x_max":886,"o":"m 757 0 l 638 307 l 244 307 l 126 0 l 0 0 l 388 996 l 500 996 l 886 0 l 757 0 m 489 718 q 475 758 485 729 q 456 819 465 788 q 442 867 447 850 q 427 810 435 839 q 412 758 419 782 q 399 718 404 735 l 286 418 l 600 418 l 489 718 m 657 1275 q 594 1140 650 1192 q 438 1089 538 1089 q 283 1140 335 1089 q 225 1275 231 1190 l 300 1275 q 322 1219 304 1238 q 369 1194 339 1200 q 440 1188 399 1188 q 506 1194 476 1188 q 556 1220 536 1201 q 581 1275 576 1239 l 657 1275 z "},"Ǎ":{"ha":888,"x_min":0,"x_max":886,"o":"m 757 0 l 638 307 l 244 307 l 126 0 l 0 0 l 388 996 l 500 996 l 886 0 l 757 0 m 489 718 q 475 758 485 729 q 456 819 465 788 q 442 867 447 850 q 427 810 435 839 q 412 758 419 782 q 399 718 404 735 l 286 418 l 600 418 l 489 718 m 378 1089 q 329 1158 360 1121 q 265 1231 299 1194 q 207 1293 232 1267 l 207 1311 l 290 1311 q 365 1254 326 1288 q 439 1183 404 1221 q 515 1254 476 1221 q 590 1311 554 1288 l 676 1311 l 676 1293 q 616 1231 650 1267 q 551 1158 582 1194 q 503 1089 519 1121 l 378 1089 z "},"Â":{"ha":888,"x_min":0,"x_max":886,"o":"m 757 0 l 638 307 l 244 307 l 126 0 l 0 0 l 388 996 l 500 996 l 886 0 l 757 0 m 489 718 q 475 758 485 729 q 456 819 465 788 q 442 867 447 850 q 427 810 435 839 q 412 758 419 782 q 399 718 404 735 l 286 418 l 600 418 l 489 718 m 503 1311 q 551 1242 519 1281 q 616 1167 582 1204 q 676 1104 650 1131 l 676 1089 l 590 1089 q 515 1144 554 1111 q 439 1214 476 1176 q 364 1144 401 1176 q 290 1089 326 1113 l 207 1089 l 207 1104 q 266 1168 233 1132 q 329 1242 299 1204 q 378 1311 360 1281 l 503 1311 z "},"Ä":{"ha":888,"x_min":0,"x_max":886,"o":"m 757 0 l 638 307 l 244 307 l 126 0 l 0 0 l 388 996 l 500 996 l 886 0 l 757 0 m 489 718 q 475 758 485 729 q 456 819 465 788 q 442 867 447 850 q 427 810 435 839 q 412 758 419 782 q 399 718 404 735 l 286 418 l 600 418 l 489 718 m 247 1193 q 267 1245 247 1229 q 313 1261 286 1261 q 358 1245 339 1261 q 378 1193 378 1229 q 358 1141 378 1158 q 313 1124 339 1124 q 267 1141 286 1124 q 247 1193 247 1158 m 508 1193 q 527 1245 508 1229 q 572 1261 546 1261 q 618 1245 599 1261 q 638 1193 638 1229 q 618 1141 638 1158 q 572 1124 599 1124 q 527 1141 546 1124 q 508 1193 508 1158 z "},"À":{"ha":888,"x_min":0,"x_max":886,"o":"m 757 0 l 638 307 l 244 307 l 126 0 l 0 0 l 388 996 l 500 996 l 886 0 l 757 0 m 489 718 q 475 758 485 729 q 456 819 465 788 q 442 867 447 850 q 427 810 435 839 q 412 758 419 782 q 399 718 404 735 l 286 418 l 600 418 l 489 718 m 407 1311 q 445 1242 422 1281 q 494 1168 468 1204 q 540 1106 519 1132 l 540 1089 l 458 1089 q 406 1135 435 1108 q 348 1192 376 1163 q 297 1250 319 1222 q 261 1297 274 1278 l 261 1311 l 407 1311 z "},"Ā":{"ha":888,"x_min":0,"x_max":886,"o":"m 757 0 l 638 307 l 244 307 l 126 0 l 0 0 l 388 996 l 500 996 l 886 0 l 757 0 m 489 718 q 475 758 485 729 q 456 819 465 788 q 442 867 447 850 q 427 810 435 839 q 412 758 419 782 q 399 718 404 735 l 286 418 l 600 418 l 489 718 m 647 1188 l 647 1089 l 235 1089 l 235 1188 l 647 1188 z "},"Ą":{"ha":888,"x_min":0,"x_max":886,"o":"m 757 0 l 638 307 l 244 307 l 126 0 l 0 0 l 388 996 l 500 996 l 886 0 l 757 0 m 489 718 q 475 758 485 729 q 456 819 465 788 q 442 867 447 850 q 427 810 435 839 q 412 758 419 782 q 399 718 404 735 l 286 418 l 600 418 l 489 718 m 757 -161 q 774 -208 757 -192 q 819 -224 790 -224 q 859 -220 843 -224 q 886 -215 875 -217 l 886 -293 q 847 -302 867 -299 q 800 -306 828 -306 q 692 -271 726 -306 q 657 -175 657 -236 q 677 -97 657 -135 q 727 -29 697 -60 q 785 21 757 1 l 851 0 q 781 -81 804 -44 q 757 -161 757 -118 z "},"Å":{"ha":888,"x_min":0,"x_max":886,"o":"m 757 0 l 638 307 l 244 307 l 126 0 l 0 0 l 388 996 l 500 996 l 886 0 l 757 0 m 489 718 q 475 758 485 729 q 456 819 465 788 q 442 867 447 850 q 427 810 435 839 q 412 758 419 782 q 399 718 404 735 l 286 418 l 600 418 l 489 718 m 440 926 q 331 965 372 926 q 289 1074 289 1004 q 331 1181 289 1143 q 440 1219 372 1219 q 550 1181 506 1219 q 594 1075 594 1143 q 551 965 594 1004 q 440 926 507 926 m 440 996 q 497 1017 475 996 q 518 1074 518 1038 q 496 1131 518 1110 q 440 1151 474 1151 q 385 1131 407 1151 q 363 1074 363 1110 q 383 1017 363 1038 q 440 996 403 996 z "},"Ã":{"ha":888,"x_min":0,"x_max":886,"o":"m 757 0 l 638 307 l 244 307 l 126 0 l 0 0 l 388 996 l 500 996 l 886 0 l 757 0 m 489 718 q 475 758 485 729 q 456 819 465 788 q 442 867 447 850 q 427 810 435 839 q 412 758 419 782 q 399 718 404 735 l 286 418 l 600 418 l 489 718 m 188 1089 q 213 1184 193 1144 q 265 1245 232 1224 q 340 1267 297 1267 q 399 1255 371 1267 q 454 1227 428 1243 q 505 1199 481 1211 q 551 1188 529 1188 q 601 1208 583 1188 q 628 1268 618 1228 l 697 1268 q 650 1139 689 1188 q 546 1090 611 1090 q 489 1102 517 1090 q 434 1130 461 1114 q 383 1158 407 1146 q 335 1169 358 1169 q 285 1149 301 1169 q 258 1089 268 1129 l 188 1089 z "},"Æ":{"ha":1224,"x_min":-1,"x_max":1140,"o":"m 1140 0 l 624 0 l 624 307 l 276 307 l 128 0 l -1 0 l 469 992 l 1140 992 l 1140 882 l 749 882 l 749 572 l 1114 572 l 1114 464 l 749 464 l 749 110 l 1140 110 l 1140 0 m 325 418 l 624 418 l 624 881 l 543 881 l 325 418 z "},"B":{"ha":903,"x_min":135,"x_max":828,"o":"m 418 992 q 699 937 604 992 q 794 746 794 882 q 773 642 794 688 q 709 567 751 597 q 606 526 667 538 l 606 519 q 719 483 668 510 q 799 408 769 457 q 828 282 828 360 q 786 128 828 192 q 667 33 744 65 q 483 0 590 0 l 135 0 l 135 992 l 418 992 m 443 569 q 618 610 571 569 q 665 732 665 651 q 608 849 665 814 q 424 885 550 885 l 260 885 l 260 569 l 443 569 m 260 465 l 260 106 l 460 106 q 643 157 592 106 q 694 292 694 208 q 672 383 694 344 q 595 444 649 422 q 450 465 542 465 l 260 465 z "},"C":{"ha":878,"x_min":85,"x_max":835,"o":"m 560 896 q 377 848 454 896 q 258 710 300 800 q 217 496 217 621 q 255 283 217 374 q 369 144 293 193 q 558 96 444 96 q 682 107 624 96 q 796 135 740 118 l 796 26 q 681 -4 740 6 q 540 -14 622 -14 q 288 49 389 -14 q 135 226 186 111 q 85 497 85 342 q 140 762 85 647 q 301 941 194 876 q 561 1006 408 1006 q 708 990 638 1006 q 835 947 779 975 l 785 842 q 683 879 739 863 q 560 896 626 896 z "},"Ć":{"ha":878,"x_min":85,"x_max":835,"o":"m 560 896 q 377 848 454 896 q 258 710 300 800 q 217 496 217 621 q 255 283 217 374 q 369 144 293 193 q 558 96 444 96 q 682 107 624 96 q 796 135 740 118 l 796 26 q 681 -4 740 6 q 540 -14 622 -14 q 288 49 389 -14 q 135 226 186 111 q 85 497 85 342 q 140 762 85 647 q 301 941 194 876 q 561 1006 408 1006 q 708 990 638 1006 q 835 947 779 975 l 785 842 q 683 879 739 863 q 560 896 626 896 m 733 1297 q 697 1250 721 1278 q 645 1192 674 1222 q 588 1135 617 1163 q 535 1089 560 1108 l 454 1089 l 454 1106 q 499 1168 475 1132 q 547 1242 524 1204 q 586 1311 571 1281 l 733 1311 l 733 1297 z "},"Č":{"ha":878,"x_min":85,"x_max":835,"o":"m 560 896 q 377 848 454 896 q 258 710 300 800 q 217 496 217 621 q 255 283 217 374 q 369 144 293 193 q 558 96 444 96 q 682 107 624 96 q 796 135 740 118 l 796 26 q 681 -4 740 6 q 540 -14 622 -14 q 288 49 389 -14 q 135 226 186 111 q 85 497 85 342 q 140 762 85 647 q 301 941 194 876 q 561 1006 408 1006 q 708 990 638 1006 q 835 947 779 975 l 785 842 q 683 879 739 863 q 560 896 626 896 m 464 1089 q 415 1158 446 1121 q 351 1231 385 1194 q 293 1293 318 1267 l 293 1311 l 376 1311 q 451 1254 413 1288 q 525 1183 490 1221 q 601 1254 563 1221 q 676 1311 640 1288 l 763 1311 l 763 1293 q 702 1231 736 1267 q 637 1158 668 1194 q 589 1089 606 1121 l 464 1089 z "},"Ç":{"ha":878,"x_min":85,"x_max":835,"o":"m 560 896 q 377 848 454 896 q 258 710 300 800 q 217 496 217 621 q 255 283 217 374 q 369 144 293 193 q 558 96 444 96 q 682 107 624 96 q 796 135 740 118 l 796 26 q 681 -4 740 6 q 540 -14 622 -14 q 288 49 389 -14 q 135 226 186 111 q 85 497 85 342 q 140 762 85 647 q 301 941 194 876 q 561 1006 408 1006 q 708 990 638 1006 q 835 947 779 975 l 785 842 q 683 879 739 863 q 560 896 626 896 m 657 -193 q 606 -297 657 -260 q 451 -333 554 -333 q 412 -331 431 -333 q 382 -326 393 -329 l 382 -250 q 415 -255 394 -253 q 456 -257 436 -257 q 532 -244 506 -257 q 558 -196 558 -231 q 522 -143 558 -160 q 432 -119 485 -126 l 492 0 l 572 0 l 536 -74 q 597 -95 569 -81 q 641 -133 625 -110 q 657 -193 657 -157 z "},"Ċ":{"ha":878,"x_min":85,"x_max":835,"o":"m 560 896 q 377 848 454 896 q 258 710 300 800 q 217 496 217 621 q 255 283 217 374 q 369 144 293 193 q 558 96 444 96 q 682 107 624 96 q 796 135 740 118 l 796 26 q 681 -4 740 6 q 540 -14 622 -14 q 288 49 389 -14 q 135 226 186 111 q 85 497 85 342 q 140 762 85 647 q 301 941 194 876 q 561 1006 408 1006 q 708 990 638 1006 q 835 947 779 975 l 785 842 q 683 879 739 863 q 560 896 626 896 m 529 1271 q 578 1252 557 1271 q 600 1193 600 1233 q 578 1135 600 1154 q 529 1115 557 1115 q 478 1135 499 1115 q 457 1193 457 1154 q 478 1252 457 1233 q 529 1271 499 1271 z "},"D":{"ha":1014,"x_min":135,"x_max":929,"o":"m 929 506 q 867 226 929 339 q 690 57 806 114 q 411 0 575 0 l 135 0 l 135 992 l 440 992 q 700 936 590 992 q 869 773 810 881 q 929 506 929 665 m 797 501 q 699 792 797 700 q 422 885 601 885 l 260 885 l 260 107 l 394 107 q 697 206 596 107 q 797 501 797 306 z "},"Ð":{"ha":1014,"x_min":42,"x_max":929,"o":"m 440 992 q 699 936 589 992 q 869 773 808 881 q 929 506 929 665 q 867 226 929 339 q 690 57 806 114 q 410 0 574 0 l 144 0 l 144 436 l 42 436 l 42 544 l 144 544 l 144 992 l 440 992 m 422 885 l 269 885 l 269 544 l 517 544 l 517 436 l 269 436 l 269 107 l 394 107 q 697 206 597 107 q 797 501 797 306 q 699 792 797 700 q 422 885 600 885 z "},"Ď":{"ha":1014,"x_min":135,"x_max":929,"o":"m 929 506 q 867 226 929 339 q 690 57 806 114 q 411 0 575 0 l 135 0 l 135 992 l 440 992 q 700 936 590 992 q 869 773 810 881 q 929 506 929 665 m 797 501 q 699 792 797 700 q 422 885 601 885 l 260 885 l 260 107 l 394 107 q 697 206 596 107 q 797 501 797 306 m 438 1089 q 389 1158 419 1121 q 325 1231 358 1194 q 267 1293 292 1267 l 267 1311 l 350 1311 q 425 1254 386 1288 q 499 1183 464 1221 q 575 1254 536 1221 q 650 1311 614 1288 l 736 1311 l 736 1293 q 676 1231 710 1267 q 610 1158 642 1194 q 563 1089 579 1121 l 438 1089 z "},"Đ":{"ha":1014,"x_min":42,"x_max":929,"o":"m 440 992 q 699 936 589 992 q 869 773 808 881 q 929 506 929 665 q 867 226 929 339 q 690 57 806 114 q 410 0 574 0 l 144 0 l 144 436 l 42 436 l 42 544 l 144 544 l 144 992 l 440 992 m 422 885 l 269 885 l 269 544 l 517 544 l 517 436 l 269 436 l 269 107 l 394 107 q 697 206 597 107 q 797 501 797 306 q 699 792 797 700 q 422 885 600 885 z "},"E":{"ha":772,"x_min":135,"x_max":689,"o":"m 689 0 l 135 0 l 135 992 l 689 992 l 689 882 l 260 882 l 260 572 l 664 572 l 664 464 l 260 464 l 260 110 l 689 110 l 689 0 z "},"É":{"ha":772,"x_min":135,"x_max":689,"o":"m 689 0 l 135 0 l 135 992 l 689 992 l 689 882 l 260 882 l 260 572 l 664 572 l 664 464 l 260 464 l 260 110 l 689 110 l 689 0 m 629 1297 q 593 1250 617 1278 q 541 1192 569 1222 q 484 1135 513 1163 q 431 1089 456 1108 l 350 1089 l 350 1106 q 395 1168 371 1132 q 443 1242 419 1204 q 482 1311 467 1281 l 629 1311 l 629 1297 z "},"Ě":{"ha":772,"x_min":135,"x_max":689,"o":"m 689 0 l 135 0 l 135 992 l 689 992 l 689 882 l 260 882 l 260 572 l 664 572 l 664 464 l 260 464 l 260 110 l 689 110 l 689 0 m 360 1089 q 311 1158 342 1121 q 247 1231 281 1194 q 189 1293 214 1267 l 189 1311 l 272 1311 q 347 1254 308 1288 q 421 1183 386 1221 q 497 1254 458 1221 q 572 1311 536 1288 l 658 1311 l 658 1293 q 598 1231 632 1267 q 533 1158 564 1194 q 485 1089 501 1121 l 360 1089 z "},"Ê":{"ha":772,"x_min":135,"x_max":689,"o":"m 689 0 l 135 0 l 135 992 l 689 992 l 689 882 l 260 882 l 260 572 l 664 572 l 664 464 l 260 464 l 260 110 l 689 110 l 689 0 m 485 1311 q 533 1242 501 1281 q 598 1167 564 1204 q 658 1104 632 1131 l 658 1089 l 572 1089 q 497 1144 536 1111 q 421 1214 458 1176 q 346 1144 383 1176 q 272 1089 308 1113 l 189 1089 l 189 1104 q 248 1168 215 1132 q 311 1242 281 1204 q 360 1311 342 1281 l 485 1311 z "},"Ë":{"ha":772,"x_min":135,"x_max":689,"o":"m 689 0 l 135 0 l 135 992 l 689 992 l 689 882 l 260 882 l 260 572 l 664 572 l 664 464 l 260 464 l 260 110 l 689 110 l 689 0 m 229 1193 q 249 1245 229 1229 q 294 1261 268 1261 q 340 1245 321 1261 q 360 1193 360 1229 q 340 1141 360 1158 q 294 1124 321 1124 q 249 1141 268 1124 q 229 1193 229 1158 m 490 1193 q 509 1245 490 1229 q 554 1261 528 1261 q 600 1245 581 1261 q 619 1193 619 1229 q 600 1141 619 1158 q 554 1124 581 1124 q 509 1141 528 1124 q 490 1193 490 1158 z "},"Ė":{"ha":772,"x_min":135,"x_max":689,"o":"m 689 0 l 135 0 l 135 992 l 689 992 l 689 882 l 260 882 l 260 572 l 664 572 l 664 464 l 260 464 l 260 110 l 689 110 l 689 0 m 425 1271 q 474 1252 453 1271 q 496 1193 496 1233 q 474 1135 496 1154 q 425 1115 453 1115 q 374 1135 394 1115 q 353 1193 353 1154 q 374 1252 353 1233 q 425 1271 394 1271 z "},"È":{"ha":772,"x_min":135,"x_max":689,"o":"m 689 0 l 135 0 l 135 992 l 689 992 l 689 882 l 260 882 l 260 572 l 664 572 l 664 464 l 260 464 l 260 110 l 689 110 l 689 0 m 389 1311 q 427 1242 404 1281 q 476 1168 450 1204 q 522 1106 501 1132 l 522 1089 l 440 1089 q 388 1135 417 1108 q 330 1192 358 1163 q 278 1250 301 1222 q 243 1297 256 1278 l 243 1311 l 389 1311 z "},"Ē":{"ha":772,"x_min":135,"x_max":689,"o":"m 689 0 l 135 0 l 135 992 l 689 992 l 689 882 l 260 882 l 260 572 l 664 572 l 664 464 l 260 464 l 260 110 l 689 110 l 689 0 m 629 1188 l 629 1089 l 217 1089 l 217 1188 l 629 1188 z "},"Ę":{"ha":772,"x_min":135,"x_max":689,"o":"m 689 0 l 135 0 l 135 992 l 689 992 l 689 882 l 260 882 l 260 572 l 664 572 l 664 464 l 260 464 l 260 110 l 689 110 l 689 0 m 553 -161 q 569 -208 553 -192 q 615 -224 586 -224 q 655 -220 639 -224 q 682 -215 671 -217 l 682 -293 q 643 -302 663 -299 q 596 -306 624 -306 q 488 -271 522 -306 q 453 -175 453 -236 q 473 -97 453 -135 q 523 -29 493 -60 q 581 21 553 1 l 647 0 q 576 -81 600 -44 q 553 -161 553 -118 z "},"F":{"ha":721,"x_min":135,"x_max":689,"o":"m 260 0 l 135 0 l 135 992 l 689 992 l 689 882 l 260 882 l 260 531 l 663 531 l 663 421 l 260 421 l 260 0 z "},"G":{"ha":1011,"x_min":85,"x_max":908,"o":"m 565 524 l 908 524 l 908 38 q 746 -1 828 11 q 560 -14 664 -14 q 300 48 406 -14 q 140 224 194 110 q 85 496 85 339 q 146 765 85 651 q 322 942 207 879 q 599 1006 436 1006 q 756 990 682 1006 q 894 947 831 975 l 847 839 q 728 879 794 863 q 592 896 663 896 q 389 847 474 896 q 260 709 304 799 q 215 496 215 619 q 253 287 215 378 q 374 145 292 196 q 589 94 456 94 q 700 101 654 94 q 783 118 746 108 l 783 413 l 565 413 l 565 524 z "},"Ğ":{"ha":1011,"x_min":85,"x_max":908,"o":"m 565 524 l 908 524 l 908 38 q 746 -1 828 11 q 560 -14 664 -14 q 300 48 406 -14 q 140 224 194 110 q 85 496 85 339 q 146 765 85 651 q 322 942 207 879 q 599 1006 436 1006 q 756 990 682 1006 q 894 947 831 975 l 847 839 q 728 879 794 863 q 592 896 663 896 q 389 847 474 896 q 260 709 304 799 q 215 496 215 619 q 253 287 215 378 q 374 145 292 196 q 589 94 456 94 q 700 101 654 94 q 783 118 746 108 l 783 413 l 565 413 l 565 524 m 778 1275 q 715 1140 771 1192 q 558 1089 658 1089 q 403 1140 456 1089 q 346 1275 351 1190 l 421 1275 q 442 1219 425 1238 q 490 1194 460 1200 q 561 1188 519 1188 q 627 1194 597 1188 q 677 1220 657 1201 q 701 1275 697 1239 l 778 1275 z "},"Ģ":{"ha":1011,"x_min":85,"x_max":908,"o":"m 565 524 l 908 524 l 908 38 q 746 -1 828 11 q 560 -14 664 -14 q 300 48 406 -14 q 140 224 194 110 q 85 496 85 339 q 146 765 85 651 q 322 942 207 879 q 599 1006 436 1006 q 756 990 682 1006 q 894 947 831 975 l 847 839 q 728 879 794 863 q 592 896 663 896 q 389 847 474 896 q 260 709 304 799 q 215 496 215 619 q 253 287 215 378 q 374 145 292 196 q 589 94 456 94 q 700 101 654 94 q 783 118 746 108 l 783 413 l 565 413 l 565 524 m 647 -97 q 624 -160 642 -122 q 584 -237 607 -199 q 536 -307 561 -276 l 469 -307 l 469 -290 q 492 -230 481 -267 q 514 -153 504 -193 q 526 -85 524 -114 l 647 -85 l 647 -97 z "},"Ġ":{"ha":1011,"x_min":85,"x_max":908,"o":"m 565 524 l 908 524 l 908 38 q 746 -1 828 11 q 560 -14 664 -14 q 300 48 406 -14 q 140 224 194 110 q 85 496 85 339 q 146 765 85 651 q 322 942 207 879 q 599 1006 436 1006 q 756 990 682 1006 q 894 947 831 975 l 847 839 q 728 879 794 863 q 592 896 663 896 q 389 847 474 896 q 260 709 304 799 q 215 496 215 619 q 253 287 215 378 q 374 145 292 196 q 589 94 456 94 q 700 101 654 94 q 783 118 746 108 l 783 413 l 565 413 l 565 524 m 564 1271 q 613 1252 592 1271 q 635 1193 635 1233 q 613 1135 635 1154 q 564 1115 592 1115 q 513 1135 533 1115 q 492 1193 492 1154 q 513 1252 492 1233 q 564 1271 533 1271 z "},"H":{"ha":1029,"x_min":135,"x_max":893,"o":"m 893 0 l 768 0 l 768 463 l 260 463 l 260 0 l 135 0 l 135 992 l 260 992 l 260 572 l 768 572 l 768 992 l 893 992 l 893 0 z "},"Ħ":{"ha":1029,"x_min":0,"x_max":1028,"o":"m 135 0 l 135 726 l 0 726 l 0 826 l 135 826 l 135 992 l 260 992 l 260 826 l 768 826 l 768 992 l 893 992 l 893 826 l 1028 826 l 1028 726 l 893 726 l 893 0 l 768 0 l 768 463 l 260 463 l 260 0 l 135 0 m 260 572 l 768 572 l 768 726 l 260 726 l 260 572 z "},"I":{"ha":471,"x_min":56,"x_max":414,"o":"m 414 0 l 56 0 l 56 72 l 172 99 l 172 892 l 56 919 l 56 992 l 414 992 l 414 919 l 297 892 l 297 99 l 414 72 l 414 0 z "},"Ĳ":{"ha":850,"x_min":56,"x_max":724,"o":"m 414 0 l 56 0 l 56 72 l 172 99 l 172 892 l 56 919 l 56 992 l 414 992 l 414 919 l 297 892 l 297 99 l 414 72 l 414 0 m 465 -264 q 407 -259 432 -264 q 363 -246 382 -254 l 363 -140 q 410 -150 385 -146 q 463 -154 435 -154 q 528 -140 497 -154 q 579 -92 560 -126 q 599 6 599 -57 l 599 992 l 724 992 l 724 15 q 692 -142 724 -81 q 601 -234 660 -204 q 465 -264 543 -264 z "},"Í":{"ha":471,"x_min":56,"x_max":442,"o":"m 414 0 l 56 0 l 56 72 l 172 99 l 172 892 l 56 919 l 56 992 l 414 992 l 414 919 l 297 892 l 297 99 l 414 72 l 414 0 m 442 1297 q 406 1250 429 1278 q 353 1192 382 1222 q 297 1135 325 1163 q 243 1089 268 1108 l 163 1089 l 163 1106 q 208 1168 183 1132 q 256 1242 232 1204 q 294 1311 279 1281 l 442 1311 l 442 1297 z "},"Î":{"ha":471,"x_min":1,"x_max":471,"o":"m 414 0 l 56 0 l 56 72 l 172 99 l 172 892 l 56 919 l 56 992 l 414 992 l 414 919 l 297 892 l 297 99 l 414 72 l 414 0 m 297 1311 q 345 1242 314 1281 q 410 1167 376 1204 q 471 1104 444 1131 l 471 1089 l 385 1089 q 310 1144 349 1111 q 233 1214 271 1176 q 158 1144 196 1176 q 85 1089 121 1113 l 1 1089 l 1 1104 q 60 1168 28 1132 q 124 1242 93 1204 q 172 1311 154 1281 l 297 1311 z "},"Ï":{"ha":471,"x_min":42,"x_max":432,"o":"m 414 0 l 56 0 l 56 72 l 172 99 l 172 892 l 56 919 l 56 992 l 414 992 l 414 919 l 297 892 l 297 99 l 414 72 l 414 0 m 42 1193 q 61 1245 42 1229 q 107 1261 81 1261 q 153 1245 133 1261 q 172 1193 172 1229 q 153 1141 172 1158 q 107 1124 133 1124 q 61 1141 81 1124 q 42 1193 42 1158 m 303 1193 q 322 1245 303 1229 q 367 1261 340 1261 q 413 1245 393 1261 q 432 1193 432 1229 q 413 1141 432 1158 q 367 1124 393 1124 q 322 1141 340 1124 q 303 1193 303 1158 z "},"İ":{"ha":471,"x_min":56,"x_max":414,"o":"m 414 0 l 56 0 l 56 72 l 172 99 l 172 892 l 56 919 l 56 992 l 414 992 l 414 919 l 297 892 l 297 99 l 414 72 l 414 0 m 238 1271 q 287 1252 265 1271 q 308 1193 308 1233 q 287 1135 308 1154 q 238 1115 265 1115 q 186 1135 207 1115 q 165 1193 165 1154 q 186 1252 165 1233 q 238 1271 207 1271 z "},"Ì":{"ha":471,"x_min":56,"x_max":414,"o":"m 414 0 l 56 0 l 56 72 l 172 99 l 172 892 l 56 919 l 56 992 l 414 992 l 414 919 l 297 892 l 297 99 l 414 72 l 414 0 m 201 1311 q 240 1242 217 1281 q 288 1168 263 1204 q 335 1106 314 1132 l 335 1089 l 253 1089 q 200 1135 229 1108 q 142 1192 171 1163 q 91 1250 114 1222 q 56 1297 68 1278 l 56 1311 l 201 1311 z "},"Ī":{"ha":471,"x_min":29,"x_max":442,"o":"m 414 0 l 56 0 l 56 72 l 172 99 l 172 892 l 56 919 l 56 992 l 414 992 l 414 919 l 297 892 l 297 99 l 414 72 l 414 0 m 442 1188 l 442 1089 l 29 1089 l 29 1188 l 442 1188 z "},"Į":{"ha":471,"x_min":56,"x_max":414,"o":"m 414 0 l 56 0 l 56 72 l 172 99 l 172 892 l 56 919 l 56 992 l 414 992 l 414 919 l 297 892 l 297 99 l 414 72 l 414 0 m 283 -161 q 300 -208 283 -192 q 346 -224 317 -224 q 385 -220 369 -224 q 413 -215 401 -217 l 413 -293 q 374 -302 393 -299 q 326 -306 354 -306 q 218 -271 253 -306 q 183 -175 183 -236 q 203 -97 183 -135 q 253 -29 224 -60 q 311 21 283 1 l 378 0 q 307 -81 331 -44 q 283 -161 283 -118 z "},"J":{"ha":379,"x_min":-108,"x_max":253,"o":"m -6 -264 q -64 -259 -39 -264 q -108 -246 -89 -254 l -108 -140 q -61 -150 -86 -146 q -8 -154 -36 -154 q 58 -140 26 -154 q 108 -92 89 -126 q 128 6 128 -57 l 128 992 l 253 992 l 253 15 q 221 -142 253 -81 q 131 -234 189 -204 q -6 -264 72 -264 z "},"K":{"ha":860,"x_min":135,"x_max":860,"o":"m 860 0 l 713 0 l 361 474 l 260 385 l 260 0 l 135 0 l 135 992 l 260 992 l 260 503 q 344 597 301 550 q 431 692 388 644 l 699 992 l 844 992 l 451 560 l 860 0 z "},"Ķ":{"ha":860,"x_min":135,"x_max":860,"o":"m 860 0 l 713 0 l 361 474 l 260 385 l 260 0 l 135 0 l 135 992 l 260 992 l 260 503 q 344 597 301 550 q 431 692 388 644 l 699 992 l 844 992 l 451 560 l 860 0 m 547 -97 q 524 -160 542 -122 q 484 -237 507 -199 q 436 -307 461 -276 l 369 -307 l 369 -290 q 392 -230 381 -267 q 414 -153 404 -193 q 426 -85 424 -114 l 547 -85 l 547 -97 z "},"L":{"ha":728,"x_min":135,"x_max":693,"o":"m 135 0 l 135 992 l 260 992 l 260 111 l 693 111 l 693 0 l 135 0 z "},"Ĺ":{"ha":728,"x_min":121,"x_max":693,"o":"m 135 0 l 135 992 l 260 992 l 260 111 l 693 111 l 693 0 l 135 0 m 400 1297 q 364 1250 388 1278 q 312 1192 340 1222 q 255 1135 283 1163 q 201 1089 226 1108 l 121 1089 l 121 1106 q 166 1168 142 1132 q 214 1242 190 1204 q 253 1311 238 1281 l 400 1311 l 400 1297 z "},"Ľ":{"ha":728,"x_min":135,"x_max":693,"o":"m 135 0 l 135 992 l 260 992 l 260 111 l 693 111 l 693 0 l 135 0 m 693 979 q 672 917 688 954 q 635 840 656 879 q 593 769 614 800 l 526 769 l 526 786 q 540 832 533 806 q 553 887 547 858 q 565 942 560 915 q 572 992 569 969 l 693 992 l 693 979 z "},"Ļ":{"ha":728,"x_min":135,"x_max":693,"o":"m 135 0 l 135 992 l 260 992 l 260 111 l 693 111 l 693 0 l 135 0 m 506 -97 q 483 -160 500 -122 q 442 -237 465 -199 q 394 -307 419 -276 l 328 -307 l 328 -290 q 351 -230 339 -267 q 372 -153 363 -193 q 385 -85 382 -114 l 506 -85 l 506 -97 z "},"Ł":{"ha":728,"x_min":18,"x_max":693,"o":"m 135 0 l 135 343 l 67 304 l 18 388 l 135 457 l 135 992 l 260 992 l 260 531 l 450 643 l 500 556 l 260 417 l 260 111 l 693 111 l 693 0 l 135 0 z "},"M":{"ha":1260,"x_min":135,"x_max":1125,"o":"m 572 0 l 246 869 l 240 869 q 245 799 243 842 q 249 705 247 756 q 250 601 250 654 l 250 0 l 135 0 l 135 992 l 319 992 l 625 179 l 631 179 l 942 992 l 1125 992 l 1125 0 l 1001 0 l 1001 610 q 1003 706 1001 658 q 1007 797 1004 754 q 1011 868 1010 839 l 1006 868 l 675 0 l 572 0 z "},"N":{"ha":1056,"x_min":135,"x_max":921,"o":"m 921 0 l 775 0 l 244 824 l 239 824 q 244 748 242 792 q 248 655 246 704 q 250 554 250 606 l 250 0 l 135 0 l 135 992 l 279 992 l 808 171 l 814 171 q 810 238 813 193 q 806 335 808 282 q 804 432 804 388 l 804 992 l 921 992 l 921 0 z "},"Ń":{"ha":1056,"x_min":135,"x_max":921,"o":"m 921 0 l 775 0 l 244 824 l 239 824 q 244 748 242 792 q 248 655 246 704 q 250 554 250 606 l 250 0 l 135 0 l 135 992 l 279 992 l 808 171 l 814 171 q 810 238 813 193 q 806 335 808 282 q 804 432 804 388 l 804 992 l 921 992 l 921 0 m 733 1297 q 697 1250 721 1278 q 645 1192 674 1222 q 588 1135 617 1163 q 535 1089 560 1108 l 454 1089 l 454 1106 q 499 1168 475 1132 q 547 1242 524 1204 q 586 1311 571 1281 l 733 1311 l 733 1297 z "},"Ň":{"ha":1056,"x_min":135,"x_max":921,"o":"m 921 0 l 775 0 l 244 824 l 239 824 q 244 748 242 792 q 248 655 246 704 q 250 554 250 606 l 250 0 l 135 0 l 135 992 l 279 992 l 808 171 l 814 171 q 810 238 813 193 q 806 335 808 282 q 804 432 804 388 l 804 992 l 921 992 l 921 0 m 464 1089 q 415 1158 446 1121 q 351 1231 385 1194 q 293 1293 318 1267 l 293 1311 l 376 1311 q 451 1254 413 1288 q 525 1183 490 1221 q 601 1254 563 1221 q 676 1311 640 1288 l 763 1311 l 763 1293 q 702 1231 736 1267 q 637 1158 668 1194 q 589 1089 606 1121 l 464 1089 z "},"Ņ":{"ha":1056,"x_min":135,"x_max":921,"o":"m 921 0 l 775 0 l 244 824 l 239 824 q 244 748 242 792 q 248 655 246 704 q 250 554 250 606 l 250 0 l 135 0 l 135 992 l 279 992 l 808 171 l 814 171 q 810 238 813 193 q 806 335 808 282 q 804 432 804 388 l 804 992 l 921 992 l 921 0 m 617 -97 q 594 -160 611 -122 q 553 -237 576 -199 q 506 -307 531 -276 l 439 -307 l 439 -290 q 462 -230 450 -267 q 483 -153 474 -193 q 496 -85 493 -114 l 617 -85 l 617 -97 z "},"Ñ":{"ha":1056,"x_min":135,"x_max":921,"o":"m 921 0 l 775 0 l 244 824 l 239 824 q 244 748 242 792 q 248 655 246 704 q 250 554 250 606 l 250 0 l 135 0 l 135 992 l 279 992 l 808 171 l 814 171 q 810 238 813 193 q 806 335 808 282 q 804 432 804 388 l 804 992 l 921 992 l 921 0 m 274 1089 q 299 1184 279 1144 q 351 1245 318 1224 q 426 1267 383 1267 q 485 1255 457 1267 q 540 1227 514 1243 q 591 1199 567 1211 q 638 1188 615 1188 q 687 1208 669 1188 q 714 1268 704 1228 l 783 1268 q 736 1139 775 1188 q 632 1090 697 1090 q 575 1102 603 1090 q 520 1130 547 1114 q 469 1158 493 1146 q 421 1169 444 1169 q 371 1149 388 1169 q 344 1089 354 1129 l 274 1089 z "},"Ŋ":{"ha":1056,"x_min":135,"x_max":921,"o":"m 660 -264 q 599 -259 625 -264 q 554 -246 574 -254 l 554 -140 q 603 -150 576 -146 q 660 -154 629 -154 q 728 -141 696 -154 q 783 -94 761 -128 q 804 0 804 -60 l 244 824 l 239 824 q 244 749 242 797 q 248 644 246 700 q 250 538 250 589 l 250 0 l 135 0 l 135 992 l 279 992 l 808 197 l 814 197 q 809 273 811 228 q 806 371 807 318 q 804 475 804 424 l 804 992 l 921 992 l 921 8 q 889 -145 921 -85 q 799 -235 857 -206 q 660 -264 740 -264 z "},"O":{"ha":1085,"x_min":85,"x_max":1000,"o":"m 1000 497 q 948 228 1000 343 q 794 50 896 114 q 543 -14 693 -14 q 340 23 426 -14 q 197 127 254 60 q 113 289 140 194 q 85 499 85 383 q 135 765 85 651 q 287 943 185 879 q 544 1007 389 1007 q 794 944 693 1007 q 948 766 896 881 q 1000 497 1000 651 m 217 497 q 251 282 217 372 q 359 143 286 192 q 543 94 432 94 q 727 143 656 94 q 833 282 799 192 q 868 497 868 372 q 790 791 868 685 q 544 897 713 897 q 359 849 432 897 q 251 712 286 801 q 217 497 217 622 z "},"Ó":{"ha":1085,"x_min":85,"x_max":1000,"o":"m 1000 497 q 948 228 1000 343 q 794 50 896 114 q 543 -14 693 -14 q 340 23 426 -14 q 197 127 254 60 q 113 289 140 194 q 85 499 85 383 q 135 765 85 651 q 287 943 185 879 q 544 1007 389 1007 q 794 944 693 1007 q 948 766 896 881 q 1000 497 1000 651 m 217 497 q 251 282 217 372 q 359 143 286 192 q 543 94 432 94 q 727 143 656 94 q 833 282 799 192 q 868 497 868 372 q 790 791 868 685 q 544 897 713 897 q 359 849 432 897 q 251 712 286 801 q 217 497 217 622 m 749 1297 q 713 1250 736 1278 q 660 1192 689 1222 q 603 1135 632 1163 q 550 1089 575 1108 l 469 1089 l 469 1106 q 515 1168 490 1132 q 563 1242 539 1204 q 601 1311 586 1281 l 749 1311 l 749 1297 z "},"Ô":{"ha":1085,"x_min":85,"x_max":1000,"o":"m 1000 497 q 948 228 1000 343 q 794 50 896 114 q 543 -14 693 -14 q 340 23 426 -14 q 197 127 254 60 q 113 289 140 194 q 85 499 85 383 q 135 765 85 651 q 287 943 185 879 q 544 1007 389 1007 q 794 944 693 1007 q 948 766 896 881 q 1000 497 1000 651 m 217 497 q 251 282 217 372 q 359 143 286 192 q 543 94 432 94 q 727 143 656 94 q 833 282 799 192 q 868 497 868 372 q 790 791 868 685 q 544 897 713 897 q 359 849 432 897 q 251 712 286 801 q 217 497 217 622 m 604 1311 q 652 1242 621 1281 q 717 1167 683 1204 q 778 1104 751 1131 l 778 1089 l 692 1089 q 617 1144 656 1111 q 540 1214 578 1176 q 465 1144 503 1176 q 392 1089 428 1113 l 308 1089 l 308 1104 q 367 1168 335 1132 q 431 1242 400 1204 q 479 1311 461 1281 l 604 1311 z "},"Ö":{"ha":1085,"x_min":85,"x_max":1000,"o":"m 1000 497 q 948 228 1000 343 q 794 50 896 114 q 543 -14 693 -14 q 340 23 426 -14 q 197 127 254 60 q 113 289 140 194 q 85 499 85 383 q 135 765 85 651 q 287 943 185 879 q 544 1007 389 1007 q 794 944 693 1007 q 948 766 896 881 q 1000 497 1000 651 m 217 497 q 251 282 217 372 q 359 143 286 192 q 543 94 432 94 q 727 143 656 94 q 833 282 799 192 q 868 497 868 372 q 790 791 868 685 q 544 897 713 897 q 359 849 432 897 q 251 712 286 801 q 217 497 217 622 m 349 1193 q 368 1245 349 1229 q 414 1261 388 1261 q 460 1245 440 1261 q 479 1193 479 1229 q 460 1141 479 1158 q 414 1124 440 1124 q 368 1141 388 1124 q 349 1193 349 1158 m 610 1193 q 628 1245 610 1229 q 674 1261 647 1261 q 719 1245 700 1261 q 739 1193 739 1229 q 719 1141 739 1158 q 674 1124 700 1124 q 628 1141 647 1124 q 610 1193 610 1158 z "},"Ò":{"ha":1085,"x_min":85,"x_max":1000,"o":"m 1000 497 q 948 228 1000 343 q 794 50 896 114 q 543 -14 693 -14 q 340 23 426 -14 q 197 127 254 60 q 113 289 140 194 q 85 499 85 383 q 135 765 85 651 q 287 943 185 879 q 544 1007 389 1007 q 794 944 693 1007 q 948 766 896 881 q 1000 497 1000 651 m 217 497 q 251 282 217 372 q 359 143 286 192 q 543 94 432 94 q 727 143 656 94 q 833 282 799 192 q 868 497 868 372 q 790 791 868 685 q 544 897 713 897 q 359 849 432 897 q 251 712 286 801 q 217 497 217 622 m 508 1311 q 547 1242 524 1281 q 595 1168 569 1204 q 642 1106 621 1132 l 642 1089 l 560 1089 q 507 1135 536 1108 q 449 1192 478 1163 q 398 1250 421 1222 q 363 1297 375 1278 l 363 1311 l 508 1311 z "},"Ő":{"ha":1085,"x_min":85,"x_max":1000,"o":"m 1000 497 q 948 228 1000 343 q 794 50 896 114 q 543 -14 693 -14 q 340 23 426 -14 q 197 127 254 60 q 113 289 140 194 q 85 499 85 383 q 135 765 85 651 q 287 943 185 879 q 544 1007 389 1007 q 794 944 693 1007 q 948 766 896 881 q 1000 497 1000 651 m 217 497 q 251 282 217 372 q 359 143 286 192 q 543 94 432 94 q 727 143 656 94 q 833 282 799 192 q 868 497 868 372 q 790 791 868 685 q 544 897 713 897 q 359 849 432 897 q 251 712 286 801 q 217 497 217 622 m 792 1297 q 760 1251 781 1279 q 712 1193 739 1224 q 658 1135 685 1163 q 607 1089 631 1108 l 538 1089 l 538 1106 q 579 1168 557 1132 q 623 1242 601 1204 q 658 1311 644 1281 l 792 1311 l 792 1297 m 547 1297 q 515 1251 536 1279 q 467 1193 494 1224 q 413 1135 440 1163 q 363 1089 386 1108 l 293 1089 l 293 1106 q 335 1168 313 1132 q 378 1242 357 1204 q 414 1311 399 1281 l 547 1311 l 547 1297 z "},"Ō":{"ha":1085,"x_min":85,"x_max":1000,"o":"m 1000 497 q 948 228 1000 343 q 794 50 896 114 q 543 -14 693 -14 q 340 23 426 -14 q 197 127 254 60 q 113 289 140 194 q 85 499 85 383 q 135 765 85 651 q 287 943 185 879 q 544 1007 389 1007 q 794 944 693 1007 q 948 766 896 881 q 1000 497 1000 651 m 217 497 q 251 282 217 372 q 359 143 286 192 q 543 94 432 94 q 727 143 656 94 q 833 282 799 192 q 868 497 868 372 q 790 791 868 685 q 544 897 713 897 q 359 849 432 897 q 251 712 286 801 q 217 497 217 622 m 749 1188 l 749 1089 l 336 1089 l 336 1188 l 749 1188 z "},"Ø":{"ha":1085,"x_min":85,"x_max":1000,"o":"m 1000 497 q 948 228 1000 343 q 794 50 896 114 q 543 -14 693 -14 q 401 3 465 -14 q 286 51 336 19 l 219 -43 l 135 13 l 207 115 q 115 281 146 183 q 85 499 85 378 q 135 765 85 651 q 287 943 185 879 q 544 1007 389 1007 q 678 990 617 1007 q 792 944 740 974 l 856 1036 l 940 979 l 869 881 q 967 717 933 814 q 1000 497 1000 619 m 868 497 q 797 778 868 676 l 353 147 q 437 108 389 122 q 543 94 485 94 q 727 143 656 94 q 833 282 799 192 q 868 497 868 372 m 217 497 q 233 343 217 413 q 282 222 249 274 l 725 849 q 645 885 690 872 q 544 897 600 897 q 359 849 432 897 q 251 712 286 801 q 217 497 217 622 z "},"Õ":{"ha":1085,"x_min":85,"x_max":1000,"o":"m 1000 497 q 948 228 1000 343 q 794 50 896 114 q 543 -14 693 -14 q 340 23 426 -14 q 197 127 254 60 q 113 289 140 194 q 85 499 85 383 q 135 765 85 651 q 287 943 185 879 q 544 1007 389 1007 q 794 944 693 1007 q 948 766 896 881 q 1000 497 1000 651 m 217 497 q 251 282 217 372 q 359 143 286 192 q 543 94 432 94 q 727 143 656 94 q 833 282 799 192 q 868 497 868 372 q 790 791 868 685 q 544 897 713 897 q 359 849 432 897 q 251 712 286 801 q 217 497 217 622 m 289 1089 q 314 1184 294 1144 q 366 1245 333 1224 q 442 1267 399 1267 q 501 1255 472 1267 q 556 1227 529 1243 q 606 1199 582 1211 q 653 1188 631 1188 q 702 1208 685 1188 q 729 1268 719 1228 l 799 1268 q 751 1139 790 1188 q 647 1090 713 1090 q 590 1102 618 1090 q 535 1130 563 1114 q 484 1158 508 1146 q 436 1169 460 1169 q 386 1149 403 1169 q 360 1089 369 1129 l 289 1089 z "},"Œ":{"ha":1289,"x_min":85,"x_max":1206,"o":"m 536 1007 q 606 1003 572 1007 q 669 992 639 999 l 1206 992 l 1206 882 l 807 882 l 807 572 l 1179 572 l 1179 464 l 807 464 l 807 110 l 1206 110 l 1206 0 l 678 0 q 613 -10 647 -6 q 543 -14 579 -14 q 287 50 389 -14 q 135 229 185 114 q 85 499 85 344 q 134 767 85 653 q 284 944 183 881 q 536 1007 385 1007 m 547 897 q 360 849 433 897 q 251 712 286 801 q 215 497 215 622 q 251 282 215 372 q 360 143 286 192 q 546 94 433 94 q 620 101 585 94 q 683 118 656 107 l 683 875 q 620 892 654 886 q 547 897 586 897 z "},"P":{"ha":840,"x_min":135,"x_max":769,"o":"m 397 992 q 681 915 592 992 q 769 700 769 839 q 749 583 769 639 q 683 482 729 526 q 561 412 638 438 q 374 386 485 386 l 260 386 l 260 0 l 135 0 l 135 992 l 397 992 m 386 885 l 260 885 l 260 493 l 360 493 q 517 513 454 493 q 610 578 579 533 q 640 694 640 622 q 579 838 640 790 q 386 885 518 885 z "},"Þ":{"ha":840,"x_min":135,"x_max":769,"o":"m 769 531 q 750 411 769 468 q 685 310 731 354 q 563 241 639 267 q 372 215 486 215 l 260 215 l 260 0 l 135 0 l 135 992 l 260 992 l 260 819 l 393 819 q 682 743 594 819 q 769 531 769 667 m 360 321 q 519 341 457 321 q 610 406 581 361 q 640 524 640 451 q 580 666 640 619 q 383 713 519 713 l 260 713 l 260 321 l 360 321 z "},"Q":{"ha":1085,"x_min":85,"x_max":1000,"o":"m 1000 497 q 967 278 1000 376 q 871 111 935 179 q 711 11 807 43 l 949 -236 l 769 -236 l 578 -12 q 560 -13 569 -12 q 543 -14 551 -14 q 340 23 426 -14 q 197 127 254 60 q 113 289 140 194 q 85 499 85 383 q 135 765 85 651 q 287 943 185 879 q 544 1007 389 1007 q 794 944 693 1007 q 948 766 896 881 q 1000 497 1000 651 m 217 497 q 251 282 217 372 q 359 143 286 192 q 543 94 432 94 q 727 143 656 94 q 833 282 799 192 q 868 497 868 372 q 790 791 868 685 q 544 897 713 897 q 359 849 432 897 q 251 712 286 801 q 217 497 217 622 z "},"R":{"ha":864,"x_min":135,"x_max":843,"o":"m 408 992 q 612 960 532 992 q 731 867 692 929 q 769 710 769 804 q 740 578 769 631 q 666 494 711 525 q 571 444 621 463 l 843 0 l 697 0 l 457 410 l 260 410 l 260 0 l 135 0 l 135 992 l 408 992 m 401 883 l 260 883 l 260 515 l 408 515 q 585 563 529 515 q 640 704 640 611 q 615 808 640 769 q 536 865 589 847 q 401 883 483 883 z "},"Ŕ":{"ha":864,"x_min":135,"x_max":843,"o":"m 408 992 q 612 960 532 992 q 731 867 692 929 q 769 710 769 804 q 740 578 769 631 q 666 494 711 525 q 571 444 621 463 l 843 0 l 697 0 l 457 410 l 260 410 l 260 0 l 135 0 l 135 992 l 408 992 m 401 883 l 260 883 l 260 515 l 408 515 q 585 563 529 515 q 640 704 640 611 q 615 808 640 769 q 536 865 589 847 q 401 883 483 883 m 638 1297 q 601 1250 625 1278 q 549 1192 578 1222 q 492 1135 521 1163 q 439 1089 464 1108 l 358 1089 l 358 1106 q 403 1168 379 1132 q 451 1242 428 1204 q 490 1311 475 1281 l 638 1311 l 638 1297 z "},"Ř":{"ha":864,"x_min":135,"x_max":843,"o":"m 408 992 q 612 960 532 992 q 731 867 692 929 q 769 710 769 804 q 740 578 769 631 q 666 494 711 525 q 571 444 621 463 l 843 0 l 697 0 l 457 410 l 260 410 l 260 0 l 135 0 l 135 992 l 408 992 m 401 883 l 260 883 l 260 515 l 408 515 q 585 563 529 515 q 640 704 640 611 q 615 808 640 769 q 536 865 589 847 q 401 883 483 883 m 368 1089 q 319 1158 350 1121 q 256 1231 289 1194 q 197 1293 222 1267 l 197 1311 l 281 1311 q 356 1254 317 1288 q 429 1183 394 1221 q 506 1254 467 1221 q 581 1311 544 1288 l 667 1311 l 667 1293 q 606 1231 640 1267 q 541 1158 572 1194 q 493 1089 510 1121 l 368 1089 z "},"Ŗ":{"ha":864,"x_min":135,"x_max":843,"o":"m 408 992 q 612 960 532 992 q 731 867 692 929 q 769 710 769 804 q 740 578 769 631 q 666 494 711 525 q 571 444 621 463 l 843 0 l 697 0 l 457 410 l 260 410 l 260 0 l 135 0 l 135 992 l 408 992 m 401 883 l 260 883 l 260 515 l 408 515 q 585 563 529 515 q 640 704 640 611 q 615 808 640 769 q 536 865 589 847 q 401 883 483 883 m 544 -97 q 522 -160 539 -122 q 481 -237 504 -199 q 433 -307 458 -276 l 367 -307 l 367 -290 q 390 -230 378 -267 q 411 -153 401 -193 q 424 -85 421 -114 l 544 -85 l 544 -97 z "},"S":{"ha":763,"x_min":71,"x_max":697,"o":"m 697 265 q 654 115 697 176 q 531 19 611 53 q 343 -14 451 -14 q 237 -8 288 -14 q 144 8 186 -3 q 71 33 103 18 l 71 153 q 195 113 121 131 q 349 94 269 94 q 472 114 422 94 q 547 169 522 133 q 572 254 572 206 q 551 336 572 303 q 480 398 531 369 q 339 458 429 426 q 227 509 275 482 q 147 571 179 536 q 99 650 115 606 q 83 753 83 694 q 124 888 83 832 q 235 975 164 944 q 400 1006 307 1006 q 550 990 482 1006 q 674 950 618 975 l 635 843 q 523 881 583 865 q 397 896 463 896 q 293 878 335 896 q 231 827 251 860 q 210 751 210 794 q 231 668 210 701 q 299 608 251 635 q 426 551 346 582 q 574 483 514 519 q 666 394 635 446 q 697 265 697 343 z "},"Ś":{"ha":763,"x_min":71,"x_max":697,"o":"m 697 265 q 654 115 697 176 q 531 19 611 53 q 343 -14 451 -14 q 237 -8 288 -14 q 144 8 186 -3 q 71 33 103 18 l 71 153 q 195 113 121 131 q 349 94 269 94 q 472 114 422 94 q 547 169 522 133 q 572 254 572 206 q 551 336 572 303 q 480 398 531 369 q 339 458 429 426 q 227 509 275 482 q 147 571 179 536 q 99 650 115 606 q 83 753 83 694 q 124 888 83 832 q 235 975 164 944 q 400 1006 307 1006 q 550 990 482 1006 q 674 950 618 975 l 635 843 q 523 881 583 865 q 397 896 463 896 q 293 878 335 896 q 231 827 251 860 q 210 751 210 794 q 231 668 210 701 q 299 608 251 635 q 426 551 346 582 q 574 483 514 519 q 666 394 635 446 q 697 265 697 343 m 601 1297 q 565 1250 589 1278 q 513 1192 542 1222 q 456 1135 485 1163 q 403 1089 428 1108 l 322 1089 l 322 1106 q 367 1168 343 1132 q 415 1242 392 1204 q 454 1311 439 1281 l 601 1311 l 601 1297 z "},"Š":{"ha":763,"x_min":71,"x_max":697,"o":"m 697 265 q 654 115 697 176 q 531 19 611 53 q 343 -14 451 -14 q 237 -8 288 -14 q 144 8 186 -3 q 71 33 103 18 l 71 153 q 195 113 121 131 q 349 94 269 94 q 472 114 422 94 q 547 169 522 133 q 572 254 572 206 q 551 336 572 303 q 480 398 531 369 q 339 458 429 426 q 227 509 275 482 q 147 571 179 536 q 99 650 115 606 q 83 753 83 694 q 124 888 83 832 q 235 975 164 944 q 400 1006 307 1006 q 550 990 482 1006 q 674 950 618 975 l 635 843 q 523 881 583 865 q 397 896 463 896 q 293 878 335 896 q 231 827 251 860 q 210 751 210 794 q 231 668 210 701 q 299 608 251 635 q 426 551 346 582 q 574 483 514 519 q 666 394 635 446 q 697 265 697 343 m 332 1089 q 283 1158 314 1121 q 219 1231 253 1194 q 161 1293 186 1267 l 161 1311 l 244 1311 q 319 1254 281 1288 q 393 1183 358 1221 q 469 1254 431 1221 q 544 1311 508 1288 l 631 1311 l 631 1293 q 570 1231 604 1267 q 505 1158 536 1194 q 457 1089 474 1121 l 332 1089 z "},"Ş":{"ha":763,"x_min":71,"x_max":697,"o":"m 697 265 q 654 115 697 176 q 531 19 611 53 q 343 -14 451 -14 q 237 -8 288 -14 q 144 8 186 -3 q 71 33 103 18 l 71 153 q 195 113 121 131 q 349 94 269 94 q 472 114 422 94 q 547 169 522 133 q 572 254 572 206 q 551 336 572 303 q 480 398 531 369 q 339 458 429 426 q 227 509 275 482 q 147 571 179 536 q 99 650 115 606 q 83 753 83 694 q 124 888 83 832 q 235 975 164 944 q 400 1006 307 1006 q 550 990 482 1006 q 674 950 618 975 l 635 843 q 523 881 583 865 q 397 896 463 896 q 293 878 335 896 q 231 827 251 860 q 210 751 210 794 q 231 668 210 701 q 299 608 251 635 q 426 551 346 582 q 574 483 514 519 q 666 394 635 446 q 697 265 697 343 m 494 -193 q 443 -297 494 -260 q 289 -333 392 -333 q 249 -331 268 -333 q 219 -326 231 -329 l 219 -250 q 253 -255 232 -253 q 293 -257 274 -257 q 369 -244 343 -257 q 396 -196 396 -231 q 359 -143 396 -160 q 269 -119 322 -126 l 329 0 l 410 0 l 374 -74 q 435 -95 407 -81 q 478 -133 463 -110 q 494 -193 494 -157 z "},"Ș":{"ha":763,"x_min":71,"x_max":697,"o":"m 697 265 q 654 115 697 176 q 531 19 611 53 q 343 -14 451 -14 q 237 -8 288 -14 q 144 8 186 -3 q 71 33 103 18 l 71 153 q 195 113 121 131 q 349 94 269 94 q 472 114 422 94 q 547 169 522 133 q 572 254 572 206 q 551 336 572 303 q 480 398 531 369 q 339 458 429 426 q 227 509 275 482 q 147 571 179 536 q 99 650 115 606 q 83 753 83 694 q 124 888 83 832 q 235 975 164 944 q 400 1006 307 1006 q 550 990 482 1006 q 674 950 618 975 l 635 843 q 523 881 583 865 q 397 896 463 896 q 293 878 335 896 q 231 827 251 860 q 210 751 210 794 q 231 668 210 701 q 299 608 251 635 q 426 551 346 582 q 574 483 514 519 q 666 394 635 446 q 697 265 697 343 m 446 -97 q 423 -160 440 -122 q 383 -237 406 -199 q 335 -307 360 -276 l 268 -307 l 268 -290 q 291 -230 279 -267 q 313 -153 303 -193 q 325 -85 322 -114 l 446 -85 l 446 -97 z "},"ẞ":{"ha":985,"x_min":125,"x_max":936,"o":"m 500 1006 q 658 978 592 1006 q 767 901 724 951 q 832 781 810 850 l 635 571 q 790 534 722 568 q 897 438 858 500 q 936 286 936 375 q 900 131 936 199 q 788 25 864 64 q 590 -14 713 -14 q 453 -2 518 -14 q 332 40 389 10 l 332 154 q 456 106 389 124 q 585 89 524 89 q 754 141 703 89 q 806 288 806 193 q 746 423 806 376 q 567 469 686 469 l 481 469 l 481 560 l 697 788 q 653 848 681 824 q 586 885 625 872 q 493 897 547 897 q 354 865 408 897 q 274 774 300 832 q 249 642 249 717 l 249 0 l 125 0 l 125 642 q 165 827 125 744 q 289 958 206 910 q 500 1006 372 1006 z "},"T":{"ha":772,"x_min":14,"x_max":757,"o":"m 449 0 l 324 0 l 324 882 l 14 882 l 14 992 l 757 992 l 757 882 l 449 882 l 449 0 z "},"Ť":{"ha":772,"x_min":14,"x_max":757,"o":"m 449 0 l 324 0 l 324 882 l 14 882 l 14 992 l 757 992 l 757 882 l 449 882 l 449 0 m 322 1089 q 274 1158 304 1121 q 210 1231 243 1194 q 151 1293 176 1267 l 151 1311 l 235 1311 q 310 1254 271 1288 q 383 1183 349 1221 q 460 1254 421 1221 q 535 1311 499 1288 l 621 1311 l 621 1293 q 560 1231 594 1267 q 495 1158 526 1194 q 447 1089 464 1121 l 322 1089 z "},"Ț":{"ha":772,"x_min":14,"x_max":757,"o":"m 449 0 l 324 0 l 324 882 l 14 882 l 14 992 l 757 992 l 757 882 l 449 882 l 449 0 m 475 -97 q 452 -160 469 -122 q 412 -237 435 -199 q 364 -307 389 -276 l 297 -307 l 297 -290 q 320 -230 308 -267 q 342 -153 332 -193 q 354 -85 351 -114 l 475 -85 l 475 -97 z "},"U":{"ha":1015,"x_min":125,"x_max":889,"o":"m 889 350 q 847 165 889 247 q 720 34 806 82 q 503 -14 635 -14 q 222 87 318 -14 q 125 353 125 188 l 125 992 l 250 992 l 250 349 q 315 161 250 228 q 510 94 379 94 q 705 166 644 94 q 765 350 765 238 l 765 992 l 889 992 l 889 350 z "},"Ú":{"ha":1015,"x_min":125,"x_max":889,"o":"m 889 350 q 847 165 889 247 q 720 34 806 82 q 503 -14 635 -14 q 222 87 318 -14 q 125 353 125 188 l 125 992 l 250 992 l 250 349 q 315 161 250 228 q 510 94 379 94 q 705 166 644 94 q 765 350 765 238 l 765 992 l 889 992 l 889 350 m 714 1297 q 678 1250 701 1278 q 626 1192 654 1222 q 569 1135 597 1163 q 515 1089 540 1108 l 435 1089 l 435 1106 q 480 1168 456 1132 q 528 1242 504 1204 q 567 1311 551 1281 l 714 1311 l 714 1297 z "},"Ŭ":{"ha":1015,"x_min":125,"x_max":889,"o":"m 889 350 q 847 165 889 247 q 720 34 806 82 q 503 -14 635 -14 q 222 87 318 -14 q 125 353 125 188 l 125 992 l 250 992 l 250 349 q 315 161 250 228 q 510 94 379 94 q 705 166 644 94 q 765 350 765 238 l 765 992 l 889 992 l 889 350 m 724 1275 q 660 1140 717 1192 q 504 1089 604 1089 q 349 1140 401 1089 q 292 1275 297 1190 l 367 1275 q 388 1219 371 1238 q 435 1194 406 1200 q 507 1188 465 1188 q 573 1194 543 1188 q 623 1220 603 1201 q 647 1275 643 1239 l 724 1275 z "},"Û":{"ha":1015,"x_min":125,"x_max":889,"o":"m 889 350 q 847 165 889 247 q 720 34 806 82 q 503 -14 635 -14 q 222 87 318 -14 q 125 353 125 188 l 125 992 l 250 992 l 250 349 q 315 161 250 228 q 510 94 379 94 q 705 166 644 94 q 765 350 765 238 l 765 992 l 889 992 l 889 350 m 569 1311 q 617 1242 586 1281 q 683 1167 649 1204 q 743 1104 717 1131 l 743 1089 l 657 1089 q 582 1144 621 1111 q 506 1214 543 1176 q 431 1144 468 1176 q 357 1089 393 1113 l 274 1089 l 274 1104 q 333 1168 300 1132 q 396 1242 365 1204 q 444 1311 426 1281 l 569 1311 z "},"Ü":{"ha":1015,"x_min":125,"x_max":889,"o":"m 889 350 q 847 165 889 247 q 720 34 806 82 q 503 -14 635 -14 q 222 87 318 -14 q 125 353 125 188 l 125 992 l 250 992 l 250 349 q 315 161 250 228 q 510 94 379 94 q 705 166 644 94 q 765 350 765 238 l 765 992 l 889 992 l 889 350 m 314 1193 q 333 1245 314 1229 q 379 1261 353 1261 q 425 1245 406 1261 q 444 1193 444 1229 q 425 1141 444 1158 q 379 1124 406 1124 q 333 1141 353 1124 q 314 1193 314 1158 m 575 1193 q 594 1245 575 1229 q 639 1261 613 1261 q 685 1245 665 1261 q 704 1193 704 1229 q 685 1141 704 1158 q 639 1124 665 1124 q 594 1141 613 1124 q 575 1193 575 1158 z "},"Ù":{"ha":1015,"x_min":125,"x_max":889,"o":"m 889 350 q 847 165 889 247 q 720 34 806 82 q 503 -14 635 -14 q 222 87 318 -14 q 125 353 125 188 l 125 992 l 250 992 l 250 349 q 315 161 250 228 q 510 94 379 94 q 705 166 644 94 q 765 350 765 238 l 765 992 l 889 992 l 889 350 m 474 1311 q 512 1242 489 1281 q 560 1168 535 1204 q 607 1106 586 1132 l 607 1089 l 525 1089 q 472 1135 501 1108 q 415 1192 443 1163 q 363 1250 386 1222 q 328 1297 340 1278 l 328 1311 l 474 1311 z "},"Ű":{"ha":1015,"x_min":125,"x_max":889,"o":"m 889 350 q 847 165 889 247 q 720 34 806 82 q 503 -14 635 -14 q 222 87 318 -14 q 125 353 125 188 l 125 992 l 250 992 l 250 349 q 315 161 250 228 q 510 94 379 94 q 705 166 644 94 q 765 350 765 238 l 765 992 l 889 992 l 889 350 m 757 1297 q 725 1251 746 1279 q 677 1193 704 1224 q 623 1135 650 1163 q 572 1089 596 1108 l 503 1089 l 503 1106 q 544 1168 522 1132 q 588 1242 567 1204 q 624 1311 610 1281 l 757 1311 l 757 1297 m 513 1297 q 481 1251 501 1279 q 433 1193 460 1224 q 378 1135 406 1163 q 328 1089 351 1108 l 258 1089 l 258 1106 q 300 1168 278 1132 q 343 1242 322 1204 q 379 1311 364 1281 l 513 1311 l 513 1297 z "},"Ū":{"ha":1015,"x_min":125,"x_max":889,"o":"m 889 350 q 847 165 889 247 q 720 34 806 82 q 503 -14 635 -14 q 222 87 318 -14 q 125 353 125 188 l 125 992 l 250 992 l 250 349 q 315 161 250 228 q 510 94 379 94 q 705 166 644 94 q 765 350 765 238 l 765 992 l 889 992 l 889 350 m 714 1188 l 714 1089 l 301 1089 l 301 1188 l 714 1188 z "},"Ų":{"ha":1015,"x_min":125,"x_max":889,"o":"m 647 -149 q 664 -206 647 -189 q 710 -224 681 -224 q 749 -220 733 -224 q 776 -215 765 -217 l 776 -293 q 738 -302 757 -299 q 690 -306 718 -306 q 582 -269 617 -306 q 547 -162 547 -233 q 569 -76 547 -118 q 624 1 592 -33 q 683 56 656 36 l 771 71 q 701 -14 729 24 q 660 -83 674 -51 q 647 -149 647 -115 m 889 350 q 847 165 889 247 q 720 34 806 82 q 503 -14 635 -14 q 222 87 318 -14 q 125 353 125 188 l 125 992 l 250 992 l 250 349 q 315 161 250 228 q 510 94 379 94 q 705 166 644 94 q 765 350 765 238 l 765 992 l 889 992 l 889 350 z "},"Ů":{"ha":1015,"x_min":125,"x_max":889,"o":"m 889 350 q 847 165 889 247 q 720 34 806 82 q 503 -14 635 -14 q 222 87 318 -14 q 125 353 125 188 l 125 992 l 250 992 l 250 349 q 315 161 250 228 q 510 94 379 94 q 705 166 644 94 q 765 350 765 238 l 765 992 l 889 992 l 889 350 m 507 1089 q 397 1128 439 1089 q 356 1236 356 1167 q 397 1344 356 1306 q 507 1382 439 1382 q 617 1344 572 1382 q 661 1238 661 1306 q 617 1128 661 1167 q 507 1089 574 1089 m 507 1158 q 563 1179 542 1158 q 585 1236 585 1200 q 563 1293 585 1272 q 507 1314 540 1314 q 451 1293 474 1314 q 429 1236 429 1272 q 449 1179 429 1200 q 507 1158 469 1158 z "},"V":{"ha":833,"x_min":0,"x_max":833,"o":"m 833 992 l 479 0 l 354 0 l 0 992 l 131 992 l 354 356 q 381 278 369 315 q 401 206 392 240 q 417 139 410 172 q 433 207 424 172 q 453 279 442 242 q 479 358 465 317 l 701 992 l 833 992 z "},"W":{"ha":1292,"x_min":17,"x_max":1274,"o":"m 1274 992 l 1010 0 l 883 0 l 690 650 q 674 710 682 679 q 658 768 665 740 q 647 816 651 796 q 640 846 642 836 q 635 816 639 836 q 625 768 632 796 q 610 709 618 740 q 593 646 603 678 l 406 0 l 279 0 l 17 992 l 147 992 l 301 386 q 317 323 310 354 q 330 262 324 292 q 340 204 336 232 q 349 150 344 176 q 358 207 353 178 q 369 267 363 236 q 385 331 376 299 q 401 393 393 363 l 576 992 l 706 992 l 888 389 q 906 324 897 357 q 921 261 914 292 q 933 202 928 231 q 942 150 938 174 q 953 223 946 185 q 969 303 960 261 q 990 388 979 344 l 1143 992 l 1274 992 z "},"Ẃ":{"ha":1292,"x_min":17,"x_max":1274,"o":"m 1274 992 l 1010 0 l 883 0 l 690 650 q 674 710 682 679 q 658 768 665 740 q 647 816 651 796 q 640 846 642 836 q 635 816 639 836 q 625 768 632 796 q 610 709 618 740 q 593 646 603 678 l 406 0 l 279 0 l 17 992 l 147 992 l 301 386 q 317 323 310 354 q 330 262 324 292 q 340 204 336 232 q 349 150 344 176 q 358 207 353 178 q 369 267 363 236 q 385 331 376 299 q 401 393 393 363 l 576 992 l 706 992 l 888 389 q 906 324 897 357 q 921 261 914 292 q 933 202 928 231 q 942 150 938 174 q 953 223 946 185 q 969 303 960 261 q 990 388 979 344 l 1143 992 l 1274 992 m 851 1297 q 815 1250 839 1278 q 763 1192 792 1222 q 706 1135 735 1163 q 653 1089 678 1108 l 572 1089 l 572 1106 q 617 1168 593 1132 q 665 1242 642 1204 q 704 1311 689 1281 l 851 1311 l 851 1297 z "},"Ŵ":{"ha":1292,"x_min":17,"x_max":1274,"o":"m 1274 992 l 1010 0 l 883 0 l 690 650 q 674 710 682 679 q 658 768 665 740 q 647 816 651 796 q 640 846 642 836 q 635 816 639 836 q 625 768 632 796 q 610 709 618 740 q 593 646 603 678 l 406 0 l 279 0 l 17 992 l 147 992 l 301 386 q 317 323 310 354 q 330 262 324 292 q 340 204 336 232 q 349 150 344 176 q 358 207 353 178 q 369 267 363 236 q 385 331 376 299 q 401 393 393 363 l 576 992 l 706 992 l 888 389 q 906 324 897 357 q 921 261 914 292 q 933 202 928 231 q 942 150 938 174 q 953 223 946 185 q 969 303 960 261 q 990 388 979 344 l 1143 992 l 1274 992 m 707 1311 q 755 1242 724 1281 q 820 1167 786 1204 q 881 1104 854 1131 l 881 1089 l 794 1089 q 719 1144 758 1111 q 643 1214 681 1176 q 568 1144 606 1176 q 494 1089 531 1113 l 411 1089 l 411 1104 q 470 1168 438 1132 q 533 1242 503 1204 q 582 1311 564 1281 l 707 1311 z "},"Ẅ":{"ha":1292,"x_min":17,"x_max":1274,"o":"m 1274 992 l 1010 0 l 883 0 l 690 650 q 674 710 682 679 q 658 768 665 740 q 647 816 651 796 q 640 846 642 836 q 635 816 639 836 q 625 768 632 796 q 610 709 618 740 q 593 646 603 678 l 406 0 l 279 0 l 17 992 l 147 992 l 301 386 q 317 323 310 354 q 330 262 324 292 q 340 204 336 232 q 349 150 344 176 q 358 207 353 178 q 369 267 363 236 q 385 331 376 299 q 401 393 393 363 l 576 992 l 706 992 l 888 389 q 906 324 897 357 q 921 261 914 292 q 933 202 928 231 q 942 150 938 174 q 953 223 946 185 q 969 303 960 261 q 990 388 979 344 l 1143 992 l 1274 992 m 451 1193 q 471 1245 451 1229 q 517 1261 490 1261 q 563 1245 543 1261 q 582 1193 582 1229 q 563 1141 582 1158 q 517 1124 543 1124 q 471 1141 490 1124 q 451 1193 451 1158 m 713 1193 q 731 1245 713 1229 q 776 1261 750 1261 q 822 1245 803 1261 q 842 1193 842 1229 q 822 1141 842 1158 q 776 1124 803 1124 q 731 1141 750 1124 q 713 1193 713 1158 z "},"Ẁ":{"ha":1292,"x_min":17,"x_max":1274,"o":"m 1274 992 l 1010 0 l 883 0 l 690 650 q 674 710 682 679 q 658 768 665 740 q 647 816 651 796 q 640 846 642 836 q 635 816 639 836 q 625 768 632 796 q 610 709 618 740 q 593 646 603 678 l 406 0 l 279 0 l 17 992 l 147 992 l 301 386 q 317 323 310 354 q 330 262 324 292 q 340 204 336 232 q 349 150 344 176 q 358 207 353 178 q 369 267 363 236 q 385 331 376 299 q 401 393 393 363 l 576 992 l 706 992 l 888 389 q 906 324 897 357 q 921 261 914 292 q 933 202 928 231 q 942 150 938 174 q 953 223 946 185 q 969 303 960 261 q 990 388 979 344 l 1143 992 l 1274 992 m 611 1311 q 649 1242 626 1281 q 698 1168 672 1204 q 744 1106 724 1132 l 744 1089 l 663 1089 q 610 1135 639 1108 q 552 1192 581 1163 q 501 1250 524 1222 q 465 1297 478 1278 l 465 1311 l 611 1311 z "},"X":{"ha":814,"x_min":6,"x_max":808,"o":"m 808 0 l 667 0 l 404 431 l 138 0 l 6 0 l 335 517 l 26 992 l 165 992 l 408 603 l 653 992 l 785 992 l 478 519 l 808 0 z "},"Y":{"ha":786,"x_min":0,"x_max":786,"o":"m 393 504 l 651 992 l 786 992 l 456 385 l 456 0 l 331 0 l 331 379 l 0 992 l 136 992 l 393 504 z "},"Ý":{"ha":786,"x_min":0,"x_max":786,"o":"m 393 504 l 651 992 l 786 992 l 456 385 l 456 0 l 331 0 l 331 379 l 0 992 l 136 992 l 393 504 m 599 1297 q 563 1250 586 1278 q 510 1192 539 1222 q 453 1135 482 1163 q 400 1089 425 1108 l 319 1089 l 319 1106 q 365 1168 340 1132 q 413 1242 389 1204 q 451 1311 436 1281 l 599 1311 l 599 1297 z "},"Ŷ":{"ha":786,"x_min":0,"x_max":786,"o":"m 393 504 l 651 992 l 786 992 l 456 385 l 456 0 l 331 0 l 331 379 l 0 992 l 136 992 l 393 504 m 454 1311 q 502 1242 471 1281 q 567 1167 533 1204 q 628 1104 601 1131 l 628 1089 l 542 1089 q 467 1144 506 1111 q 390 1214 428 1176 q 315 1144 353 1176 q 242 1089 278 1113 l 158 1089 l 158 1104 q 217 1168 185 1132 q 281 1242 250 1204 q 329 1311 311 1281 l 454 1311 z "},"Ÿ":{"ha":786,"x_min":0,"x_max":786,"o":"m 393 504 l 651 992 l 786 992 l 456 385 l 456 0 l 331 0 l 331 379 l 0 992 l 136 992 l 393 504 m 199 1193 q 218 1245 199 1229 q 264 1261 238 1261 q 310 1245 290 1261 q 329 1193 329 1229 q 310 1141 329 1158 q 264 1124 290 1124 q 218 1141 238 1124 q 199 1193 199 1158 m 460 1193 q 478 1245 460 1229 q 524 1261 497 1261 q 569 1245 550 1261 q 589 1193 589 1229 q 569 1141 589 1158 q 524 1124 550 1124 q 478 1141 497 1124 q 460 1193 460 1158 z "},"Ỳ":{"ha":786,"x_min":0,"x_max":786,"o":"m 393 504 l 651 992 l 786 992 l 456 385 l 456 0 l 331 0 l 331 379 l 0 992 l 136 992 l 393 504 m 358 1311 q 397 1242 374 1281 q 445 1168 419 1204 q 492 1106 471 1132 l 492 1089 l 410 1089 q 357 1135 386 1108 q 299 1192 328 1163 q 248 1250 271 1222 q 213 1297 225 1278 l 213 1311 l 358 1311 z "},"Z":{"ha":794,"x_min":53,"x_max":740,"o":"m 740 0 l 53 0 l 53 94 l 575 881 l 69 881 l 69 992 l 726 992 l 726 897 l 204 111 l 740 111 l 740 0 z "},"Ź":{"ha":794,"x_min":53,"x_max":740,"o":"m 740 0 l 53 0 l 53 94 l 575 881 l 69 881 l 69 992 l 726 992 l 726 897 l 204 111 l 740 111 l 740 0 m 608 1297 q 572 1250 596 1278 q 520 1192 549 1222 q 463 1135 492 1163 q 410 1089 435 1108 l 329 1089 l 329 1106 q 374 1168 350 1132 q 422 1242 399 1204 q 461 1311 446 1281 l 608 1311 l 608 1297 z "},"Ž":{"ha":794,"x_min":53,"x_max":740,"o":"m 740 0 l 53 0 l 53 94 l 575 881 l 69 881 l 69 992 l 726 992 l 726 897 l 204 111 l 740 111 l 740 0 m 339 1089 q 290 1158 321 1121 q 226 1231 260 1194 q 168 1293 193 1267 l 168 1311 l 251 1311 q 326 1254 288 1288 q 400 1183 365 1221 q 476 1254 438 1221 q 551 1311 515 1288 l 638 1311 l 638 1293 q 577 1231 611 1267 q 512 1158 543 1194 q 464 1089 481 1121 l 339 1089 z "},"Ż":{"ha":794,"x_min":53,"x_max":740,"o":"m 740 0 l 53 0 l 53 94 l 575 881 l 69 881 l 69 992 l 726 992 l 726 897 l 204 111 l 740 111 l 740 0 m 404 1271 q 453 1252 432 1271 q 475 1193 475 1233 q 453 1135 475 1154 q 404 1115 432 1115 q 353 1135 374 1115 q 332 1193 332 1154 q 353 1252 332 1233 q 404 1271 374 1271 z "},"a":{"ha":779,"x_min":64,"x_max":667,"o":"m 400 757 q 601 697 536 757 q 667 507 667 638 l 667 0 l 578 0 l 554 106 l 549 106 q 483 38 517 65 q 405 -1 449 11 q 299 -14 361 -14 q 178 10 232 -14 q 94 83 125 33 q 64 207 64 132 q 151 378 64 318 q 421 444 239 439 l 547 449 l 547 493 q 507 622 547 586 q 393 658 467 658 q 282 641 335 658 q 183 601 229 624 l 146 693 q 261 738 194 719 q 400 757 328 757 m 436 360 q 244 315 297 354 q 190 206 190 276 q 228 114 190 143 q 326 85 267 85 q 483 137 421 85 q 546 297 546 189 l 546 364 l 436 360 z "},"á":{"ha":779,"x_min":64,"x_max":667,"o":"m 400 757 q 601 697 536 757 q 667 507 667 638 l 667 0 l 578 0 l 554 106 l 549 106 q 483 38 517 65 q 405 -1 449 11 q 299 -14 361 -14 q 178 10 232 -14 q 94 83 125 33 q 64 207 64 132 q 151 378 64 318 q 421 444 239 439 l 547 449 l 547 493 q 507 622 547 586 q 393 658 467 658 q 282 641 335 658 q 183 601 229 624 l 146 693 q 261 738 194 719 q 400 757 328 757 m 436 360 q 244 315 297 354 q 190 206 190 276 q 228 114 190 143 q 326 85 267 85 q 483 137 421 85 q 546 297 546 189 l 546 364 l 436 360 m 596 1050 q 560 1003 583 1031 q 508 945 536 975 q 451 888 479 915 q 397 842 422 861 l 317 842 l 317 858 q 362 921 338 885 q 410 995 386 957 q 449 1064 433 1033 l 596 1064 l 596 1050 z "},"ă":{"ha":779,"x_min":64,"x_max":667,"o":"m 400 757 q 601 697 536 757 q 667 507 667 638 l 667 0 l 578 0 l 554 106 l 549 106 q 483 38 517 65 q 405 -1 449 11 q 299 -14 361 -14 q 178 10 232 -14 q 94 83 125 33 q 64 207 64 132 q 151 378 64 318 q 421 444 239 439 l 547 449 l 547 493 q 507 622 547 586 q 393 658 467 658 q 282 641 335 658 q 183 601 229 624 l 146 693 q 261 738 194 719 q 400 757 328 757 m 436 360 q 244 315 297 354 q 190 206 190 276 q 228 114 190 143 q 326 85 267 85 q 483 137 421 85 q 546 297 546 189 l 546 364 l 436 360 m 606 1028 q 542 893 599 944 q 386 842 486 842 q 231 892 283 842 q 174 1028 179 943 l 249 1028 q 270 972 253 990 q 317 947 288 953 q 389 940 347 940 q 455 947 425 940 q 505 973 485 954 q 529 1028 525 992 l 606 1028 z "},"ǎ":{"ha":779,"x_min":64,"x_max":667,"o":"m 400 757 q 601 697 536 757 q 667 507 667 638 l 667 0 l 578 0 l 554 106 l 549 106 q 483 38 517 65 q 405 -1 449 11 q 299 -14 361 -14 q 178 10 232 -14 q 94 83 125 33 q 64 207 64 132 q 151 378 64 318 q 421 444 239 439 l 547 449 l 547 493 q 507 622 547 586 q 393 658 467 658 q 282 641 335 658 q 183 601 229 624 l 146 693 q 261 738 194 719 q 400 757 328 757 m 436 360 q 244 315 297 354 q 190 206 190 276 q 228 114 190 143 q 326 85 267 85 q 483 137 421 85 q 546 297 546 189 l 546 364 l 436 360 m 326 842 q 278 910 308 874 q 214 983 247 947 q 156 1046 181 1019 l 156 1064 l 239 1064 q 314 1007 275 1040 q 388 936 353 974 q 464 1007 425 974 q 539 1064 503 1040 l 625 1064 l 625 1046 q 565 983 599 1019 q 499 910 531 947 q 451 842 468 874 l 326 842 z "},"â":{"ha":779,"x_min":64,"x_max":667,"o":"m 400 757 q 601 697 536 757 q 667 507 667 638 l 667 0 l 578 0 l 554 106 l 549 106 q 483 38 517 65 q 405 -1 449 11 q 299 -14 361 -14 q 178 10 232 -14 q 94 83 125 33 q 64 207 64 132 q 151 378 64 318 q 421 444 239 439 l 547 449 l 547 493 q 507 622 547 586 q 393 658 467 658 q 282 641 335 658 q 183 601 229 624 l 146 693 q 261 738 194 719 q 400 757 328 757 m 436 360 q 244 315 297 354 q 190 206 190 276 q 228 114 190 143 q 326 85 267 85 q 483 137 421 85 q 546 297 546 189 l 546 364 l 436 360 m 451 1064 q 499 995 468 1033 q 565 920 531 957 q 625 857 599 883 l 625 842 l 539 842 q 464 897 503 864 q 388 967 425 929 q 313 897 350 929 q 239 842 275 865 l 156 842 l 156 857 q 215 921 182 885 q 278 995 247 957 q 326 1064 308 1033 l 451 1064 z "},"ä":{"ha":779,"x_min":64,"x_max":667,"o":"m 400 757 q 601 697 536 757 q 667 507 667 638 l 667 0 l 578 0 l 554 106 l 549 106 q 483 38 517 65 q 405 -1 449 11 q 299 -14 361 -14 q 178 10 232 -14 q 94 83 125 33 q 64 207 64 132 q 151 378 64 318 q 421 444 239 439 l 547 449 l 547 493 q 507 622 547 586 q 393 658 467 658 q 282 641 335 658 q 183 601 229 624 l 146 693 q 261 738 194 719 q 400 757 328 757 m 436 360 q 244 315 297 354 q 190 206 190 276 q 228 114 190 143 q 326 85 267 85 q 483 137 421 85 q 546 297 546 189 l 546 364 l 436 360 m 196 946 q 215 998 196 982 q 261 1014 235 1014 q 307 998 288 1014 q 326 946 326 982 q 307 894 326 911 q 261 876 288 876 q 215 894 235 876 q 196 946 196 911 m 457 946 q 476 998 457 982 q 521 1014 494 1014 q 567 998 547 1014 q 586 946 586 982 q 567 894 586 911 q 521 876 547 876 q 476 894 494 876 q 457 946 457 911 z "},"à":{"ha":779,"x_min":64,"x_max":667,"o":"m 400 757 q 601 697 536 757 q 667 507 667 638 l 667 0 l 578 0 l 554 106 l 549 106 q 483 38 517 65 q 405 -1 449 11 q 299 -14 361 -14 q 178 10 232 -14 q 94 83 125 33 q 64 207 64 132 q 151 378 64 318 q 421 444 239 439 l 547 449 l 547 493 q 507 622 547 586 q 393 658 467 658 q 282 641 335 658 q 183 601 229 624 l 146 693 q 261 738 194 719 q 400 757 328 757 m 436 360 q 244 315 297 354 q 190 206 190 276 q 228 114 190 143 q 326 85 267 85 q 483 137 421 85 q 546 297 546 189 l 546 364 l 436 360 m 356 1064 q 394 995 371 1033 q 442 921 417 957 q 489 858 468 885 l 489 842 l 407 842 q 354 888 383 861 q 297 945 325 915 q 245 1003 268 975 q 210 1050 222 1031 l 210 1064 l 356 1064 z "},"ā":{"ha":779,"x_min":64,"x_max":667,"o":"m 400 757 q 601 697 536 757 q 667 507 667 638 l 667 0 l 578 0 l 554 106 l 549 106 q 483 38 517 65 q 405 -1 449 11 q 299 -14 361 -14 q 178 10 232 -14 q 94 83 125 33 q 64 207 64 132 q 151 378 64 318 q 421 444 239 439 l 547 449 l 547 493 q 507 622 547 586 q 393 658 467 658 q 282 641 335 658 q 183 601 229 624 l 146 693 q 261 738 194 719 q 400 757 328 757 m 436 360 q 244 315 297 354 q 190 206 190 276 q 228 114 190 143 q 326 85 267 85 q 483 137 421 85 q 546 297 546 189 l 546 364 l 436 360 m 596 940 l 596 842 l 183 842 l 183 940 l 596 940 z "},"ą":{"ha":779,"x_min":64,"x_max":701,"o":"m 400 757 q 601 697 536 757 q 667 507 667 638 l 667 0 l 578 0 l 554 106 l 549 106 q 483 38 517 65 q 405 -1 449 11 q 299 -14 361 -14 q 178 10 232 -14 q 94 83 125 33 q 64 207 64 132 q 151 378 64 318 q 421 444 239 439 l 547 449 l 547 493 q 507 622 547 586 q 393 658 467 658 q 282 641 335 658 q 183 601 229 624 l 146 693 q 261 738 194 719 q 400 757 328 757 m 436 360 q 244 315 297 354 q 190 206 190 276 q 228 114 190 143 q 326 85 267 85 q 483 137 421 85 q 546 297 546 189 l 546 364 l 436 360 m 572 -161 q 589 -208 572 -192 q 635 -224 606 -224 q 674 -220 658 -224 q 701 -215 690 -217 l 701 -293 q 663 -302 682 -299 q 615 -306 643 -306 q 507 -271 542 -306 q 472 -175 472 -236 q 492 -97 472 -135 q 542 -29 513 -60 q 600 21 572 1 l 667 0 q 596 -81 619 -44 q 572 -161 572 -118 z "},"å":{"ha":779,"x_min":64,"x_max":667,"o":"m 400 757 q 601 697 536 757 q 667 507 667 638 l 667 0 l 578 0 l 554 106 l 549 106 q 483 38 517 65 q 405 -1 449 11 q 299 -14 361 -14 q 178 10 232 -14 q 94 83 125 33 q 64 207 64 132 q 151 378 64 318 q 421 444 239 439 l 547 449 l 547 493 q 507 622 547 586 q 393 658 467 658 q 282 641 335 658 q 183 601 229 624 l 146 693 q 261 738 194 719 q 400 757 328 757 m 436 360 q 244 315 297 354 q 190 206 190 276 q 228 114 190 143 q 326 85 267 85 q 483 137 421 85 q 546 297 546 189 l 546 364 l 436 360 m 389 842 q 279 881 321 842 q 238 989 238 919 q 279 1097 238 1058 q 389 1135 321 1135 q 499 1097 454 1135 q 543 990 543 1058 q 499 881 543 919 q 389 842 456 842 m 389 911 q 445 932 424 911 q 467 989 467 953 q 444 1046 467 1025 q 389 1067 422 1067 q 333 1046 356 1067 q 311 989 311 1025 q 331 932 311 953 q 389 911 351 911 z "},"ã":{"ha":779,"x_min":64,"x_max":667,"o":"m 400 757 q 601 697 536 757 q 667 507 667 638 l 667 0 l 578 0 l 554 106 l 549 106 q 483 38 517 65 q 405 -1 449 11 q 299 -14 361 -14 q 178 10 232 -14 q 94 83 125 33 q 64 207 64 132 q 151 378 64 318 q 421 444 239 439 l 547 449 l 547 493 q 507 622 547 586 q 393 658 467 658 q 282 641 335 658 q 183 601 229 624 l 146 693 q 261 738 194 719 q 400 757 328 757 m 436 360 q 244 315 297 354 q 190 206 190 276 q 228 114 190 143 q 326 85 267 85 q 483 137 421 85 q 546 297 546 189 l 546 364 l 436 360 m 136 842 q 161 937 142 897 q 213 998 181 976 q 289 1019 246 1019 q 348 1008 319 1019 q 403 980 376 996 q 453 952 429 964 q 500 940 478 940 q 549 960 532 940 q 576 1021 567 981 l 646 1021 q 599 892 638 940 q 494 843 560 843 q 438 855 465 843 q 383 883 410 867 q 331 910 356 899 q 283 922 307 922 q 233 902 250 922 q 207 842 217 882 l 136 842 z "},"æ":{"ha":1200,"x_min":64,"x_max":1129,"o":"m 838 758 q 993 717 928 758 q 1094 600 1058 675 q 1129 425 1129 525 l 1129 350 l 653 350 q 710 153 656 217 q 868 90 765 90 q 990 103 938 90 q 1096 142 1043 117 l 1096 35 q 987 -2 1040 10 q 864 -14 933 -14 q 697 26 768 -14 q 582 143 625 65 q 512 60 550 96 q 423 6 474 25 q 300 -14 372 -14 q 180 10 233 -14 q 95 83 126 33 q 64 207 64 132 q 101 333 64 282 q 213 413 138 385 q 403 444 289 442 l 528 449 l 528 496 q 485 622 528 586 q 372 658 443 658 q 263 642 317 658 q 164 601 210 625 l 126 693 q 244 739 175 721 q 382 757 314 757 q 524 728 468 757 q 610 638 581 700 q 704 726 646 694 q 838 758 763 758 m 421 360 q 240 315 290 354 q 190 206 190 276 q 226 114 190 143 q 319 85 261 85 q 466 137 407 85 q 525 297 525 189 l 525 364 l 421 360 m 836 658 q 709 603 756 658 q 656 446 663 549 l 1000 446 q 960 600 1000 542 q 836 658 921 658 z "},"b":{"ha":854,"x_min":118,"x_max":778,"o":"m 240 799 q 238 710 240 751 q 233 646 236 669 l 240 646 q 328 725 272 693 q 471 757 383 757 q 694 660 610 757 q 778 372 778 564 q 740 158 778 244 q 632 29 701 72 q 471 -14 563 -14 q 328 18 383 -14 q 240 94 272 50 l 231 94 l 206 0 l 118 0 l 118 1056 l 240 1056 l 240 799 m 450 656 q 325 626 371 656 q 260 534 279 596 q 240 376 240 472 l 240 371 q 285 160 240 233 q 453 88 331 88 q 602 161 553 88 q 651 374 651 235 q 602 585 651 514 q 450 656 553 656 z "},"c":{"ha":667,"x_min":76,"x_max":621,"o":"m 417 -14 q 241 26 318 -14 q 120 151 164 67 q 76 368 76 236 q 122 592 76 506 q 247 718 168 678 q 425 758 325 758 q 535 747 482 758 q 621 718 588 735 l 583 617 q 506 640 550 629 q 422 651 461 651 q 299 619 347 651 q 226 525 250 588 q 203 369 203 463 q 226 218 203 281 q 297 124 250 156 q 415 92 344 92 q 523 104 476 92 q 608 135 569 117 l 608 26 q 526 -3 571 7 q 417 -14 481 -14 z "},"ć":{"ha":667,"x_min":76,"x_max":621,"o":"m 417 -14 q 241 26 318 -14 q 120 151 164 67 q 76 368 76 236 q 122 592 76 506 q 247 718 168 678 q 425 758 325 758 q 535 747 482 758 q 621 718 588 735 l 583 617 q 506 640 550 629 q 422 651 461 651 q 299 619 347 651 q 226 525 250 588 q 203 369 203 463 q 226 218 203 281 q 297 124 250 156 q 415 92 344 92 q 523 104 476 92 q 608 135 569 117 l 608 26 q 526 -3 571 7 q 417 -14 481 -14 m 600 1050 q 564 1003 588 1031 q 512 945 540 975 q 455 888 483 915 q 401 842 426 861 l 321 842 l 321 858 q 366 921 342 885 q 414 995 390 957 q 453 1064 438 1033 l 600 1064 l 600 1050 z "},"č":{"ha":667,"x_min":76,"x_max":629,"o":"m 417 -14 q 241 26 318 -14 q 120 151 164 67 q 76 368 76 236 q 122 592 76 506 q 247 718 168 678 q 425 758 325 758 q 535 747 482 758 q 621 718 588 735 l 583 617 q 506 640 550 629 q 422 651 461 651 q 299 619 347 651 q 226 525 250 588 q 203 369 203 463 q 226 218 203 281 q 297 124 250 156 q 415 92 344 92 q 523 104 476 92 q 608 135 569 117 l 608 26 q 526 -3 571 7 q 417 -14 481 -14 m 331 842 q 282 910 313 874 q 218 983 251 947 q 160 1046 185 1019 l 160 1064 l 243 1064 q 318 1007 279 1040 q 392 936 357 974 q 468 1007 429 974 q 543 1064 507 1040 l 629 1064 l 629 1046 q 569 983 603 1019 q 503 910 535 947 q 456 842 472 874 l 331 842 z "},"ç":{"ha":667,"x_min":76,"x_max":621,"o":"m 417 -14 q 241 26 318 -14 q 120 151 164 67 q 76 368 76 236 q 122 592 76 506 q 247 718 168 678 q 425 758 325 758 q 535 747 482 758 q 621 718 588 735 l 583 617 q 506 640 550 629 q 422 651 461 651 q 299 619 347 651 q 226 525 250 588 q 203 369 203 463 q 226 218 203 281 q 297 124 250 156 q 415 92 344 92 q 523 104 476 92 q 608 135 569 117 l 608 26 q 526 -3 571 7 q 417 -14 481 -14 m 531 -193 q 479 -297 531 -260 q 325 -333 428 -333 q 285 -331 304 -333 q 256 -326 267 -329 l 256 -250 q 289 -255 268 -253 q 329 -257 310 -257 q 406 -244 379 -257 q 432 -196 432 -231 q 395 -143 432 -160 q 306 -119 358 -126 l 365 0 l 446 0 l 410 -74 q 471 -95 443 -81 q 515 -133 499 -110 q 531 -193 531 -157 z "},"ċ":{"ha":667,"x_min":76,"x_max":621,"o":"m 417 -14 q 241 26 318 -14 q 120 151 164 67 q 76 368 76 236 q 122 592 76 506 q 247 718 168 678 q 425 758 325 758 q 535 747 482 758 q 621 718 588 735 l 583 617 q 506 640 550 629 q 422 651 461 651 q 299 619 347 651 q 226 525 250 588 q 203 369 203 463 q 226 218 203 281 q 297 124 250 156 q 415 92 344 92 q 523 104 476 92 q 608 135 569 117 l 608 26 q 526 -3 571 7 q 417 -14 481 -14 m 396 1024 q 445 1005 424 1024 q 467 946 467 986 q 445 888 467 907 q 396 868 424 868 q 344 888 365 868 q 324 946 324 907 q 344 1005 324 986 q 396 1024 365 1024 z "},"d":{"ha":854,"x_min":76,"x_max":736,"o":"m 382 -14 q 160 83 243 -14 q 76 371 76 179 q 160 660 76 563 q 383 758 244 758 q 524 726 469 758 q 614 649 579 694 l 622 649 q 617 702 621 667 q 614 758 614 738 l 614 1056 l 736 1056 l 736 0 l 638 0 l 619 100 l 614 100 q 525 19 581 53 q 382 -14 469 -14 m 401 88 q 567 152 519 88 q 615 347 615 217 l 615 369 q 569 583 615 508 q 400 657 524 657 q 252 578 301 657 q 203 368 203 500 q 252 161 203 235 q 401 88 301 88 z "},"ð":{"ha":840,"x_min":76,"x_max":765,"o":"m 300 1063 q 390 1017 344 1042 q 475 963 435 992 l 635 1056 l 688 981 l 550 901 q 705 682 644 813 q 765 382 765 551 q 724 162 765 250 q 604 30 682 74 q 418 -14 526 -14 q 241 27 318 -14 q 120 144 164 68 q 76 324 76 219 q 117 502 76 428 q 230 617 157 576 q 403 657 303 657 q 531 638 476 657 q 619 576 586 618 l 625 579 q 557 725 603 658 q 453 844 511 792 l 272 740 l 219 817 l 375 906 q 314 944 346 925 q 250 979 282 963 l 300 1063 m 421 558 q 294 531 343 558 q 223 450 246 503 q 200 319 200 397 q 223 199 200 251 q 295 116 246 146 q 421 86 344 86 q 589 153 536 86 q 642 349 642 221 q 628 430 642 392 q 588 497 615 468 q 519 542 560 525 q 421 558 478 558 z "},"ď":{"ha":854,"x_min":76,"x_max":956,"o":"m 382 -14 q 160 83 243 -14 q 76 371 76 179 q 160 660 76 563 q 383 758 244 758 q 524 726 469 758 q 614 649 579 694 l 622 649 q 617 702 621 667 q 614 758 614 738 l 614 1056 l 736 1056 l 736 0 l 638 0 l 619 100 l 614 100 q 525 19 581 53 q 382 -14 469 -14 m 401 88 q 567 152 519 88 q 615 347 615 217 l 615 369 q 569 583 615 508 q 400 657 524 657 q 252 578 301 657 q 203 368 203 500 q 252 161 203 235 q 401 88 301 88 m 956 1043 q 934 981 950 1018 q 897 903 918 943 q 856 833 876 864 l 789 833 l 789 850 q 803 896 796 869 q 816 951 810 922 q 827 1006 822 979 q 835 1056 832 1033 l 956 1056 l 956 1043 z "},"đ":{"ha":857,"x_min":76,"x_max":842,"o":"m 382 -14 q 160 83 243 -14 q 76 368 76 179 q 160 658 76 563 q 382 754 244 754 q 524 722 469 754 q 614 644 579 690 l 622 644 q 617 698 619 663 q 614 756 614 733 l 614 840 l 318 840 l 318 932 l 614 932 l 614 1056 l 736 1056 l 736 932 l 842 932 l 842 840 l 736 840 l 736 0 l 636 0 l 618 100 l 613 100 q 524 19 579 53 q 382 -14 468 -14 m 403 88 q 567 151 519 88 q 615 344 615 215 l 615 368 q 569 581 615 508 q 400 653 524 653 q 253 576 301 653 q 204 367 204 500 q 253 160 204 233 q 403 88 301 88 z "},"e":{"ha":783,"x_min":76,"x_max":713,"o":"m 406 758 q 570 717 501 758 q 676 599 639 675 q 713 422 713 524 l 713 349 l 203 349 q 267 156 206 222 q 440 90 329 90 q 566 103 511 90 q 679 142 621 117 l 679 35 q 567 -2 622 10 q 435 -14 511 -14 q 248 29 329 -14 q 122 158 167 72 q 76 367 76 243 q 117 576 76 489 q 233 711 158 664 q 406 758 307 758 m 404 658 q 266 602 317 658 q 206 446 215 546 l 585 446 q 565 557 585 510 q 506 631 546 604 q 404 658 467 658 z "},"é":{"ha":783,"x_min":76,"x_max":713,"o":"m 406 758 q 570 717 501 758 q 676 599 639 675 q 713 422 713 524 l 713 349 l 203 349 q 267 156 206 222 q 440 90 329 90 q 566 103 511 90 q 679 142 621 117 l 679 35 q 567 -2 622 10 q 435 -14 511 -14 q 248 29 329 -14 q 122 158 167 72 q 76 367 76 243 q 117 576 76 489 q 233 711 158 664 q 406 758 307 758 m 404 658 q 266 602 317 658 q 206 446 215 546 l 585 446 q 565 557 585 510 q 506 631 546 604 q 404 658 467 658 m 601 1050 q 565 1003 589 1031 q 513 945 542 975 q 456 888 485 915 q 403 842 428 861 l 322 842 l 322 858 q 367 921 343 885 q 415 995 392 957 q 454 1064 439 1033 l 601 1064 l 601 1050 z "},"ě":{"ha":783,"x_min":76,"x_max":713,"o":"m 406 758 q 570 717 501 758 q 676 599 639 675 q 713 422 713 524 l 713 349 l 203 349 q 267 156 206 222 q 440 90 329 90 q 566 103 511 90 q 679 142 621 117 l 679 35 q 567 -2 622 10 q 435 -14 511 -14 q 248 29 329 -14 q 122 158 167 72 q 76 367 76 243 q 117 576 76 489 q 233 711 158 664 q 406 758 307 758 m 404 658 q 266 602 317 658 q 206 446 215 546 l 585 446 q 565 557 585 510 q 506 631 546 604 q 404 658 467 658 m 332 842 q 283 910 314 874 q 219 983 253 947 q 161 1046 186 1019 l 161 1064 l 244 1064 q 319 1007 281 1040 q 393 936 358 974 q 469 1007 431 974 q 544 1064 508 1040 l 631 1064 l 631 1046 q 570 983 604 1019 q 505 910 536 947 q 457 842 474 874 l 332 842 z "},"ê":{"ha":783,"x_min":76,"x_max":713,"o":"m 406 758 q 570 717 501 758 q 676 599 639 675 q 713 422 713 524 l 713 349 l 203 349 q 267 156 206 222 q 440 90 329 90 q 566 103 511 90 q 679 142 621 117 l 679 35 q 567 -2 622 10 q 435 -14 511 -14 q 248 29 329 -14 q 122 158 167 72 q 76 367 76 243 q 117 576 76 489 q 233 711 158 664 q 406 758 307 758 m 404 658 q 266 602 317 658 q 206 446 215 546 l 585 446 q 565 557 585 510 q 506 631 546 604 q 404 658 467 658 m 457 1064 q 505 995 474 1033 q 570 920 536 957 q 631 857 604 883 l 631 842 l 544 842 q 469 897 508 864 q 393 967 431 929 q 318 897 356 929 q 244 842 281 865 l 161 842 l 161 857 q 220 921 188 885 q 283 995 253 957 q 332 1064 314 1033 l 457 1064 z "},"ë":{"ha":783,"x_min":76,"x_max":713,"o":"m 406 758 q 570 717 501 758 q 676 599 639 675 q 713 422 713 524 l 713 349 l 203 349 q 267 156 206 222 q 440 90 329 90 q 566 103 511 90 q 679 142 621 117 l 679 35 q 567 -2 622 10 q 435 -14 511 -14 q 248 29 329 -14 q 122 158 167 72 q 76 367 76 243 q 117 576 76 489 q 233 711 158 664 q 406 758 307 758 m 404 658 q 266 602 317 658 q 206 446 215 546 l 585 446 q 565 557 585 510 q 506 631 546 604 q 404 658 467 658 m 201 946 q 221 998 201 982 q 267 1014 240 1014 q 313 998 293 1014 q 332 946 332 982 q 313 894 332 911 q 267 876 293 876 q 221 894 240 876 q 201 946 201 911 m 463 946 q 481 998 463 982 q 526 1014 500 1014 q 572 998 553 1014 q 592 946 592 982 q 572 894 592 911 q 526 876 553 876 q 481 894 500 876 q 463 946 463 911 z "},"ė":{"ha":783,"x_min":76,"x_max":713,"o":"m 406 758 q 570 717 501 758 q 676 599 639 675 q 713 422 713 524 l 713 349 l 203 349 q 267 156 206 222 q 440 90 329 90 q 566 103 511 90 q 679 142 621 117 l 679 35 q 567 -2 622 10 q 435 -14 511 -14 q 248 29 329 -14 q 122 158 167 72 q 76 367 76 243 q 117 576 76 489 q 233 711 158 664 q 406 758 307 758 m 404 658 q 266 602 317 658 q 206 446 215 546 l 585 446 q 565 557 585 510 q 506 631 546 604 q 404 658 467 658 m 397 1024 q 447 1005 425 1024 q 468 946 468 986 q 447 888 468 907 q 397 868 425 868 q 346 888 367 868 q 325 946 325 907 q 346 1005 325 986 q 397 1024 367 1024 z "},"è":{"ha":783,"x_min":76,"x_max":713,"o":"m 406 758 q 570 717 501 758 q 676 599 639 675 q 713 422 713 524 l 713 349 l 203 349 q 267 156 206 222 q 440 90 329 90 q 566 103 511 90 q 679 142 621 117 l 679 35 q 567 -2 622 10 q 435 -14 511 -14 q 248 29 329 -14 q 122 158 167 72 q 76 367 76 243 q 117 576 76 489 q 233 711 158 664 q 406 758 307 758 m 404 658 q 266 602 317 658 q 206 446 215 546 l 585 446 q 565 557 585 510 q 506 631 546 604 q 404 658 467 658 m 361 1064 q 399 995 376 1033 q 448 921 422 957 q 494 858 474 885 l 494 842 l 413 842 q 360 888 389 861 q 302 945 331 915 q 251 1003 274 975 q 215 1050 228 1031 l 215 1064 l 361 1064 z "},"ē":{"ha":783,"x_min":76,"x_max":713,"o":"m 406 758 q 570 717 501 758 q 676 599 639 675 q 713 422 713 524 l 713 349 l 203 349 q 267 156 206 222 q 440 90 329 90 q 566 103 511 90 q 679 142 621 117 l 679 35 q 567 -2 622 10 q 435 -14 511 -14 q 248 29 329 -14 q 122 158 167 72 q 76 367 76 243 q 117 576 76 489 q 233 711 158 664 q 406 758 307 758 m 404 658 q 266 602 317 658 q 206 446 215 546 l 585 446 q 565 557 585 510 q 506 631 546 604 q 404 658 467 658 m 601 940 l 601 842 l 189 842 l 189 940 l 601 940 z "},"ę":{"ha":783,"x_min":76,"x_max":713,"o":"m 540 -161 q 557 -208 540 -192 q 603 -224 574 -224 q 642 -220 626 -224 q 669 -215 658 -217 l 669 -293 q 631 -302 650 -299 q 583 -306 611 -306 q 475 -271 510 -306 q 440 -175 440 -236 q 460 -97 440 -135 q 510 -29 481 -60 q 568 21 540 1 l 679 35 q 593 -43 624 -10 q 551 -104 563 -76 q 540 -161 540 -132 m 406 758 q 570 717 501 758 q 676 599 639 675 q 713 422 713 524 l 713 349 l 203 349 q 267 156 206 222 q 440 90 329 90 q 566 103 511 90 q 679 142 621 117 l 679 35 q 567 -2 622 10 q 435 -14 511 -14 q 248 29 329 -14 q 122 158 167 72 q 76 367 76 243 q 117 576 76 489 q 233 711 158 664 q 406 758 307 758 m 404 658 q 266 602 317 658 q 206 446 215 546 l 585 446 q 565 557 585 510 q 506 631 546 604 q 404 658 467 658 z "},"f":{"ha":478,"x_min":21,"x_max":538,"o":"m 461 650 l 274 650 l 274 0 l 151 0 l 151 650 l 21 650 l 21 707 l 151 749 l 151 792 q 180 947 151 888 q 263 1035 208 1007 q 393 1063 317 1063 q 474 1055 438 1063 q 538 1038 511 1047 l 506 942 q 454 956 483 949 q 394 963 425 963 q 303 922 333 963 q 274 793 274 881 l 274 744 l 461 744 l 461 650 z "},"g":{"ha":854,"x_min":76,"x_max":736,"o":"m 382 758 q 515 731 456 758 q 615 646 574 703 l 622 646 l 639 744 l 736 744 l 736 -12 q 700 -190 736 -118 q 590 -297 664 -261 q 403 -333 517 -333 q 255 -322 322 -333 q 135 -286 188 -310 l 135 -174 q 258 -217 188 -201 q 410 -232 329 -232 q 560 -176 506 -232 q 615 -22 615 -119 l 615 7 q 617 55 615 24 q 619 99 618 86 l 614 99 q 517 14 575 42 q 383 -14 460 -14 q 158 88 239 -14 q 76 371 76 189 q 158 653 76 549 q 382 758 239 758 m 399 656 q 254 581 306 656 q 203 369 203 507 q 253 159 203 232 q 401 86 304 86 q 499 101 458 86 q 565 147 539 115 q 604 226 592 178 q 617 342 617 275 l 617 371 q 594 535 617 472 q 522 626 571 597 q 399 656 474 656 z "},"ğ":{"ha":854,"x_min":76,"x_max":736,"o":"m 382 758 q 515 731 456 758 q 615 646 574 703 l 622 646 l 639 744 l 736 744 l 736 -12 q 700 -190 736 -118 q 590 -297 664 -261 q 403 -333 517 -333 q 255 -322 322 -333 q 135 -286 188 -310 l 135 -174 q 258 -217 188 -201 q 410 -232 329 -232 q 560 -176 506 -232 q 615 -22 615 -119 l 615 7 q 617 55 615 24 q 619 99 618 86 l 614 99 q 517 14 575 42 q 383 -14 460 -14 q 158 88 239 -14 q 76 371 76 189 q 158 653 76 549 q 382 758 239 758 m 399 656 q 254 581 306 656 q 203 369 203 507 q 253 159 203 232 q 401 86 304 86 q 499 101 458 86 q 565 147 539 115 q 604 226 592 178 q 617 342 617 275 l 617 371 q 594 535 617 472 q 522 626 571 597 q 399 656 474 656 m 628 1028 q 565 893 621 944 q 408 842 508 842 q 253 892 306 842 q 196 1028 201 943 l 271 1028 q 292 972 275 990 q 340 947 310 953 q 411 940 369 940 q 477 947 447 940 q 527 973 507 954 q 551 1028 547 992 l 628 1028 z "},"ģ":{"ha":854,"x_min":76,"x_max":736,"o":"m 382 758 q 515 731 456 758 q 615 646 574 703 l 622 646 l 639 744 l 736 744 l 736 -12 q 700 -190 736 -118 q 590 -297 664 -261 q 403 -333 517 -333 q 255 -322 322 -333 q 135 -286 188 -310 l 135 -174 q 258 -217 188 -201 q 410 -232 329 -232 q 560 -176 506 -232 q 615 -22 615 -119 l 615 7 q 617 55 615 24 q 619 99 618 86 l 614 99 q 517 14 575 42 q 383 -14 460 -14 q 158 88 239 -14 q 76 371 76 189 q 158 653 76 549 q 382 758 239 758 m 399 656 q 254 581 306 656 q 203 369 203 507 q 253 159 203 232 q 401 86 304 86 q 499 101 458 86 q 565 147 539 115 q 604 226 592 178 q 617 342 617 275 l 617 371 q 594 535 617 472 q 522 626 571 597 q 399 656 474 656 m 504 1047 q 481 987 493 1024 q 460 911 469 950 q 446 842 450 872 l 325 842 l 325 854 q 349 917 332 879 q 388 994 365 954 q 436 1064 411 1033 l 504 1064 l 504 1047 z "},"ġ":{"ha":854,"x_min":76,"x_max":736,"o":"m 382 758 q 515 731 456 758 q 615 646 574 703 l 622 646 l 639 744 l 736 744 l 736 -12 q 700 -190 736 -118 q 590 -297 664 -261 q 403 -333 517 -333 q 255 -322 322 -333 q 135 -286 188 -310 l 135 -174 q 258 -217 188 -201 q 410 -232 329 -232 q 560 -176 506 -232 q 615 -22 615 -119 l 615 7 q 617 55 615 24 q 619 99 618 86 l 614 99 q 517 14 575 42 q 383 -14 460 -14 q 158 88 239 -14 q 76 371 76 189 q 158 653 76 549 q 382 758 239 758 m 399 656 q 254 581 306 656 q 203 369 203 507 q 253 159 203 232 q 401 86 304 86 q 499 101 458 86 q 565 147 539 115 q 604 226 592 178 q 617 342 617 275 l 617 371 q 594 535 617 472 q 522 626 571 597 q 399 656 474 656 m 414 1024 q 463 1005 442 1024 q 485 946 485 986 q 463 888 485 907 q 414 868 442 868 q 363 888 383 868 q 342 946 342 907 q 363 1005 342 986 q 414 1024 383 1024 z "},"h":{"ha":858,"x_min":118,"x_max":746,"o":"m 240 746 q 238 692 240 719 q 233 642 236 664 l 242 642 q 301 706 265 681 q 382 744 338 731 q 474 757 426 757 q 624 728 564 757 q 715 640 685 700 q 746 485 746 581 l 746 0 l 625 0 l 625 476 q 585 611 625 567 q 458 656 544 656 q 287 585 333 656 q 240 385 240 515 l 240 0 l 118 0 l 118 1056 l 240 1056 l 240 746 z "},"ħ":{"ha":858,"x_min":13,"x_max":746,"o":"m 240 1056 l 240 931 l 535 931 l 535 839 l 240 839 l 240 718 q 238 665 240 692 q 233 615 236 638 l 242 615 q 301 679 265 654 q 382 717 338 704 q 475 731 426 731 q 625 702 565 731 q 715 613 685 674 q 746 457 746 553 l 746 0 l 625 0 l 625 449 q 585 583 625 539 q 458 628 544 628 q 287 558 333 628 q 240 358 240 489 l 240 0 l 118 0 l 118 839 l 13 839 l 13 931 l 118 931 l 118 1056 l 240 1056 z "},"i":{"ha":358,"x_min":108,"x_max":251,"o":"m 240 744 l 240 0 l 118 0 l 118 744 l 240 744 m 181 1024 q 230 1005 208 1024 q 251 946 251 986 q 230 888 251 907 q 181 868 208 868 q 129 888 150 868 q 108 946 108 907 q 129 1005 108 986 q 181 1024 150 1024 z "},"ı":{"ha":358,"x_min":118,"x_max":240,"o":"m 240 0 l 118 0 l 118 744 l 240 744 l 240 0 z "},"í":{"ha":358,"x_min":106,"x_max":385,"o":"m 240 0 l 118 0 l 118 744 l 240 744 l 240 0 m 385 1050 q 349 1003 372 1031 q 297 945 325 975 q 240 888 268 915 q 186 842 211 861 l 106 842 l 106 858 q 151 921 126 885 q 199 995 175 957 q 238 1064 222 1033 l 385 1064 l 385 1050 z "},"î":{"ha":358,"x_min":-56,"x_max":414,"o":"m 240 0 l 118 0 l 118 744 l 240 744 l 240 0 m 240 1064 q 288 995 257 1033 q 353 920 319 957 q 414 857 388 883 l 414 842 l 328 842 q 253 897 292 864 q 176 967 214 929 q 101 897 139 929 q 28 842 64 865 l -56 842 l -56 857 q 3 921 -29 885 q 67 995 36 957 q 115 1064 97 1033 l 240 1064 z "},"ï":{"ha":358,"x_min":-15,"x_max":375,"o":"m 240 0 l 118 0 l 118 744 l 240 744 l 240 0 m -15 946 q 4 998 -15 982 q 50 1014 24 1014 q 96 998 76 1014 q 115 946 115 982 q 96 894 115 911 q 50 876 76 876 q 4 894 24 876 q -15 946 -15 911 m 246 946 q 265 998 246 982 q 310 1014 283 1014 q 356 998 336 1014 q 375 946 375 982 q 356 894 375 911 q 310 876 336 876 q 265 894 283 876 q 246 946 246 911 z "},"ì":{"ha":358,"x_min":-1,"x_max":278,"o":"m 240 0 l 118 0 l 118 744 l 240 744 l 240 0 m 144 1064 q 183 995 160 1033 q 231 921 206 957 q 278 858 257 885 l 278 842 l 196 842 q 143 888 172 861 q 85 945 114 915 q 34 1003 57 975 q -1 1050 11 1031 l -1 1064 l 144 1064 z "},"ĳ":{"ha":717,"x_min":108,"x_max":610,"o":"m 240 744 l 240 0 l 118 0 l 118 744 l 240 744 m 181 1024 q 230 1005 208 1024 q 251 946 251 986 q 230 888 251 907 q 181 868 208 868 q 129 888 150 868 q 108 946 108 907 q 129 1005 108 986 q 181 1024 150 1024 m 389 -333 q 328 -328 354 -333 q 282 -317 301 -324 l 282 -218 q 325 -228 303 -224 q 374 -232 347 -232 q 447 -208 418 -232 q 476 -115 476 -183 l 476 744 l 599 744 l 599 -111 q 576 -231 599 -181 q 508 -307 554 -281 q 389 -333 463 -333 m 467 946 q 488 1005 467 986 q 539 1024 508 1024 q 588 1005 567 1024 q 610 946 610 986 q 588 888 610 907 q 539 868 567 868 q 488 888 508 868 q 467 946 467 907 z "},"ī":{"ha":358,"x_min":-28,"x_max":385,"o":"m 240 0 l 118 0 l 118 744 l 240 744 l 240 0 m 385 940 l 385 842 l -28 842 l -28 940 l 385 940 z "},"į":{"ha":358,"x_min":38,"x_max":267,"o":"m 240 744 l 240 0 l 118 0 l 118 744 l 240 744 m 181 1024 q 230 1005 208 1024 q 251 946 251 986 q 230 888 251 907 q 181 868 208 868 q 129 888 150 868 q 108 946 108 907 q 129 1005 108 986 q 181 1024 150 1024 m 138 -161 q 154 -208 138 -192 q 200 -224 171 -224 q 240 -220 224 -224 q 267 -215 256 -217 l 267 -293 q 228 -302 247 -299 q 181 -306 208 -306 q 72 -271 107 -306 q 38 -175 38 -236 q 58 -97 38 -135 q 108 -29 78 -60 q 165 21 138 1 l 232 0 q 161 -81 185 -44 q 138 -161 138 -118 z "},"j":{"ha":358,"x_min":-76,"x_max":251,"o":"m 31 -333 q -31 -328 -4 -333 q -76 -317 -57 -324 l -76 -218 q -33 -228 -56 -224 q 15 -232 -11 -232 q 89 -208 60 -232 q 118 -115 118 -183 l 118 744 l 240 744 l 240 -111 q 218 -231 240 -181 q 150 -307 196 -281 q 31 -333 104 -333 m 108 946 q 129 1005 108 986 q 181 1024 150 1024 q 230 1005 208 1024 q 251 946 251 986 q 230 888 251 907 q 181 868 208 868 q 129 888 150 868 q 108 946 108 907 z "},"ȷ":{"ha":358,"x_min":-76,"x_max":240,"o":"m 31 -333 q -31 -328 -4 -333 q -76 -317 -57 -324 l -76 -218 q -33 -228 -56 -224 q 15 -232 -11 -232 q 89 -208 60 -232 q 118 -115 118 -183 l 118 744 l 240 744 l 240 -111 q 218 -231 240 -181 q 150 -307 196 -281 q 31 -333 104 -333 z "},"k":{"ha":742,"x_min":118,"x_max":729,"o":"m 239 504 q 237 446 239 482 q 233 383 235 410 l 239 383 q 264 415 247 394 q 298 458 281 436 q 328 493 315 479 l 565 744 l 708 744 l 407 426 l 729 0 l 582 0 l 324 347 l 239 274 l 239 0 l 118 0 l 118 1056 l 239 1056 l 239 504 z "},"ķ":{"ha":742,"x_min":118,"x_max":729,"o":"m 239 504 q 237 446 239 482 q 233 383 235 410 l 239 383 q 264 415 247 394 q 298 458 281 436 q 328 493 315 479 l 565 744 l 708 744 l 407 426 l 729 0 l 582 0 l 324 347 l 239 274 l 239 0 l 118 0 l 118 1056 l 239 1056 l 239 504 m 460 -97 q 437 -160 454 -122 q 397 -237 419 -199 q 349 -307 374 -276 l 282 -307 l 282 -290 q 305 -230 293 -267 q 326 -153 317 -193 q 339 -85 336 -114 l 460 -85 l 460 -97 z "},"l":{"ha":358,"x_min":118,"x_max":240,"o":"m 240 0 l 118 0 l 118 1056 l 240 1056 l 240 0 z "},"ĺ":{"ha":358,"x_min":106,"x_max":385,"o":"m 240 0 l 118 0 l 118 1056 l 240 1056 l 240 0 m 385 1361 q 349 1314 372 1342 q 297 1256 325 1286 q 240 1199 268 1226 q 186 1153 211 1172 l 106 1153 l 106 1169 q 151 1232 126 1196 q 199 1306 175 1268 q 238 1375 222 1344 l 385 1375 l 385 1361 z "},"ľ":{"ha":358,"x_min":118,"x_max":468,"o":"m 240 0 l 118 0 l 118 1056 l 240 1056 l 240 0 m 468 1043 q 447 981 463 1018 q 410 903 431 943 q 368 833 389 864 l 301 833 l 301 850 q 315 896 308 869 q 328 951 322 922 q 340 1006 335 979 q 347 1056 344 1033 l 468 1056 l 468 1043 z "},"ļ":{"ha":358,"x_min":90,"x_max":268,"o":"m 240 0 l 118 0 l 118 1056 l 240 1056 l 240 0 m 268 -97 q 245 -160 263 -122 q 205 -237 228 -199 q 157 -307 182 -276 l 90 -307 l 90 -290 q 113 -230 101 -267 q 135 -153 125 -193 q 147 -85 144 -114 l 268 -85 l 268 -97 z "},"ł":{"ha":358,"x_min":-12,"x_max":371,"o":"m 108 0 l 108 396 l 38 351 l -12 433 l 108 511 l 108 1056 l 231 1056 l 231 590 l 319 651 l 371 569 l 231 475 l 231 0 l 108 0 z "},"m":{"ha":1299,"x_min":118,"x_max":1186,"o":"m 935 758 q 1124 694 1061 758 q 1186 485 1186 629 l 1186 0 l 1065 0 l 1065 479 q 1028 611 1065 567 q 914 656 992 656 q 759 593 806 656 q 713 411 713 531 l 713 0 l 592 0 l 592 479 q 554 611 592 567 q 439 656 517 656 q 321 624 364 656 q 259 533 278 593 q 240 386 240 474 l 240 0 l 118 0 l 118 744 l 217 744 l 235 643 l 242 643 q 299 708 265 682 q 375 746 333 733 q 461 758 417 758 q 605 728 547 758 q 689 633 663 697 l 696 633 q 798 728 733 697 q 935 758 863 758 z "},"n":{"ha":858,"x_min":118,"x_max":746,"o":"m 476 758 q 678 694 610 758 q 746 485 746 629 l 746 0 l 625 0 l 625 476 q 585 611 625 567 q 458 656 544 656 q 288 586 335 656 q 240 386 240 517 l 240 0 l 118 0 l 118 744 l 217 744 l 235 643 l 242 643 q 303 708 267 682 q 385 746 340 733 q 476 758 429 758 z "},"ń":{"ha":858,"x_min":118,"x_max":746,"o":"m 476 758 q 678 694 610 758 q 746 485 746 629 l 746 0 l 625 0 l 625 476 q 585 611 625 567 q 458 656 544 656 q 288 586 335 656 q 240 386 240 517 l 240 0 l 118 0 l 118 744 l 217 744 l 235 643 l 242 643 q 303 708 267 682 q 385 746 340 733 q 476 758 429 758 m 635 1050 q 599 1003 622 1031 q 547 945 575 975 q 490 888 518 915 q 436 842 461 861 l 356 842 l 356 858 q 401 921 376 885 q 449 995 425 957 q 488 1064 472 1033 l 635 1064 l 635 1050 z "},"ň":{"ha":858,"x_min":118,"x_max":746,"o":"m 476 758 q 678 694 610 758 q 746 485 746 629 l 746 0 l 625 0 l 625 476 q 585 611 625 567 q 458 656 544 656 q 288 586 335 656 q 240 386 240 517 l 240 0 l 118 0 l 118 744 l 217 744 l 235 643 l 242 643 q 303 708 267 682 q 385 746 340 733 q 476 758 429 758 m 365 842 q 317 910 347 874 q 253 983 286 947 q 194 1046 219 1019 l 194 1064 l 278 1064 q 353 1007 314 1040 q 426 936 392 974 q 503 1007 464 974 q 578 1064 542 1040 l 664 1064 l 664 1046 q 603 983 638 1019 q 538 910 569 947 q 490 842 507 874 l 365 842 z "},"ņ":{"ha":858,"x_min":118,"x_max":746,"o":"m 476 758 q 678 694 610 758 q 746 485 746 629 l 746 0 l 625 0 l 625 476 q 585 611 625 567 q 458 656 544 656 q 288 586 335 656 q 240 386 240 517 l 240 0 l 118 0 l 118 744 l 217 744 l 235 643 l 242 643 q 303 708 267 682 q 385 746 340 733 q 476 758 429 758 m 518 -97 q 495 -160 513 -122 q 455 -237 478 -199 q 407 -307 432 -276 l 340 -307 l 340 -290 q 363 -230 351 -267 q 385 -153 375 -193 q 397 -85 394 -114 l 518 -85 l 518 -97 z "},"ñ":{"ha":858,"x_min":118,"x_max":746,"o":"m 476 758 q 678 694 610 758 q 746 485 746 629 l 746 0 l 625 0 l 625 476 q 585 611 625 567 q 458 656 544 656 q 288 586 335 656 q 240 386 240 517 l 240 0 l 118 0 l 118 744 l 217 744 l 235 643 l 242 643 q 303 708 267 682 q 385 746 340 733 q 476 758 429 758 m 175 842 q 200 937 181 897 q 252 998 219 976 q 328 1019 285 1019 q 387 1008 358 1019 q 442 980 415 996 q 492 952 468 964 q 539 940 517 940 q 588 960 571 940 q 615 1021 606 981 l 685 1021 q 638 892 676 940 q 533 843 599 843 q 476 855 504 843 q 422 883 449 867 q 370 910 394 899 q 322 922 346 922 q 272 902 289 922 q 246 842 256 882 l 175 842 z "},"ŋ":{"ha":858,"x_min":118,"x_max":747,"o":"m 547 -333 q 490 -328 514 -333 q 449 -317 467 -324 l 449 -218 q 488 -228 468 -224 q 532 -232 507 -232 q 599 -208 572 -232 q 625 -115 625 -183 l 625 478 q 585 612 625 568 q 460 656 544 656 q 288 587 336 656 q 240 388 240 518 l 240 0 l 118 0 l 118 744 l 217 744 l 236 643 l 243 643 q 303 708 268 682 q 383 746 339 733 q 475 758 428 758 q 627 730 567 758 q 717 642 688 701 q 747 486 747 582 l 747 -111 q 726 -231 747 -181 q 660 -307 704 -281 q 547 -333 617 -333 z "},"o":{"ha":840,"x_min":76,"x_max":765,"o":"m 765 374 q 723 163 765 250 q 603 31 681 76 q 418 -14 525 -14 q 242 31 319 -14 q 121 163 165 76 q 76 374 76 250 q 169 658 76 558 q 422 758 263 758 q 601 713 524 758 q 722 583 678 668 q 765 374 765 497 m 203 374 q 226 222 203 286 q 297 122 249 157 q 421 88 346 88 q 544 122 496 88 q 616 222 593 157 q 639 374 639 286 q 615 525 639 463 q 544 622 592 588 q 419 656 496 656 q 254 581 306 656 q 203 374 203 506 z "},"ó":{"ha":840,"x_min":76,"x_max":765,"o":"m 765 374 q 723 163 765 250 q 603 31 681 76 q 418 -14 525 -14 q 242 31 319 -14 q 121 163 165 76 q 76 374 76 250 q 169 658 76 558 q 422 758 263 758 q 601 713 524 758 q 722 583 678 668 q 765 374 765 497 m 203 374 q 226 222 203 286 q 297 122 249 157 q 421 88 346 88 q 544 122 496 88 q 616 222 593 157 q 639 374 639 286 q 615 525 639 463 q 544 622 592 588 q 419 656 496 656 q 254 581 306 656 q 203 374 203 506 m 626 1050 q 590 1003 614 1031 q 538 945 567 975 q 481 888 510 915 q 428 842 453 861 l 347 842 l 347 858 q 392 921 368 885 q 440 995 417 957 q 479 1064 464 1033 l 626 1064 l 626 1050 z "},"ô":{"ha":840,"x_min":76,"x_max":765,"o":"m 765 374 q 723 163 765 250 q 603 31 681 76 q 418 -14 525 -14 q 242 31 319 -14 q 121 163 165 76 q 76 374 76 250 q 169 658 76 558 q 422 758 263 758 q 601 713 524 758 q 722 583 678 668 q 765 374 765 497 m 203 374 q 226 222 203 286 q 297 122 249 157 q 421 88 346 88 q 544 122 496 88 q 616 222 593 157 q 639 374 639 286 q 615 525 639 463 q 544 622 592 588 q 419 656 496 656 q 254 581 306 656 q 203 374 203 506 m 482 1064 q 530 995 499 1033 q 595 920 561 957 q 656 857 629 883 l 656 842 l 569 842 q 494 897 533 864 q 418 967 456 929 q 343 897 381 929 q 269 842 306 865 l 186 842 l 186 857 q 245 921 213 885 q 308 995 278 957 q 357 1064 339 1033 l 482 1064 z "},"ö":{"ha":840,"x_min":76,"x_max":765,"o":"m 765 374 q 723 163 765 250 q 603 31 681 76 q 418 -14 525 -14 q 242 31 319 -14 q 121 163 165 76 q 76 374 76 250 q 169 658 76 558 q 422 758 263 758 q 601 713 524 758 q 722 583 678 668 q 765 374 765 497 m 203 374 q 226 222 203 286 q 297 122 249 157 q 421 88 346 88 q 544 122 496 88 q 616 222 593 157 q 639 374 639 286 q 615 525 639 463 q 544 622 592 588 q 419 656 496 656 q 254 581 306 656 q 203 374 203 506 m 226 946 q 246 998 226 982 q 292 1014 265 1014 q 338 998 318 1014 q 357 946 357 982 q 338 894 357 911 q 292 876 318 876 q 246 894 265 876 q 226 946 226 911 m 488 946 q 506 998 488 982 q 551 1014 525 1014 q 597 998 578 1014 q 617 946 617 982 q 597 894 617 911 q 551 876 578 876 q 506 894 525 876 q 488 946 488 911 z "},"ò":{"ha":840,"x_min":76,"x_max":765,"o":"m 765 374 q 723 163 765 250 q 603 31 681 76 q 418 -14 525 -14 q 242 31 319 -14 q 121 163 165 76 q 76 374 76 250 q 169 658 76 558 q 422 758 263 758 q 601 713 524 758 q 722 583 678 668 q 765 374 765 497 m 203 374 q 226 222 203 286 q 297 122 249 157 q 421 88 346 88 q 544 122 496 88 q 616 222 593 157 q 639 374 639 286 q 615 525 639 463 q 544 622 592 588 q 419 656 496 656 q 254 581 306 656 q 203 374 203 506 m 386 1064 q 424 995 401 1033 q 473 921 447 957 q 519 858 499 885 l 519 842 l 438 842 q 385 888 414 861 q 327 945 356 915 q 276 1003 299 975 q 240 1050 253 1031 l 240 1064 l 386 1064 z "},"ő":{"ha":840,"x_min":76,"x_max":765,"o":"m 765 374 q 723 163 765 250 q 603 31 681 76 q 418 -14 525 -14 q 242 31 319 -14 q 121 163 165 76 q 76 374 76 250 q 169 658 76 558 q 422 758 263 758 q 601 713 524 758 q 722 583 678 668 q 765 374 765 497 m 203 374 q 226 222 203 286 q 297 122 249 157 q 421 88 346 88 q 544 122 496 88 q 616 222 593 157 q 639 374 639 286 q 615 525 639 463 q 544 622 592 588 q 419 656 496 656 q 254 581 306 656 q 203 374 203 506 m 669 1050 q 638 1004 658 1032 q 590 946 617 976 q 535 888 563 915 q 485 842 508 861 l 415 842 l 415 858 q 457 921 435 885 q 501 995 479 957 q 536 1064 522 1033 l 669 1064 l 669 1050 m 425 1050 q 393 1004 414 1032 q 345 946 372 976 q 291 888 318 915 q 240 842 264 861 l 171 842 l 171 858 q 213 921 190 885 q 256 995 235 957 q 292 1064 276 1033 l 425 1064 l 425 1050 z "},"ō":{"ha":840,"x_min":76,"x_max":765,"o":"m 765 374 q 723 163 765 250 q 603 31 681 76 q 418 -14 525 -14 q 242 31 319 -14 q 121 163 165 76 q 76 374 76 250 q 169 658 76 558 q 422 758 263 758 q 601 713 524 758 q 722 583 678 668 q 765 374 765 497 m 203 374 q 226 222 203 286 q 297 122 249 157 q 421 88 346 88 q 544 122 496 88 q 616 222 593 157 q 639 374 639 286 q 615 525 639 463 q 544 622 592 588 q 419 656 496 656 q 254 581 306 656 q 203 374 203 506 m 626 940 l 626 842 l 214 842 l 214 940 l 626 940 z "},"ø":{"ha":840,"x_min":76,"x_max":765,"o":"m 765 374 q 723 163 765 250 q 603 31 681 76 q 418 -14 525 -14 q 322 -2 367 -14 q 239 32 278 10 l 183 -46 l 103 8 l 165 94 q 99 215 122 144 q 76 374 76 285 q 169 658 76 558 q 422 758 263 758 q 519 745 474 758 q 604 708 565 732 l 658 786 l 740 733 l 678 646 q 742 528 718 597 q 765 374 765 460 m 203 374 q 210 276 203 321 q 236 196 218 231 l 542 621 q 487 647 518 638 q 419 656 456 656 q 254 581 306 656 q 203 374 203 506 m 639 374 q 631 468 639 425 q 607 544 622 511 l 301 119 q 356 96 325 104 q 421 88 386 88 q 544 122 496 88 q 616 222 593 157 q 639 374 639 286 z "},"õ":{"ha":840,"x_min":76,"x_max":765,"o":"m 765 374 q 723 163 765 250 q 603 31 681 76 q 418 -14 525 -14 q 242 31 319 -14 q 121 163 165 76 q 76 374 76 250 q 169 658 76 558 q 422 758 263 758 q 601 713 524 758 q 722 583 678 668 q 765 374 765 497 m 203 374 q 226 222 203 286 q 297 122 249 157 q 421 88 346 88 q 544 122 496 88 q 616 222 593 157 q 639 374 639 286 q 615 525 639 463 q 544 622 592 588 q 419 656 496 656 q 254 581 306 656 q 203 374 203 506 m 167 842 q 192 937 172 897 q 244 998 211 976 q 319 1019 276 1019 q 378 1008 350 1019 q 433 980 407 996 q 484 952 460 964 q 531 940 508 940 q 580 960 563 940 q 607 1021 597 981 l 676 1021 q 629 892 668 940 q 525 843 590 843 q 468 855 496 843 q 413 883 440 867 q 362 910 386 899 q 314 922 338 922 q 264 902 281 922 q 238 842 247 882 l 167 842 z "},"œ":{"ha":1314,"x_min":75,"x_max":1242,"o":"m 940 757 q 1102 715 1035 757 q 1206 599 1169 674 q 1242 422 1242 524 l 1242 349 l 747 349 q 808 153 750 215 q 972 90 865 90 q 1099 103 1046 90 q 1208 142 1153 117 l 1208 35 q 1099 -2 1153 10 q 971 -14 1044 -14 q 804 25 876 -14 q 688 140 732 64 q 574 25 644 64 q 411 -14 503 -14 q 238 31 314 -14 q 119 163 163 76 q 75 374 75 250 q 166 657 75 557 q 415 757 257 757 q 572 718 503 757 q 683 604 642 679 q 790 717 724 678 q 940 757 856 757 m 410 656 q 251 585 300 656 q 203 374 203 514 q 224 217 203 281 q 292 120 246 153 q 413 88 339 88 q 531 119 485 88 q 599 214 576 151 q 621 368 621 276 q 599 528 621 465 q 530 624 576 592 q 410 656 483 656 m 939 657 q 807 603 856 657 q 750 446 758 549 l 1113 446 q 1094 557 1113 510 q 1038 631 1076 604 q 939 657 1000 657 z "},"p":{"ha":854,"x_min":118,"x_max":778,"o":"m 472 758 q 694 663 610 758 q 778 374 778 567 q 740 160 778 247 q 633 30 701 74 q 471 -14 564 -14 q 328 19 385 -14 q 240 94 272 51 l 232 94 q 238 35 235 71 q 240 -28 240 -1 l 240 -333 l 118 -333 l 118 744 l 218 744 l 235 643 l 240 643 q 294 701 263 675 q 369 743 325 728 q 472 758 413 758 m 450 656 q 290 592 336 656 q 240 397 243 528 l 240 374 q 285 162 240 236 q 453 88 331 88 q 565 125 521 88 q 630 227 608 163 q 651 375 651 292 q 602 579 651 503 q 450 656 553 656 z "},"þ":{"ha":854,"x_min":118,"x_max":778,"o":"m 778 374 q 740 160 778 247 q 633 30 701 74 q 472 -14 564 -14 q 329 18 385 -14 q 240 94 274 50 l 232 94 q 235 63 233 85 q 239 17 238 40 q 240 -22 240 -7 l 240 -333 l 118 -333 l 118 1056 l 240 1056 l 240 744 q 239 694 240 725 q 236 644 238 663 l 242 644 q 295 702 264 676 q 369 743 326 728 q 472 758 413 758 q 694 661 610 758 q 778 374 778 564 m 651 375 q 603 585 651 515 q 451 656 554 656 q 290 592 338 656 q 240 400 243 528 l 240 374 q 285 162 240 236 q 453 88 331 88 q 565 121 521 88 q 630 219 608 154 q 651 375 651 283 z "},"q":{"ha":854,"x_min":76,"x_max":736,"o":"m 614 -15 q 615 43 614 10 q 621 100 617 76 l 613 100 q 524 19 581 53 q 379 -14 468 -14 q 160 83 244 -14 q 76 371 76 179 q 115 585 76 499 q 224 715 154 671 q 383 758 293 758 q 526 725 471 758 q 615 643 582 692 l 621 643 l 639 744 l 736 744 l 736 -333 l 614 -333 l 614 -15 m 403 88 q 566 151 518 88 q 615 344 614 214 l 615 369 q 568 584 615 511 q 400 657 521 657 q 251 578 300 657 q 203 368 203 500 q 252 162 203 236 q 403 88 301 88 z "},"r":{"ha":574,"x_min":118,"x_max":553,"o":"m 465 758 q 510 756 486 758 q 553 750 535 754 l 538 638 q 498 644 519 642 q 457 647 476 647 q 350 616 400 647 q 270 528 300 585 q 240 397 240 472 l 240 0 l 118 0 l 118 744 l 218 744 l 232 608 l 238 608 q 331 714 274 669 q 465 758 388 758 z "},"ŕ":{"ha":574,"x_min":118,"x_max":553,"o":"m 465 758 q 510 756 486 758 q 553 750 535 754 l 538 638 q 498 644 519 642 q 457 647 476 647 q 350 616 400 647 q 270 528 300 585 q 240 397 240 472 l 240 0 l 118 0 l 118 744 l 218 744 l 232 608 l 238 608 q 331 714 274 669 q 465 758 388 758 m 539 1050 q 503 1003 526 1031 q 451 945 479 975 q 394 888 422 915 q 340 842 365 861 l 260 842 l 260 858 q 305 921 281 885 q 353 995 329 957 q 392 1064 376 1033 l 539 1064 l 539 1050 z "},"ř":{"ha":574,"x_min":99,"x_max":568,"o":"m 465 758 q 510 756 486 758 q 553 750 535 754 l 538 638 q 498 644 519 642 q 457 647 476 647 q 350 616 400 647 q 270 528 300 585 q 240 397 240 472 l 240 0 l 118 0 l 118 744 l 218 744 l 232 608 l 238 608 q 331 714 274 669 q 465 758 388 758 m 269 842 q 221 910 251 874 q 157 983 190 947 q 99 1046 124 1019 l 99 1064 l 182 1064 q 257 1007 218 1040 q 331 936 296 974 q 407 1007 368 974 q 482 1064 446 1040 l 568 1064 l 568 1046 q 508 983 542 1019 q 442 910 474 947 q 394 842 411 874 l 269 842 z "},"ŗ":{"ha":574,"x_min":86,"x_max":553,"o":"m 465 758 q 510 756 486 758 q 553 750 535 754 l 538 638 q 498 644 519 642 q 457 647 476 647 q 350 616 400 647 q 270 528 300 585 q 240 397 240 472 l 240 0 l 118 0 l 118 744 l 218 744 l 232 608 l 238 608 q 331 714 274 669 q 465 758 388 758 m 264 -97 q 241 -160 258 -122 q 201 -237 224 -199 q 153 -307 178 -276 l 86 -307 l 86 -290 q 109 -230 97 -267 q 131 -153 121 -193 q 143 -85 140 -114 l 264 -85 l 264 -97 z "},"s":{"ha":665,"x_min":71,"x_max":603,"o":"m 603 206 q 567 85 603 133 q 464 11 531 36 q 306 -14 397 -14 q 172 -1 228 -14 q 72 33 115 11 l 72 144 q 180 103 117 122 q 308 85 243 85 q 443 115 401 85 q 485 194 485 144 q 469 244 485 222 q 415 289 454 267 q 301 339 375 311 q 178 394 229 367 q 99 461 126 422 q 71 561 71 500 q 148 707 71 656 q 350 758 225 758 q 477 745 418 758 q 588 708 536 732 l 546 611 q 447 644 499 631 q 342 658 396 658 q 227 634 267 658 q 188 568 188 610 q 206 516 188 538 q 266 474 224 494 q 379 426 308 454 q 500 372 450 400 q 576 305 550 344 q 603 206 603 265 z "},"ś":{"ha":665,"x_min":71,"x_max":603,"o":"m 603 206 q 567 85 603 133 q 464 11 531 36 q 306 -14 397 -14 q 172 -1 228 -14 q 72 33 115 11 l 72 144 q 180 103 117 122 q 308 85 243 85 q 443 115 401 85 q 485 194 485 144 q 469 244 485 222 q 415 289 454 267 q 301 339 375 311 q 178 394 229 367 q 99 461 126 422 q 71 561 71 500 q 148 707 71 656 q 350 758 225 758 q 477 745 418 758 q 588 708 536 732 l 546 611 q 447 644 499 631 q 342 658 396 658 q 227 634 267 658 q 188 568 188 610 q 206 516 188 538 q 266 474 224 494 q 379 426 308 454 q 500 372 450 400 q 576 305 550 344 q 603 206 603 265 m 539 1050 q 503 1003 526 1031 q 451 945 479 975 q 394 888 422 915 q 340 842 365 861 l 260 842 l 260 858 q 305 921 281 885 q 353 995 329 957 q 392 1064 376 1033 l 539 1064 l 539 1050 z "},"š":{"ha":665,"x_min":71,"x_max":603,"o":"m 603 206 q 567 85 603 133 q 464 11 531 36 q 306 -14 397 -14 q 172 -1 228 -14 q 72 33 115 11 l 72 144 q 180 103 117 122 q 308 85 243 85 q 443 115 401 85 q 485 194 485 144 q 469 244 485 222 q 415 289 454 267 q 301 339 375 311 q 178 394 229 367 q 99 461 126 422 q 71 561 71 500 q 148 707 71 656 q 350 758 225 758 q 477 745 418 758 q 588 708 536 732 l 546 611 q 447 644 499 631 q 342 658 396 658 q 227 634 267 658 q 188 568 188 610 q 206 516 188 538 q 266 474 224 494 q 379 426 308 454 q 500 372 450 400 q 576 305 550 344 q 603 206 603 265 m 269 842 q 221 910 251 874 q 157 983 190 947 q 99 1046 124 1019 l 99 1064 l 182 1064 q 257 1007 218 1040 q 331 936 296 974 q 407 1007 368 974 q 482 1064 446 1040 l 568 1064 l 568 1046 q 508 983 542 1019 q 442 910 474 947 q 394 842 411 874 l 269 842 z "},"ş":{"ha":665,"x_min":71,"x_max":603,"o":"m 603 206 q 567 85 603 133 q 464 11 531 36 q 306 -14 397 -14 q 172 -1 228 -14 q 72 33 115 11 l 72 144 q 180 103 117 122 q 308 85 243 85 q 443 115 401 85 q 485 194 485 144 q 469 244 485 222 q 415 289 454 267 q 301 339 375 311 q 178 394 229 367 q 99 461 126 422 q 71 561 71 500 q 148 707 71 656 q 350 758 225 758 q 477 745 418 758 q 588 708 536 732 l 546 611 q 447 644 499 631 q 342 658 396 658 q 227 634 267 658 q 188 568 188 610 q 206 516 188 538 q 266 474 224 494 q 379 426 308 454 q 500 372 450 400 q 576 305 550 344 q 603 206 603 265 m 471 -193 q 419 -297 471 -260 q 265 -333 368 -333 q 226 -331 244 -333 q 196 -326 207 -329 l 196 -250 q 229 -255 208 -253 q 269 -257 250 -257 q 346 -244 319 -257 q 372 -196 372 -231 q 335 -143 372 -160 q 246 -119 299 -126 l 306 0 l 386 0 l 350 -74 q 411 -95 383 -81 q 455 -133 439 -110 q 471 -193 471 -157 z "},"ș":{"ha":665,"x_min":71,"x_max":603,"o":"m 603 206 q 567 85 603 133 q 464 11 531 36 q 306 -14 397 -14 q 172 -1 228 -14 q 72 33 115 11 l 72 144 q 180 103 117 122 q 308 85 243 85 q 443 115 401 85 q 485 194 485 144 q 469 244 485 222 q 415 289 454 267 q 301 339 375 311 q 178 394 229 367 q 99 461 126 422 q 71 561 71 500 q 148 707 71 656 q 350 758 225 758 q 477 745 418 758 q 588 708 536 732 l 546 611 q 447 644 499 631 q 342 658 396 658 q 227 634 267 658 q 188 568 188 610 q 206 516 188 538 q 266 474 224 494 q 379 426 308 454 q 500 372 450 400 q 576 305 550 344 q 603 206 603 265 m 422 -97 q 399 -160 417 -122 q 359 -237 382 -199 q 311 -307 336 -276 l 244 -307 l 244 -290 q 267 -230 256 -267 q 289 -153 279 -193 q 301 -85 299 -114 l 422 -85 l 422 -97 z "},"ß":{"ha":876,"x_min":118,"x_max":814,"o":"m 725 857 q 706 774 725 810 q 657 712 686 739 q 599 663 628 685 q 550 619 569 640 q 531 572 531 597 q 540 539 531 554 q 575 503 549 524 q 653 449 601 483 q 739 382 703 415 q 794 308 775 349 q 814 213 814 268 q 781 83 814 133 q 690 10 749 33 q 556 -14 632 -14 q 440 -1 490 -14 q 354 33 390 11 l 354 143 q 410 115 378 129 q 478 93 442 101 q 551 85 515 85 q 661 117 628 85 q 694 204 694 149 q 683 263 694 238 q 642 314 671 289 q 564 371 614 339 q 473 438 506 408 q 426 499 440 468 q 413 565 413 529 q 431 639 413 608 q 478 692 450 669 q 535 738 507 715 q 583 786 564 760 q 601 850 601 813 q 552 935 601 908 q 425 961 503 961 q 334 948 376 961 q 266 903 292 935 q 240 811 240 871 l 240 0 l 118 0 l 118 811 q 158 959 118 904 q 268 1038 199 1014 q 425 1063 338 1063 q 583 1040 515 1063 q 688 972 650 1017 q 725 857 725 926 z "},"t":{"ha":501,"x_min":22,"x_max":471,"o":"m 367 86 q 424 91 394 86 q 471 101 453 96 l 471 8 q 415 -8 451 -1 q 346 -14 379 -14 q 238 6 288 -14 q 158 76 189 26 q 128 217 128 126 l 128 650 l 22 650 l 22 708 l 129 757 l 178 915 l 250 915 l 250 744 l 465 744 l 465 650 l 250 650 l 250 219 q 283 119 250 151 q 367 86 315 86 z "},"ť":{"ha":501,"x_min":22,"x_max":653,"o":"m 367 86 q 424 91 394 86 q 471 101 453 96 l 471 8 q 415 -8 451 -1 q 346 -14 379 -14 q 238 6 288 -14 q 158 76 189 26 q 128 217 128 126 l 128 650 l 22 650 l 22 708 l 129 757 l 178 915 l 250 915 l 250 744 l 465 744 l 465 650 l 250 650 l 250 219 q 283 119 250 151 q 367 86 315 86 m 653 1043 q 631 981 647 1018 q 594 903 615 943 q 553 833 574 864 l 486 833 l 486 850 q 500 896 493 869 q 513 951 507 922 q 524 1006 519 979 q 532 1056 529 1033 l 653 1056 l 653 1043 z "},"ț":{"ha":501,"x_min":22,"x_max":471,"o":"m 367 86 q 424 91 394 86 q 471 101 453 96 l 471 8 q 415 -8 451 -1 q 346 -14 379 -14 q 238 6 288 -14 q 158 76 189 26 q 128 217 128 126 l 128 650 l 22 650 l 22 708 l 129 757 l 178 915 l 250 915 l 250 744 l 465 744 l 465 650 l 250 650 l 250 219 q 283 119 250 151 q 367 86 315 86 m 386 -97 q 363 -160 381 -122 q 323 -237 346 -199 q 275 -307 300 -276 l 208 -307 l 208 -290 q 231 -230 219 -267 q 253 -153 243 -193 q 265 -85 263 -114 l 386 -85 l 386 -97 z "},"u":{"ha":858,"x_min":110,"x_max":740,"o":"m 740 744 l 740 0 l 640 0 l 622 99 l 617 99 q 556 35 593 60 q 474 -2 518 10 q 381 -14 429 -14 q 231 15 292 -14 q 140 103 171 43 q 110 257 110 163 l 110 744 l 233 744 l 233 265 q 274 132 233 176 q 399 88 314 88 q 570 157 522 88 q 618 357 618 226 l 618 744 l 740 744 z "},"ú":{"ha":858,"x_min":110,"x_max":740,"o":"m 740 744 l 740 0 l 640 0 l 622 99 l 617 99 q 556 35 593 60 q 474 -2 518 10 q 381 -14 429 -14 q 231 15 292 -14 q 140 103 171 43 q 110 257 110 163 l 110 744 l 233 744 l 233 265 q 274 132 233 176 q 399 88 314 88 q 570 157 522 88 q 618 357 618 226 l 618 744 l 740 744 m 635 1050 q 599 1003 622 1031 q 547 945 575 975 q 490 888 518 915 q 436 842 461 861 l 356 842 l 356 858 q 401 921 376 885 q 449 995 425 957 q 488 1064 472 1033 l 635 1064 l 635 1050 z "}}}
